<?xml version="1.0" encoding="utf-8"?>
<svg version="1.1" id="Layer_1" xmlns="http://www.w3.org/2000/svg" xmlns:xlink="http://www.w3.org/1999/xlink" x="0px" y="0px"
	 width="21px" height="21px" viewBox="0 0 21 21" style="enable-background:new 0 0 21 21;" xml:space="preserve">
<style type="text/css">
	.st0{fill:#0058ad;}
</style>
<title>i</title>
<path class="st0" d="M1.5,9c0.2,0,0.4,0,0.6,0.1c0.4,0.2,0.6,0.4,0.8,0.8c0.2,0.4,0.2,0.8,0,1.2s-0.4,0.6-0.8,0.8
	C1.9,12,1.7,12,1.5,12s-0.4,0-0.6-0.1c-0.4-0.2-0.6-0.4-0.8-0.8C0,10.7,0,10.3,0.1,9.9c0.2-0.4,0.4-0.6,0.8-0.8C1.1,9,1.3,9,1.5,9z"
	/>
<path class="st0" d="M10.5,9c0.2,0,0.4,0,0.6,0.1c0.4,0.2,0.6,0.4,0.8,0.8c0.2,0.4,0.2,0.8,0,1.2s-0.4,0.6-0.8,0.8
	c-0.4,0.2-0.8,0.2-1.2,0s-0.6-0.4-0.8-0.8C9,10.7,9,10.3,9.1,9.9c0.2-0.4,0.4-0.6,0.8-0.8C10.1,9,10.3,9,10.5,9z"/>
<path class="st0" d="M19.5,9c0.2,0,0.4,0,0.6,0.1c0.4,0.2,0.6,0.4,0.8,0.8c0.2,0.4,0.2,0.8,0,1.2s-0.4,0.6-0.8,0.8s-0.8,0.2-1.2,0
	c-0.4-0.2-0.6-0.4-0.8-0.8c-0.2-0.4-0.2-0.8,0-1.2s0.4-0.6,0.8-0.8C19.1,9,19.3,9,19.5,9z"/>
</svg>
