<svg xmlns="http://www.w3.org/2000/svg" viewBox="0 0 230 230"><title>FlowWebsite_Monoline</title><rect width="230" height="230" fill="#0358a7"/><path d="M182,61.78V97.33a72.23,72.23,0,0,1-2.64,19.79,80.58,80.58,0,0,1-7.29,17.57,92.22,92.22,0,0,1-11,15.48,131.29,131.29,0,0,1-13.75,13.54,186.49,186.49,0,0,1-15.55,11.87q-8.13,5.56-16.46,10.42-8.27-4.86-16.39-10.35A167.12,167.12,0,0,1,83.4,163.78a137.05,137.05,0,0,1-13.75-13.61,95.6,95.6,0,0,1-11-15.48,75,75,0,0,1-9.93-37.36V61.78q5.76,0,11.18-.42a78.59,78.59,0,0,0,10.55-1.53,62.34,62.34,0,0,0,10.14-3.12,61.36,61.36,0,0,0,10-5.21,47.35,47.35,0,0,1,11.81-5.63,46,46,0,0,1,13-1.87,51.77,51.77,0,0,1,6.74.42,33.76,33.76,0,0,1,6.18,1.39,51,51,0,0,1,6,2.36,43.69,43.69,0,0,1,5.9,3.33,61.36,61.36,0,0,0,10,5.21,62.34,62.34,0,0,0,10.14,3.12,78.59,78.59,0,0,0,10.55,1.53Q176.24,61.78,182,61.78Zm-8.89,35.55V70.53a86.94,86.94,0,0,1-19.79-3.34,71.31,71.31,0,0,1-18.26-8.4,36.31,36.31,0,0,0-9.37-4.44,37.37,37.37,0,0,0-10.35-1.46,35.7,35.7,0,0,0-10.28,1.39,36.33,36.33,0,0,0-9.44,4.51,70.12,70.12,0,0,1-18.19,8.4,87.17,87.17,0,0,1-19.86,3.34v26.8a62,62,0,0,0,2.29,16.94,70.45,70.45,0,0,0,6.39,15.42,92,92,0,0,0,9.58,13.88,116.06,116.06,0,0,0,11.94,12.36,166.6,166.6,0,0,0,13.4,10.77,145.93,145.93,0,0,0,14.17,9q7.08-4.09,14.1-9A149,149,0,0,0,142.91,156a116.06,116.06,0,0,0,11.94-12.36,92,92,0,0,0,9.58-13.88,67.85,67.85,0,0,0,6.32-15.49A68.56,68.56,0,0,0,173.11,97.33ZM115.34,66.22A21.74,21.74,0,0,1,131,72.75a24,24,0,0,1,4.79,7.08,20.68,20.68,0,0,1,1.81,8.61v8.89h8.89v44.44H84.23V97.33h8.89V88.44a21.44,21.44,0,0,1,1.74-8.61,22.09,22.09,0,0,1,4.72-7A23,23,0,0,1,106.66,68,21.17,21.17,0,0,1,115.34,66.22Zm22.22,66.66V106.22H93.12v26.66ZM102,97.33h26.66V88.44a13.33,13.33,0,1,0-26.66,0Z" fill="#fff"/></svg>