<?xml version="1.0" encoding="utf-8"?>
<!-- Generator: Adobe Illustrator 22.1.0, SVG Export Plug-In . SVG Version: 6.00 Build 0)  -->
<svg version="1.1" id="Layer_1" xmlns="http://www.w3.org/2000/svg" xmlns:xlink="http://www.w3.org/1999/xlink" x="0px" y="0px"
	 viewBox="0 0 100 100" style="enable-background:new 0 0 100 100;" xml:space="preserve">
<style type="text/css">
	.st0{fill:#742774;}
	.st1{fill:#742774;stroke:#FFFFFF;stroke-width:2;stroke-linecap:round;stroke-miterlimit:10;}
</style>
<rect y="0" class="st0" width="100" height="100"/>
<path class="st1" d="M50,24.9H24V75c0,5.2,11.4,9.3,25.6,9.4H50c14.3,0,26-4.2,26-9.4V24.9H50z"/>
<ellipse class="st1" cx="50" cy="24.9" rx="26" ry="9.4"/>
<path class="st1" d="M76,41.5c0,5.2-11.6,9.4-26,9.4s-26-4.2-26-9.4"/>
<path class="st1" d="M76,75c0,5.2-11.6,9.4-26,9.4S24,80.2,24,75"/>
<path class="st1" d="M76,24.8c0,5.2-11.6,9.4-26,9.4S24,30,24,24.8"/>
<path class="st1" d="M76,58.3c0,5.2-11.6,9.4-26,9.4s-26-4.2-26-9.4"/>
<ellipse class="st1" cx="50" cy="24.4" rx="20.7" ry="6.2"/>
<path class="st1" d="M66.3,28.2c2.7-1.1,4.3-2.4,4.3-3.8c0-3.4-9.3-6.2-20.7-6.2s-20.7,2.8-20.7,6.2c0,1.4,1.6,2.7,4.3,3.8
	c3.8-1.5,9.7-2.4,16.3-2.4S62.6,26.7,66.3,28.2z"/>
</svg>
