<?xml version="1.0" encoding="UTF-8"?>
<svg width="40px" height="40px" viewBox="0 0 40 40" version="1.1" xmlns="http://www.w3.org/2000/svg" xmlns:xlink="http://www.w3.org/1999/xlink">
    <!-- Generator: Sketch 48.2 (47327) - http://www.bohemiancoding.com/sketch -->
    <title>Excel_text_bg icon</title>
    <desc>Created with Sketch.</desc>
    <defs></defs>
    <g id="Page-1" stroke="none" stroke-width="1" fill="none" fill-rule="evenodd">
        <g id="Excel_text_bg-icon">
            <rect id="Rectangle" fill="#217346" x="0" y="0" width="40" height="40"></rect>
            <text id="Excel-Online" font-family="SegoeUI, Segoe UI" font-size="6" font-weight="normal" fill="#FFFFFF">
                <tspan x="4.44677734" y="35">Excel Online</tspan>
            </text>
            <g id="Excel_white" transform="translate(8.000000, 4.000000)" fill="#FFFFFF" fill-rule="nonzero">
                <path d="M23.2362,20.241 L23.2362,4.5162 C23.2362,4.3134 23.1621,4.1379 23.0139,3.9897 C22.8657,3.8415 22.6902,3.7674 22.4874,3.7674 L14.2506,3.7674 L14.2506,0.6201 L0.7722,3.7323 L0.7722,20.2761 L14.2506,23.3883 L14.2506,20.9898 L22.4874,20.9898 C22.6902,20.9898 22.8657,20.9157 23.0139,20.7675 C23.1621,20.6193 23.2362,20.4438 23.2362,20.241 Z M8.6814,7.2423 L10.8693,7.1136 L8.3421,11.8989 L10.7991,16.6023 L8.7399,16.4853 L7.488,13.7007 C7.4256,13.5759 7.3788,13.44525 7.3476,13.30875 C7.3164,13.17225 7.2813,13.0377 7.2423,12.9051 L7.2189,12.9051 C7.1955,13.0377 7.16235,13.16835 7.11945,13.29705 C7.07655,13.42575 7.0317,13.5486 6.9849,13.6656 L5.9085,16.3098 L3.9078,16.2045 L6.0372,11.8638 L3.7206,7.5231 L5.6628,7.4178 L6.9615,10.2609 C6.9693,10.2843 6.98295,10.32525 7.00245,10.38375 C7.02195,10.44225 7.04145,10.50465 7.06095,10.57095 C7.08045,10.63725 7.098,10.69965 7.1136,10.75815 C7.1292,10.81665 7.137,10.8576 7.137,10.881 L7.1604,10.881 C7.176,10.8186 7.18965,10.7562 7.20135,10.6938 C7.21305,10.6314 7.2267,10.569 7.2423,10.5066 C7.2501,10.4364 7.2774,10.3584 7.3242,10.2726 L8.6814,7.2423 Z M22.4874,4.5162 L22.4874,20.241 L14.2506,20.241 L14.2506,18.7434 L16.497,18.7434 L16.497,17.2458 L14.2506,17.2458 L14.2506,16.497 L16.497,16.497 L16.497,14.9994 L14.2506,14.9994 L14.2506,14.2506 L16.497,14.2506 L16.497,12.753 L14.2506,12.753 L14.2506,12.0042 L16.497,12.0042 L16.497,10.5066 L14.2506,10.5066 L14.2506,9.7578 L16.497,9.7578 L16.497,8.2602 L14.2506,8.2602 L14.2506,7.5114 L16.497,7.5114 L16.497,6.0138 L14.2506,6.0138 L14.2506,4.5162 L22.4874,4.5162 Z M20.9898,16.497 L20.9898,14.9994 L17.2458,14.9994 L17.2458,16.497 L20.9898,16.497 Z M20.9898,18.7434 L20.9898,17.2458 L17.2458,17.2458 L17.2458,18.7434 L20.9898,18.7434 Z M20.9898,12.0042 L20.9898,10.5066 L17.2458,10.5066 L17.2458,12.0042 L20.9898,12.0042 Z M20.9898,7.5114 L20.9898,6.0138 L17.2458,6.0138 L17.2458,7.5114 L20.9898,7.5114 Z M20.9898,9.7578 L20.9898,8.2602 L17.2458,8.2602 L17.2458,9.7578 L20.9898,9.7578 Z M20.9898,14.2506 L20.9898,12.753 L17.2458,12.753 L17.2458,14.2506 L20.9898,14.2506 Z" id="Shape" transform="translate(12.004200, 12.004200) scale(-1, 1) rotate(-180.000000) translate(-12.004200, -12.004200) "></path>
            </g>
        </g>
    </g>
</svg>