<svg xmlns="http://www.w3.org/2000/svg" viewBox="0 0 32 32"><defs><style>.cls-1{isolation:isolate;}.cls-2{fill:#742774;}.cls-3{opacity:0;mix-blend-mode:multiply;fill:url(#linear-gradient);}.cls-4{fill:#fff;}</style><linearGradient id="linear-gradient" x1="16" x2="16" y2="32" gradientUnits="userSpaceOnUse"><stop offset="0" stop-color="#231f20" stop-opacity="0"/><stop offset="1"/></linearGradient></defs><title>designer icons</title><g id="Layer_1" class="cls-1"><path class="cls-2" d="M0 0h32v32h-32z"/><path class="cls-3" d="M0 0h32v32h-32z"/><rect class="cls-4" x="17.29" y="20.01" width="3.11" height="3.11" rx=".62" ry=".62" transform="translate(-9.73 19.64) rotate(-45)"/><rect class="cls-4" x="20.04" y="17.26" width="3.11" height="3.11" rx=".62" ry=".62" transform="translate(-6.98 20.78) rotate(-45)"/><path class="cls-4" d="M17.86 18.37l-.43-.43-3.65-3.64a.62.62 0 0 0-.88 0l-3.64 3.65-.43.43a.62.62 0 0 0 0 .88l.43.43 3.64 3.64a.62.62 0 0 0 .88 0l3.64-3.64.43-.43a.62.62 0 0 0 .01-.89zm-5 2.2l-1-1-.34-.34a.62.62 0 0 1 0-.88l1.32-1.32a.62.62 0 0 1 .88 0l1.32 1.32a.62.62 0 0 1 0 .88l-.34.34-1 1a.62.62 0 0 1-.8.01z"/><rect class="cls-4" x="17.29" y="14.51" width="3.11" height="3.11" rx=".62" ry=".62" transform="translate(-5.84 18.03) rotate(-45)"/><path class="cls-4" d="M23.67 21.53h-.4v-.8h.4a1.53 1.53 0 0 0 1.53-1.53v-8.13a1.53 1.53 0 0 0-1.53-1.53h-15.07a1.53 1.53 0 0 0-1.53 1.53v8.13a1.53 1.53 0 0 0 1.53 1.53h.4v.8h-.4a2.33 2.33 0 0 1-2.33-2.33v-8.13a2.33 2.33 0 0 1 2.33-2.32h15.07a2.33 2.33 0 0 1 2.33 2.32v8.13a2.33 2.33 0 0 1-2.33 2.33"/></g></svg>