<svg width="230" height="230" viewBox="0 0 230 230" fill="none" xmlns="http://www.w3.org/2000/svg">
<rect width="230" height="230" fill="#135599"/>
<path d="M60.126 115H56.9648L115 173.035L162.66 125.375H177.331L115 187.706L44.8877 117.675C42.9964 115.784 41.3213 113.757 39.8623 111.596C38.4033 109.434 37.1335 107.111 36.0527 104.625H55.749L78.6875 81.7677L115 117.999L140.938 92.1427L153.501 104.625H182.275C184.005 101.869 185.328 98.9512 186.247 95.8712C187.166 92.7911 187.625 89.63 187.625 86.3878C187.625 81.6866 186.76 77.3096 185.031 73.2569C183.302 69.2042 180.897 65.6918 177.817 62.7198C174.737 59.7478 171.171 57.3972 167.118 55.668C163.065 53.9389 158.661 53.0743 153.906 53.0743C149.367 53.0743 145.341 53.7768 141.829 55.1817C138.317 56.5867 135.075 58.4779 132.103 60.8555C129.131 63.2331 126.294 65.8539 123.592 68.7178C120.89 71.5818 118.026 74.5808 115 77.7149C112.082 74.7969 109.245 71.852 106.489 68.88C103.733 65.908 100.869 63.2331 97.8975 60.8555C94.9255 58.4779 91.6562 56.5326 88.0898 55.0196C84.5234 53.5066 80.5247 52.7501 76.0938 52.7501C71.4466 52.7501 67.0967 53.6147 63.0439 55.3438C58.9912 57.073 55.4248 59.4776 52.3447 62.5577C49.2646 65.6378 46.86 69.2042 45.1309 73.2569C43.4017 77.3096 42.5101 81.6866 42.4561 86.3878C42.4561 88.9275 42.7533 91.5483 43.3477 94.2501H32.7295C32.4593 92.9532 32.2972 91.6563 32.2432 90.3594C32.1891 89.0626 32.1351 87.7657 32.0811 86.4688C32.0811 80.3627 33.2158 74.6348 35.4854 69.2852C37.7549 63.9356 40.889 59.2615 44.8877 55.2628C48.8864 51.2641 53.5605 48.13 58.9102 45.8604C64.2598 43.5909 69.9876 42.4291 76.0938 42.3751C80.5788 42.3751 84.5775 42.8884 88.0898 43.9151C91.6022 44.9418 94.8444 46.3468 97.8164 48.13C100.788 49.9132 103.652 52.1016 106.408 54.6954C109.164 57.2891 112.028 60.072 115 63.044C117.972 60.018 120.809 57.2351 123.511 54.6954C126.213 52.1557 129.076 49.9942 132.103 48.211C135.129 46.4278 138.398 44.9958 141.91 43.9151C145.423 42.8344 149.421 42.321 153.906 42.3751C159.958 42.3751 165.659 43.5098 171.009 45.7794C176.358 48.0489 181.006 51.183 184.95 55.1817C188.895 59.1804 192.029 63.8275 194.353 69.1231C196.676 74.4187 197.838 80.1195 197.838 86.2257C197.838 91.4672 196.919 96.5466 195.082 101.464C193.245 106.381 190.624 110.893 187.22 115H149.124L140.938 106.732L115 132.751L78.6875 96.3575L60.126 115Z" fill="white"/>
</svg>
