<svg viewBox="-5 -5 39 32" fill="#000000" style="background-color:#F2C811" xmlns="http://www.w3.org/2000/svg">
<path fill-rule="evenodd" clip-rule="evenodd" d="M24.9219 0.458374C25.4883 0.458374 26.0193 0.565797 26.5149 0.780641C27.0105 0.995485 27.4424 1.2891 27.8105 1.6615C28.1787 2.03389 28.469 2.47074 28.6814 2.97204C28.8938 3.47335 29 4.01045 29 4.58337V15.5834C29 16.1181 28.9056 16.6194 28.7168 17.0873C28.528 17.5552 28.2707 17.9705 27.945 18.3334C27.6194 18.6962 27.237 18.9946 26.7981 19.2285C26.3591 19.4625 25.8847 19.6081 25.375 19.6654V17.8321C25.6299 17.7748 25.8682 17.6793 26.0901 17.5456C26.3119 17.4119 26.5054 17.2448 26.6706 17.0443C26.8358 16.8438 26.9633 16.6194 27.053 16.3711C27.1426 16.1229 27.1875 15.8603 27.1875 15.5834V4.58337C27.1875 4.26827 27.1285 3.97226 27.0105 3.69535C26.8925 3.41844 26.7296 3.17495 26.522 2.96488C26.3143 2.75481 26.0735 2.5901 25.7998 2.47074C25.526 2.35138 25.2334 2.29171 24.9219 2.29171H4.07812C3.7666 2.29171 3.47396 2.35138 3.20019 2.47074C2.92643 2.5901 2.68571 2.75481 2.47803 2.96488C2.27034 3.17495 2.1075 3.41844 1.9895 3.69535C1.8715 3.97226 1.8125 4.26827 1.8125 4.58337V15.5834C1.8125 15.8985 1.8715 16.1945 1.9895 16.4714C2.1075 16.7483 2.27034 16.9918 2.47803 17.2019C2.68571 17.4119 2.92643 17.5766 3.20019 17.696C3.47396 17.8153 3.7666 17.875 4.07812 17.875H4.53125V19.7084H4.07812C3.51172 19.7084 2.98071 19.6009 2.4851 19.3861C1.9895 19.1713 1.55762 18.8776 1.18945 18.5052C0.821289 18.1328 0.531006 17.696 0.318603 17.1947C0.106201 16.6934 0 16.1563 0 15.5834V4.58337C0 4.01045 0.106201 3.47335 0.318603 2.97204C0.531006 2.47074 0.821289 2.03389 1.18945 1.6615C1.55762 1.2891 1.9895 0.995484 2.4851 0.78064C2.98071 0.565796 3.51171 0.458374 4.07812 0.458374H24.9219ZM8.15619 15.5834C8.41108 15.5834 8.64708 15.6312 8.8642 15.7266C9.08132 15.8221 9.27249 15.9534 9.43769 16.1205C9.60289 16.2876 9.73269 16.481 9.82709 16.7006C9.92149 16.9202 9.96869 17.1589 9.96869 17.4167V20.1667C9.96869 20.4246 9.92149 20.6633 9.82709 20.8829C9.73269 21.1025 9.60289 21.2959 9.43769 21.463C9.27249 21.6301 9.08132 21.7614 8.8642 21.8568C8.64708 21.9523 8.41108 22.0001 8.15619 22.0001C7.90131 22.0001 7.66531 21.9523 7.44819 21.8568C7.23107 21.7614 7.0399 21.6301 6.8747 21.463C6.7095 21.2959 6.5797 21.1025 6.4853 20.8829C6.3909 20.6633 6.3437 20.4246 6.3437 20.1667V17.4167C6.3437 17.1589 6.3909 16.9202 6.4853 16.7006C6.5797 16.481 6.7095 16.2876 6.8747 16.1205C7.0399 15.9534 7.23107 15.8221 7.44819 15.7266C7.66531 15.6312 7.90131 15.5834 8.15619 15.5834ZM13.3954 10.2266C13.1783 10.1312 12.9423 10.0834 12.6874 10.0834C12.4326 10.0834 12.1966 10.1312 11.9794 10.2266C11.7623 10.3221 11.5711 10.4534 11.4059 10.6205C11.2407 10.7876 11.1109 10.981 11.0165 11.2006C10.9221 11.4202 10.8749 11.6589 10.8749 11.9167V20.1667C10.8749 20.4246 10.9221 20.6633 11.0165 20.8829C11.1109 21.1025 11.2407 21.2959 11.4059 21.463C11.5711 21.6301 11.7623 21.7614 11.9794 21.8568C12.1966 21.9523 12.4326 22.0001 12.6874 22.0001C12.9423 22.0001 13.1783 21.9523 13.3954 21.8568C13.6126 21.7614 13.8037 21.6301 13.9689 21.463C14.1341 21.2959 14.2639 21.1025 14.3583 20.8829C14.4527 20.6633 14.4999 20.4246 14.4999 20.1667V11.9167C14.4999 11.6589 14.4527 11.4202 14.3583 11.2006C14.2639 10.981 14.1341 10.7876 13.9689 10.6205C13.8037 10.4534 13.6126 10.3221 13.3954 10.2266ZM17.2187 11.9168C17.4736 11.9168 17.7096 11.9645 17.9267 12.06C18.1438 12.1555 18.335 12.2868 18.5002 12.4539C18.6654 12.621 18.7952 12.8143 18.8896 13.0339C18.984 13.2536 19.0312 13.4923 19.0312 13.7501V20.1667C19.0312 20.4246 18.984 20.6633 18.8896 20.8829C18.7952 21.1025 18.6654 21.2959 18.5002 21.463C18.335 21.6301 18.1438 21.7614 17.9267 21.8568C17.7096 21.9523 17.4736 22.0001 17.2187 22.0001C16.9638 22.0001 16.7278 21.9523 16.5107 21.8568C16.2936 21.7614 16.1024 21.6301 15.9372 21.463C15.772 21.2959 15.6422 21.1025 15.5478 20.8829C15.4534 20.6633 15.4062 20.4246 15.4062 20.1667V13.7501C15.4062 13.4923 15.4534 13.2536 15.5478 13.0339C15.6422 12.8143 15.772 12.621 15.9372 12.4539C16.1024 12.2868 16.2936 12.1555 16.5107 12.06C16.7278 11.9645 16.9638 11.9168 17.2187 11.9168ZM22.4579 6.55998C22.2408 6.4645 22.0048 6.41675 21.7499 6.41675C21.4951 6.41675 21.2591 6.4645 21.0419 6.55998C20.8248 6.65547 20.6336 6.78676 20.4684 6.95386C20.3032 7.12096 20.1734 7.31432 20.079 7.53394C19.9846 7.75356 19.9374 7.99227 19.9374 8.25009V20.1667C19.9374 20.4246 19.9846 20.6633 20.079 20.8829C20.1734 21.1025 20.3032 21.2959 20.4684 21.463C20.6336 21.6301 20.8248 21.7614 21.0419 21.8568C21.2591 21.9523 21.4951 22.0001 21.7499 22.0001C22.0048 22.0001 22.2408 21.9523 22.4579 21.8568C22.6751 21.7614 22.8662 21.6301 23.0314 21.463C23.1966 21.2959 23.3264 21.1025 23.4208 20.8829C23.5152 20.6633 23.5624 20.4246 23.5624 20.1667V8.25009C23.5624 7.99227 23.5152 7.75356 23.4208 7.53394C23.3264 7.31432 23.1966 7.12096 23.0314 6.95386C22.8662 6.78676 22.6751 6.65547 22.4579 6.55998Z"/>
</svg>