<svg width="16" height="16" viewBox="0 0 16 16" fill="none" xmlns="http://www.w3.org/2000/svg">
<path d="M6.5 11.25C6.086 11.25 5.75 10.913 5.75 10.5V5.5C5.75 5.164 5.977 4.866 6.3 4.777C6.365 4.759 6.432 4.75 6.501 4.75C6.763 4.75 7.009 4.89 7.143 5.115L8.75 7.793V5.5C8.75 5.087 9.087 4.75 9.5 4.75C9.913 4.75 10.25 5.087 10.25 5.5V10.5C10.25 10.836 10.024 11.133 9.7 11.223C9.636 11.241 9.567 11.25 9.499 11.25C9.237 11.25 8.991 11.11 8.856 10.885L7.25 8.208V10.5C7.25 10.913 6.914 11.25 6.5 11.25Z" fill="#242424"/>
<path d="M13 11.25C12.587 11.25 12.25 10.913 12.25 10.5V8.20798L10.856 5.88598C10.753 5.71498 10.723 5.51298 10.772 5.31898C10.821 5.12398 10.942 4.96098 11.115 4.85698C11.231 4.78798 11.364 4.75098 11.5 4.75098C11.763 4.75098 12.009 4.89098 12.144 5.11598L13 6.54398L13.856 5.11498C13.991 4.88998 14.237 4.75098 14.5 4.75098C14.636 4.75098 14.769 4.78798 14.886 4.85698C15.057 4.95998 15.179 5.12298 15.228 5.31698C15.277 5.51198 15.247 5.71298 15.144 5.88598L13.75 8.20798V10.5C13.75 10.913 13.413 11.25 13 11.25Z" fill="#242424"/>
<path d="M3.69605 5.22303C3.59005 4.95303 3.31605 4.78003 3.00005 4.78003C2.68405 4.78003 2.41005 4.95403 2.30405 5.22203L0.30405 10.222C0.23005 10.408 0.23305 10.612 0.31105 10.796C0.39005 10.98 0.53705 11.122 0.72105 11.195C0.81005 11.231 0.90405 11.25 1.00005 11.25C1.30805 11.25 1.58105 11.065 1.69605 10.778L1.90705 10.25H4.09305L4.30405 10.778C4.41905 11.064 4.69205 11.25 5.00005 11.25C5.09605 11.25 5.18905 11.231 5.27805 11.196C5.46405 11.122 5.61005 10.979 5.68905 10.796C5.76705 10.611 5.77005 10.407 5.69605 10.222L3.69605 5.22303ZM2.50805 8.75003L3.00005 7.52003L3.49205 8.75003H2.50805Z" fill="#242424"/>
</svg>
