<svg width="16" height="16" viewBox="0 0 16 16" fill="none" xmlns="http://www.w3.org/2000/svg">
<path fill-rule="evenodd" clip-rule="evenodd" d="M3.373 5.09397C3.29 5.03397 3.191 5.00197 3.089 4.99997C2.987 4.99797 2.887 5.02797 2.802 5.08497C2.717 5.14197 2.652 5.22397 2.615 5.31897L0.680003 10.319C0.635003 10.442 0.640003 10.578 0.694003 10.697C0.748003 10.816 0.847003 10.91 0.969003 10.957C1.091 11.004 1.227 11.002 1.347 10.95C1.467 10.898 1.563 10.801 1.612 10.68L1.876 9.99897H4.126V9.93797L4.385 10.666C4.432 10.787 4.525 10.885 4.643 10.938C4.761 10.992 4.895 10.998 5.018 10.954C5.14 10.911 5.241 10.822 5.299 10.705C5.357 10.589 5.367 10.455 5.328 10.331L3.554 5.33097C3.52 5.23497 3.457 5.15097 3.374 5.09197L3.373 5.09397ZM2.263 8.99997L3.061 6.93797L3.793 8.99997H2.263Z" fill="#242424"/>
<path d="M6.929 5.24305C6.813 5.05005 6.583 4.95805 6.367 5.01805C6.15 5.07805 6 5.27505 6 5.50005V10.5001C6 10.7761 6.224 11.0001 6.5 11.0001C6.776 11.0001 7 10.7761 7 10.5001V7.30505L9.071 10.7571C9.187 10.9501 9.417 11.0421 9.633 10.9821C9.85 10.9221 10 10.7251 10 10.5001V5.50005C10 5.22405 9.776 5.00005 9.5 5.00005C9.224 5.00005 9 5.22405 9 5.50005V8.69505L6.929 5.24305Z" fill="#242424"/>
<path d="M11.243 5.07097C11.48 4.92897 11.787 5.00597 11.929 5.24297L13 7.02797L14.071 5.24297C14.213 5.00597 14.52 4.92897 14.757 5.07097C14.994 5.21297 15.071 5.51997 14.929 5.75697L13.5 8.13797V10.499C13.5 10.775 13.276 10.999 13 10.999C12.724 10.999 12.5 10.775 12.5 10.499V8.13797L11.071 5.75697C10.929 5.51997 11.006 5.21297 11.243 5.07097Z" fill="#242424"/>
</svg>
