<svg width="24" height="24" viewBox="0 0 24 24" fill="none" xmlns="http://www.w3.org/2000/svg">
<path d="M5.20701 7.49994C5.10201 7.19994 4.81801 6.99994 4.50001 6.99994C4.18201 6.99994 3.89801 7.19994 3.79301 7.49994L0.79301 15.9999C0.65501 16.3909 0.85901 16.8189 1.25001 16.9569C1.64201 17.0949 2.06901 16.8909 2.20701 16.4999L2.73601 14.9999H6.26301L6.79201 16.4999C6.90001 16.8079 7.18901 16.9999 7.49901 16.9999C7.58201 16.9999 7.66601 16.9859 7.74901 16.9569C8.14001 16.8189 8.34401 16.3909 8.20601 15.9999L5.20701 7.49994ZM3.26601 13.4999L4.50001 10.0039L5.73401 13.4999H3.26601ZM15.5 7.74994V16.2499C15.5 16.5879 15.273 16.8849 14.947 16.9739C14.882 16.9919 14.815 16.9999 14.75 16.9999C14.489 16.9999 14.24 16.8629 14.104 16.6299L10.5 10.5039V16.2499C10.5 16.6639 10.164 16.9999 9.75001 16.9999C9.33601 16.9999 9.00001 16.6639 9.00001 16.2499V7.74994C9.00001 7.41194 9.22701 7.11494 9.55301 7.02594C9.87801 6.93694 10.226 7.07794 10.397 7.36994L14.001 13.4959V7.74994C14.001 7.33594 14.337 6.99994 14.751 6.99994C15.165 6.99994 15.501 7.33594 15.501 7.74994H15.5ZM22.896 8.12994L20.5 12.2039V16.2499C20.5 16.6639 20.164 16.9999 19.75 16.9999C19.336 16.9999 19 16.6639 19 16.2499V12.2039L16.604 8.12994C16.394 7.77394 16.513 7.31394 16.871 7.10394C17.227 6.89294 17.687 7.01294 17.897 7.37094L19.751 10.5219L21.605 7.37094C21.814 7.01394 22.273 6.89294 22.631 7.10394C22.988 7.31394 23.108 7.77394 22.898 8.12994H22.896Z" fill="#242424"/>
</svg>
