<svg width="24" height="24" viewBox="0 0 24 24" fill="none" xmlns="http://www.w3.org/2000/svg">
<path d="M5.44305 7.417C5.30105 7.018 4.92305 6.75 4.50005 6.75C4.07705 6.75 3.69805 7.018 3.55705 7.417L0.557048 15.917C0.373048 16.438 0.647048 17.009 1.16705 17.193C1.68805 17.373 2.25905 17.103 2.44305 16.583L3.00205 15H5.99805L6.55705 16.583C6.70305 16.993 7.08805 17.25 7.50005 17.25C7.61005 17.25 7.72305 17.231 7.83305 17.193C8.35405 17.008 8.62705 16.437 8.44305 15.917L5.44305 7.417ZM3.70705 13L4.49905 10.755L5.29105 13H3.70705ZM15.75 7.75V16.25C15.75 16.701 15.448 17.097 15.013 17.215C14.926 17.238 14.837 17.25 14.75 17.25C14.402 17.25 14.071 17.068 13.888 16.757L10.75 11.422V16.25C10.75 16.803 10.303 17.25 9.75005 17.25C9.19705 17.25 8.75005 16.803 8.75005 16.25V7.75C8.75005 7.299 9.05205 6.903 9.48705 6.785C9.92105 6.667 10.383 6.853 10.612 7.243L13.75 12.578V7.75C13.75 7.197 14.197 6.75 14.75 6.75C15.303 6.75 15.75 7.197 15.75 7.75ZM23.112 8.257L20.75 12.273V16.25C20.75 16.803 20.303 17.25 19.75 17.25C19.197 17.25 18.75 16.803 18.75 16.25V12.273L16.388 8.257C16.109 7.781 16.267 7.168 16.743 6.888C17.219 6.608 17.832 6.767 18.112 7.243L19.75 10.027L21.388 7.243C21.668 6.766 22.281 6.607 22.757 6.888C23.233 7.169 23.392 7.782 23.112 8.257Z" fill="#242424"/>
</svg>
