<svg width="24" height="24" viewBox="0 0 24 24" fill="none" xmlns="http://www.w3.org/2000/svg">
<path d="M7.63204 0.99701C7.94504 1.00101 8.22304 1.20101 8.32804 1.49601L10.989 8.99601C11.127 9.38601 10.923 9.81501 10.533 9.95301C10.143 10.091 9.71404 9.88701 9.57604 9.49701L9.22104 8.49701H5.81304L5.41904 9.51701C5.26904 9.90401 4.83604 10.096 4.44904 9.94601C4.06204 9.79601 3.87204 9.36301 4.02004 8.97601L6.92204 1.47701C7.03404 1.18501 7.31804 0.99301 7.63104 0.99701H7.63204ZM6.39304 6.99701H8.68804L7.59004 3.90401L6.39304 6.99701V6.99701ZM7.63204 13.002C7.94504 13.006 8.22304 13.206 8.32804 13.501L10.989 21.001C11.127 21.391 10.923 21.82 10.533 21.958C10.143 22.096 9.71404 21.892 9.57604 21.502L9.22104 20.502H5.81304L5.41904 21.523C5.26904 21.908 4.83604 22.1 4.44904 21.952C4.06204 21.802 3.87204 21.369 4.02004 20.982L6.92204 13.482C7.03404 13.19 7.31804 12.998 7.63104 13.002H7.63204V13.002ZM6.39304 19.002H8.68804L7.59004 15.909L6.39304 19.002V19.002ZM13.962 15.798C13.962 15.134 14.517 14.502 15.214 14.502C15.836 14.502 16.5 14.895 16.5 15.603C16.5 16.75 14.896 17.696 14.849 17.729L14.764 17.789C13.414 18.747 12.463 19.589 12.463 21.249C12.463 21.663 12.799 21.999 13.213 21.999H17.252C17.666 21.999 18.002 21.663 18.002 21.249C18.002 20.835 17.666 20.499 17.252 20.499H14.108C14.363 19.91 14.958 19.486 15.603 19.031L15.625 19.016L15.713 18.953C16.224 18.591 17.998 17.463 17.998 15.596C17.998 14.008 16.618 13.001 15.212 13.001C13.579 13.001 12.46 14.415 12.46 15.797C12.46 16.211 12.796 16.547 13.21 16.547C13.624 16.547 13.96 16.211 13.96 15.797V15.799L13.962 15.798ZM14.501 4.38001C14.228 4.64801 13.931 4.89101 13.621 5.09801C13.276 5.32701 12.811 5.23401 12.582 4.89001C12.353 4.54601 12.445 4.08001 12.79 3.85101C13.69 3.25101 14.365 2.29101 14.519 1.58801C14.602 1.21301 14.951 0.96501 15.323 1.00201C15.704 1.03801 16.001 1.35901 16.001 1.74901V9.24901C16.001 9.66301 15.665 9.99901 15.251 9.99901C14.837 9.99901 14.501 9.66301 14.501 9.24901V4.37901V4.38001ZM21.001 7.75101C21.001 7.33701 20.665 7.00101 20.251 7.00101H18.751C18.337 7.00101 18.001 7.33701 18.001 7.75101V9.25101C18.001 9.66501 18.337 10.001 18.751 10.001H19.135C18.973 10.373 18.747 10.671 18.426 10.826C18.053 11.004 17.895 11.453 18.077 11.826C18.206 12.094 18.474 12.25 18.752 12.25C18.861 12.25 18.972 12.226 19.077 12.175C20.34 11.569 20.986 10.081 21.001 7.75501H20.996L21.001 7.75101Z" fill="#242424"/>
</svg>
