<svg width="16" height="16" viewBox="0 0 16 16" fill="none" xmlns="http://www.w3.org/2000/svg">
<path d="M14 5.5C14 5.224 13.776 5 13.5 5H12.5C12.224 5 12 5.224 12 5.5V6.5C12 6.776 12.224 7 12.5 7H12.756C12.648 7.248 12.497 7.447 12.283 7.55C12.034 7.669 11.929 7.968 12.05 8.217C12.136 8.396 12.315 8.5 12.5 8.5C12.573 8.5 12.647 8.484 12.717 8.45C13.559 8.046 13.99 7.054 14 5.503H13.997L14 5.5V5.5Z" fill="#242424"/>
<path d="M10.301 0.751982C10.689 0.780982 10.995 1.10498 10.995 1.49998V6.49998C10.995 6.91398 10.659 7.24998 10.245 7.24998C9.83098 7.24998 9.49498 6.91398 9.49498 6.49998V3.80098C9.42998 3.84998 9.36398 3.89698 9.29698 3.94198C8.95198 4.17198 8.48698 4.07898 8.25698 3.73398C8.02698 3.38898 8.11998 2.92398 8.46498 2.69398C9.02498 2.32098 9.42598 1.73098 9.51198 1.33998C9.55898 1.12598 9.69298 0.952983 9.86798 0.850983C9.99598 0.776983 10.146 0.739982 10.301 0.751982V0.751982Z" fill="#242424"/>
<path d="M5.69602 0.749973C6.01002 0.753973 6.28702 0.953973 6.39202 1.24897L8.16602 6.24897C8.30502 6.63897 8.10002 7.06797 7.71002 7.20697C7.32002 7.34597 6.89102 7.14097 6.75202 6.75097L6.66302 6.49997H4.55302L4.44802 6.77097C4.29802 7.15697 3.86402 7.34897 3.47802 7.19997C3.09202 7.04997 2.90002 6.61597 3.04902 6.22997L4.98602 1.22897C5.09902 0.936973 5.38202 0.744973 5.69602 0.749973V0.749973ZM5.65502 3.65697L5.13502 4.99997H6.13202L5.65502 3.65697Z" fill="#242424"/>
<path d="M6.39299 9.249C6.28799 8.953 6.00999 8.754 5.69699 8.75C5.38299 8.746 5.09999 8.937 4.98699 9.229L3.05199 14.229C2.90199 14.615 3.09399 15.05 3.48099 15.199C3.86699 15.349 4.30199 15.157 4.45099 14.77L4.55599 14.499H6.66599L6.75499 14.75C6.89399 15.14 7.32199 15.345 7.71299 15.206C8.10299 15.067 8.30799 14.639 8.16899 14.248L6.39499 9.248L6.39299 9.249ZM5.13599 13L5.65599 11.657L6.13299 13H5.13599V13Z" fill="#242424"/>
<path d="M10.835 10.25C10.526 10.25 10.25 10.54 10.25 10.864C10.25 11.278 9.914 11.614 9.5 11.614C9.086 11.614 8.75 11.278 8.75 10.864C8.75 9.824 9.591 8.75 10.835 8.75C11.545 8.75 12.24 9.082 12.635 9.688C13.052 10.329 13.052 11.148 12.595 11.926C12.361 12.325 12.043 12.62 11.749 12.852C11.602 12.968 11.451 13.076 11.313 13.173L11.253 13.215C11.135 13.298 11.028 13.374 10.925 13.451C10.785 13.557 10.668 13.654 10.574 13.75H12.194C12.608 13.75 12.944 14.086 12.944 14.5C12.944 14.914 12.608 15.25 12.194 15.25H9.501C9.087 15.25 8.751 14.914 8.751 14.5C8.751 13.342 9.439 12.693 10.024 12.253C10.147 12.16 10.275 12.07 10.392 11.987L10.448 11.947C10.584 11.851 10.706 11.763 10.82 11.674C11.048 11.494 11.203 11.335 11.302 11.165C11.513 10.806 11.442 10.603 11.378 10.505C11.292 10.372 11.097 10.25 10.836 10.25H10.835Z" fill="#242424"/>
</svg>
