<svg width="16" height="16" viewBox="0 0 16 16" fill="none" xmlns="http://www.w3.org/2000/svg">
<path d="M5.93796 0.999991C6.14696 1.00299 6.33196 1.13599 6.40196 1.33299L8.17596 6.33299C8.26796 6.59299 8.13196 6.87899 7.87196 6.97099C7.61196 7.06299 7.32596 6.92699 7.23396 6.66699L6.99696 5.99999H4.72496L4.46196 6.67999C4.36196 6.93799 4.07296 7.06599 3.81496 6.96599C3.55696 6.86599 3.42996 6.57699 3.52896 6.31899L5.46496 1.31999C5.53996 1.12499 5.72896 0.996991 5.93796 0.999991ZM5.11196 4.99999H6.64196L5.90996 2.93799L5.11196 4.99999Z" fill="#242424"/>
<path d="M5.93796 8.99999C6.14696 9.00299 6.33196 9.13599 6.40196 9.33299L8.17596 14.333C8.26796 14.593 8.13196 14.879 7.87196 14.971C7.61196 15.063 7.32596 14.927 7.23396 14.667L6.99696 14H4.72496L4.46196 14.681C4.36196 14.938 4.07296 15.066 3.81496 14.967C3.55696 14.867 3.42996 14.578 3.52896 14.32L5.46396 9.31999C5.53896 9.12499 5.72796 8.99699 5.93696 8.99999H5.93796ZM5.11196 13H6.64196L5.90996 10.938L5.11196 13Z" fill="#242424"/>
<path d="M9.995 10.864C9.995 10.421 10.365 10 10.83 10C11.166 10 11.444 10.158 11.582 10.369C11.705 10.558 11.764 10.863 11.512 11.292C11.39 11.499 11.208 11.682 10.969 11.87C10.85 11.964 10.723 12.055 10.587 12.151L10.53 12.191C10.413 12.274 10.289 12.361 10.169 12.451C9.60299 12.877 8.996 13.461 8.996 14.498C8.996 14.774 9.22 14.998 9.496 14.998H12.189C12.465 14.998 12.689 14.774 12.689 14.498C12.689 14.222 12.465 13.998 12.189 13.998H10.093C10.215 13.716 10.448 13.493 10.77 13.25C10.872 13.173 10.978 13.098 11.09 13.019L11.105 13.009L11.164 12.967C11.301 12.87 11.447 12.766 11.589 12.654C11.872 12.431 12.162 12.158 12.374 11.798C12.79 11.09 12.778 10.373 12.42 9.82302C12.077 9.29602 11.465 8.99902 10.83 8.99902C9.741 8.99902 8.995 9.94202 8.995 10.863C8.995 11.139 9.219 11.363 9.495 11.363C9.771 11.363 9.995 11.139 9.995 10.863V10.864Z" fill="#242424"/>
<path d="M10 3.25501C9.81802 3.43401 9.62002 3.59601 9.41302 3.73401C9.18302 3.88701 8.87302 3.82501 8.72002 3.59501C8.56702 3.36501 8.62902 3.05501 8.85902 2.90201C9.45902 2.50201 9.90902 1.86201 10.012 1.39301C10.067 1.14301 10.3 0.978008 10.548 1.00201C10.802 1.02601 11 1.24001 11 1.50001V6.50001C11 6.77601 10.776 7.00001 10.5 7.00001C10.224 7.00001 10 6.77601 10 6.50001V3.25501Z" fill="#242424"/>
<path d="M14 5.5C14 5.224 13.776 5 13.5 5H12.5C12.224 5 12 5.224 12 5.5V6.5C12 6.776 12.224 7 12.5 7H12.756C12.648 7.248 12.497 7.447 12.283 7.55C12.034 7.669 11.929 7.968 12.05 8.217C12.136 8.396 12.315 8.5 12.5 8.5C12.573 8.5 12.647 8.484 12.717 8.45C13.559 8.046 13.99 7.054 14 5.503H13.997L14 5.5V5.5Z" fill="#242424"/>
</svg>
