<svg width="24" height="24" viewBox="0 0 24 24" fill="none" xmlns="http://www.w3.org/2000/svg">
<path d="M4.35705 10.18C4.87405 10.376 5.45105 10.121 5.65105 9.60699L5.98305 8.74799H9.04405L9.34105 9.58099C9.42905 9.83299 9.61105 10.035 9.85205 10.15C9.98905 10.214 10.1351 10.248 10.2821 10.248C10.3951 10.248 10.5081 10.228 10.6171 10.189C11.1371 10.006 11.4091 9.43399 11.2251 8.91299L8.56305 1.41199C8.42305 1.01999 8.05005 0.753993 7.63505 0.746993C7.21605 0.751993 6.83805 0.997993 6.68905 1.38699L3.78505 8.88599C3.58805 9.39999 3.84505 9.98099 4.35705 10.18V10.18ZM6.75705 6.74699L7.57905 4.62299L8.33205 6.74699H6.75705V6.74699ZM8.56305 13.417C8.42305 13.024 8.05005 12.757 7.63405 12.752C7.21605 12.746 6.83605 13.003 6.68705 13.392L3.78505 20.892C3.58805 21.406 3.84505 21.987 4.35705 22.186C4.47405 22.231 4.59505 22.252 4.71405 22.252C5.11505 22.252 5.49605 22.009 5.65105 21.613L5.98405 20.752H9.04405L9.34105 21.585C9.52505 22.104 10.1001 22.378 10.6161 22.193C11.1361 22.009 11.4091 21.437 11.2241 20.917L8.56305 13.417V13.417ZM8.33405 18.752H6.75805L7.58005 16.627L8.33405 18.752ZM18.2521 21.248C18.2521 21.8 17.8041 22.248 17.2521 22.248H13.2131C12.6611 22.248 12.2131 21.8 12.2131 21.248C12.2131 19.439 13.3031 18.519 14.6191 17.584L14.7061 17.523C15.4671 17.045 16.2501 16.305 16.2501 15.602C16.2501 15.049 15.7161 14.751 15.2141 14.751C14.6801 14.751 14.2121 15.239 14.2121 15.797C14.2121 16.348 13.7631 16.795 13.2121 16.795C12.6611 16.795 12.2121 16.347 12.2121 15.795C12.2121 14.324 13.4181 12.749 15.2141 12.749C16.7061 12.749 18.2501 13.813 18.2501 15.594C18.2501 17.49 16.5801 18.654 15.9511 19.091L15.7691 19.218C15.2861 19.559 14.8341 19.877 14.5481 20.247H17.2511C17.8031 20.247 18.2511 20.695 18.2511 21.247L18.2521 21.248ZM12.1221 5.02799C11.9741 4.80499 11.9211 4.53899 11.9741 4.27699C12.0271 4.01499 12.1771 3.78899 12.4001 3.64099C13.2931 3.04599 13.8931 2.12999 14.0241 1.53299C14.1331 1.03799 14.5941 0.699993 15.0971 0.750993C15.6121 0.799993 16.0001 1.22899 16.0001 1.74699V9.24699C16.0001 9.79899 15.5521 10.247 15.0001 10.247C14.4481 10.247 14.0001 9.79899 14.0001 9.24699V4.93999C13.8421 5.07099 13.6771 5.19299 13.5081 5.30499C13.2871 5.45199 13.0181 5.50699 12.7581 5.45299C12.4961 5.39999 12.2701 5.24999 12.1221 5.02699V5.02799ZM21.2501 7.74999V7.85399C21.2161 10.23 20.5211 11.758 19.1841 12.4C19.0501 12.464 18.9001 12.5 18.7501 12.5C18.3681 12.5 18.0151 12.277 17.8501 11.934C17.7341 11.695 17.7181 11.423 17.8061 11.17C17.8941 10.918 18.0761 10.715 18.3181 10.6C18.4641 10.529 18.5961 10.412 18.7121 10.249C18.1791 10.228 17.7511 9.78799 17.7511 9.24999V7.74999C17.7511 7.19799 18.1991 6.74999 18.7511 6.74999H20.2511C20.7181 6.74999 21.1111 7.07099 21.2211 7.50499H21.2481L21.2501 7.71799C21.2501 7.72899 21.2501 7.73899 21.2501 7.74999V7.74999Z" fill="#242424"/>
</svg>
