<svg width="24" height="24" viewBox="0 0 24 24" fill="none" xmlns="http://www.w3.org/2000/svg">
<path d="M17 17.274C16.447 17.274 16 16.826 16 16.274V9.871C15.679 10.04 15.324 10.179 14.946 10.254C14.4 10.364 13.878 10.01 13.769 9.47C13.661 8.928 14.012 8.402 14.553 8.293C15.274 8.149 16.001 7.416 16.221 7.146C16.487 6.818 16.936 6.691 17.332 6.833C17.731 6.975 17.999 7.351 17.999 7.774V16.274C17.999 16.826 17.552 17.274 16.999 17.274H17ZM12.25 14V10C12.25 8.208 10.792 6.75 9 6.75C7.208 6.75 5.75 8.208 5.75 10V14C5.75 15.792 7.208 17.25 9 17.25C10.792 17.25 12.25 15.792 12.25 14ZM10.25 10V14C10.25 14.689 9.689 15.25 9 15.25C8.311 15.25 7.75 14.689 7.75 14V10C7.75 9.311 8.311 8.75 9 8.75C9.689 8.75 10.25 9.311 10.25 10Z" fill="#242424"/>
</svg>
