<svg width="16" height="16" viewBox="0 0 16 16" fill="none" xmlns="http://www.w3.org/2000/svg">
<path d="M6 11C5.47 11 4.961 10.789 4.586 10.414C4.211 10.039 4 9.53 4 9V6C4 5.47 4.211 4.961 4.586 4.586C4.961 4.211 5.47 4 6 4C6.53 4 7.039 4.211 7.414 4.586C7.789 4.961 8 5.47 8 6V9C8 9.53 7.789 10.039 7.414 10.414C7.039 10.789 6.53 11 6 11ZM6 5C5.735 5 5.48 5.105 5.293 5.293C5.105 5.481 5 5.735 5 6V9C5 9.265 5.105 9.52 5.293 9.707C5.481 9.895 5.735 10 6 10C6.265 10 6.52 9.895 6.707 9.707C6.895 9.519 7 9.265 7 9V6C7 5.735 6.895 5.48 6.707 5.293C6.519 5.105 6.265 5 6 5Z" fill="#242424"/>
<path d="M10.4889 11C10.3559 11 10.2289 10.947 10.1349 10.854C10.0409 10.76 9.98895 10.633 9.98895 10.5V5.61501C9.71695 5.78201 9.41995 5.90701 9.10995 5.98501C8.98295 6.01401 8.84895 5.99101 8.73795 5.92301C8.62695 5.85401 8.54695 5.74501 8.51495 5.61801C8.48295 5.49101 8.50295 5.35701 8.56895 5.24401C8.63495 5.13101 8.74195 5.04901 8.86795 5.01401C9.34695 4.89001 9.77195 4.61001 10.0749 4.21901C10.1349 4.13001 10.2219 4.06301 10.3229 4.02801C10.4239 3.99201 10.5339 3.99001 10.6359 4.02101C10.7379 4.05201 10.8279 4.11601 10.8909 4.20201C10.9549 4.28801 10.9889 4.39201 10.9889 4.49901V10.499C10.9889 10.632 10.9359 10.759 10.8429 10.853C10.7489 10.947 10.6219 10.999 10.4889 10.999V11Z" fill="#242424"/>
</svg>
