<svg width="24" height="24" viewBox="0 0 24 24" fill="none" xmlns="http://www.w3.org/2000/svg">
<path d="M17.25 17.024C16.836 17.024 16.5 16.688 16.5 16.274V9.436C16.109 9.688 15.65 9.909 15.147 10.009C14.746 10.095 14.346 9.827 14.265 9.421C14.184 9.015 14.447 8.62 14.853 8.539C15.649 8.38 16.432 7.594 16.665 7.304C16.866 7.057 17.202 6.962 17.499 7.068C17.799 7.174 17.999 7.456 17.999 7.774V16.274C17.999 16.688 17.663 17.024 17.249 17.024H17.25ZM12 14V10C12 8.346 10.654 7 9 7C7.346 7 6 8.346 6 10V14C6 15.654 7.346 17 9 17C10.654 17 12 15.654 12 14ZM10.5 10V14C10.5 14.827 9.827 15.5 9 15.5C8.173 15.5 7.5 14.827 7.5 14V10C7.5 9.173 8.173 8.5 9 8.5C9.827 8.5 10.5 9.173 10.5 10Z" fill="#242424"/>
</svg>
