<svg width="16" height="16" viewBox="0 0 16 16" fill="none" xmlns="http://www.w3.org/2000/svg">
<path d="M6 5.5C6.134 5.5 6.259 5.552 6.354 5.646C6.448 5.74 6.5 5.866 6.5 6V9C6.5 9.134 6.448 9.259 6.354 9.354C6.26 9.448 6.134 9.5 6 9.5C5.866 9.5 5.741 9.448 5.646 9.354C5.552 9.26 5.5 9.134 5.5 9V6C5.5 5.866 5.552 5.741 5.646 5.646C5.74 5.552 5.866 5.5 6 5.5ZM6 4C5.47 4 4.961 4.211 4.586 4.586C4.211 4.961 4 5.47 4 6V9C4 9.53 4.211 10.039 4.586 10.414C4.961 10.789 5.47 11 6 11C6.53 11 7.039 10.789 7.414 10.414C7.789 10.039 8 9.53 8 9V6C8 5.47 7.789 4.961 7.414 4.586C7.039 4.211 6.53 4 6 4Z" fill="#242424"/>
<path d="M10.251 4.00403C10.009 4.00403 9.77404 4.12203 9.63104 4.32703C9.62705 4.33203 9.25704 4.85003 8.56804 5.02203C8.16604 5.12303 7.92204 5.53003 8.02304 5.93203C8.10804 6.27203 8.41404 6.50003 8.75004 6.50003C8.81004 6.50003 8.87204 6.49303 8.93304 6.47703C9.13905 6.42603 9.32804 6.35803 9.50104 6.28003V10.249C9.50104 10.663 9.83704 10.999 10.251 10.999C10.665 10.999 11.001 10.663 11.001 10.249V4.75003C11.001 4.42303 10.786 4.13703 10.474 4.03903C10.401 4.01603 10.326 4.00503 10.252 4.00503L10.251 4.00403Z" fill="#242424"/>
</svg>
