<svg width="24" height="24" viewBox="0 0 24 24" fill="none" xmlns="http://www.w3.org/2000/svg">
<path d="M10 17.25C8.208 17.25 6.75 15.792 6.75 14V10C6.75 8.208 8.208 6.75 10 6.75C11.792 6.75 13.25 8.208 13.25 10V14C13.25 15.792 11.792 17.25 10 17.25ZM10 8.75C9.311 8.75 8.75 9.311 8.75 10V14C8.75 14.689 9.311 15.25 10 15.25C10.689 15.25 11.25 14.689 11.25 14V10C11.25 9.311 10.689 8.75 10 8.75ZM18 17.25C16.208 17.25 14.75 15.792 14.75 14V10C14.75 8.208 16.208 6.75 18 6.75C19.792 6.75 21.25 8.208 21.25 10V14C21.25 15.792 19.792 17.25 18 17.25ZM18 8.75C17.311 8.75 16.75 9.311 16.75 10V14C16.75 14.689 17.311 15.25 18 15.25C18.689 15.25 19.25 14.689 19.25 14V10C19.25 9.311 18.689 8.75 18 8.75ZM4 14.5C3.172 14.5 2.5 15.172 2.5 16C2.5 16.828 3.172 17.5 4 17.5C4.828 17.5 5.5 16.828 5.5 16C5.5 15.172 4.828 14.5 4 14.5Z" fill="#242424"/>
</svg>
