<svg width="16" height="16" viewBox="0 0 16 16" fill="none" xmlns="http://www.w3.org/2000/svg">
<path d="M6.5 5.5C7.051 5.5 7.5 5.949 7.5 6.5V9.5C7.5 10.051 7.051 10.5 6.5 10.5C5.949 10.5 5.5 10.051 5.5 9.5V6.5C5.5 5.949 5.949 5.5 6.5 5.5ZM6.5 4C5.122 4 4 5.122 4 6.5V9.5C4 10.878 5.122 12 6.5 12C7.878 12 9 10.878 9 9.5V6.5C9 5.122 7.878 4 6.5 4Z" fill="#242424"/>
<path d="M12.5 5.5C13.051 5.5 13.5 5.949 13.5 6.5V9.5C13.5 10.051 13.051 10.5 12.5 10.5C11.949 10.5 11.5 10.051 11.5 9.5V6.5C11.5 5.949 11.949 5.5 12.5 5.5ZM12.5 4C11.122 4 10 5.122 10 6.5V9.5C10 10.878 11.122 12 12.5 12C13.878 12 15 10.878 15 9.5V6.5C15 5.122 13.878 4 12.5 4Z" fill="#242424"/>
<path d="M2 12C2.55228 12 3 11.5523 3 11C3 10.4477 2.55228 10 2 10C1.44772 10 1 10.4477 1 11C1 11.5523 1.44772 12 2 12Z" fill="#242424"/>
</svg>
