<svg width="24" height="24" viewBox="0 0 24 24" fill="none" xmlns="http://www.w3.org/2000/svg">
<path d="M10 17C8.346 17 7 15.654 7 14V10C7 8.346 8.346 7 10 7C11.654 7 13 8.346 13 10V14C13 15.654 11.654 17 10 17ZM10 8.5C9.173 8.5 8.5 9.173 8.5 10V14C8.5 14.827 9.173 15.5 10 15.5C10.827 15.5 11.5 14.827 11.5 14V10C11.5 9.173 10.827 8.5 10 8.5ZM18 17C16.346 17 15 15.654 15 14V10C15 8.346 16.346 7 18 7C19.654 7 21 8.346 21 10V14C21 15.654 19.654 17 18 17ZM18 8.5C17.173 8.5 16.5 9.173 16.5 10V14C16.5 14.827 17.173 15.5 18 15.5C18.827 15.5 19.5 14.827 19.5 14V10C19.5 9.173 18.827 8.5 18 8.5ZM4 15C3.448 15 3 15.448 3 16C3 16.552 3.448 17 4 17C4.552 17 5 16.552 5 16C5 15.448 4.552 15 4 15Z" fill="#242424"/>
</svg>
