<svg width="24" height="24" viewBox="0 0 24 24" fill="none" xmlns="http://www.w3.org/2000/svg">
<path d="M5.00006 7.75V16.25C5.00006 16.664 4.66406 17 4.25006 17C3.83606 17 3.50006 16.664 3.50006 16.25V9.412C3.10906 9.664 2.65006 9.885 2.14706 9.985C1.74506 10.07 1.34606 9.803 1.26506 9.397C1.18306 8.991 1.44706 8.596 1.85306 8.515C2.64906 8.356 3.43206 7.57 3.66506 7.28C3.86606 7.033 4.20106 6.938 4.49906 7.044C4.79906 7.15 4.99906 7.432 4.99906 7.75H5.00006ZM11.7181 13.158C12.7881 12.396 14.0001 11.532 14.0001 10C14.0001 8.346 12.6541 7 11.0001 7C9.34606 7 8.00006 8.346 8.00006 10C8.00006 10.414 8.33606 10.75 8.75006 10.75C9.16406 10.75 9.50006 10.414 9.50006 10C9.50006 9.173 10.1731 8.5 11.0001 8.5C11.8271 8.5 12.5001 9.173 12.5001 10C12.5001 10.722 11.8721 11.207 10.8471 11.937C9.57806 12.841 8.00006 13.967 8.00006 16.25C8.00006 16.664 8.33606 17 8.75006 17H13.2501C13.6641 17 14.0001 16.664 14.0001 16.25C14.0001 15.836 13.6641 15.5 13.2501 15.5H9.59906C9.89106 14.461 10.7831 13.825 11.7181 13.158ZM21.0451 12C21.6271 11.474 22.0011 10.72 22.0011 9.875C22.0011 8.29 20.7111 7 19.1261 7C17.8551 7 16.7511 7.815 16.3771 9.03C16.2551 9.426 16.4781 9.845 16.8741 9.967C17.2701 10.088 17.6891 9.866 17.8111 9.47C17.9901 8.89 18.5181 8.5 19.1261 8.5C19.8841 8.5 20.5011 9.117 20.5011 9.875C20.5011 10.633 19.8841 11.25 19.1261 11.25C18.7121 11.25 18.3761 11.586 18.3761 12C18.3761 12.414 18.7121 12.75 19.1261 12.75C19.8841 12.75 20.5011 13.367 20.5011 14.125C20.5011 14.883 19.8841 15.5 19.1261 15.5C18.5181 15.5 17.9901 15.11 17.8111 14.53C17.6891 14.134 17.2701 13.912 16.8741 14.033C16.4781 14.155 16.2561 14.575 16.3771 14.97C16.7501 16.184 17.8551 17 19.1261 17C20.7111 17 22.0011 15.71 22.0011 14.125C22.0011 13.28 21.6281 12.526 21.0451 12Z" fill="#242424"/>
</svg>
