<svg width="24" height="24" viewBox="0 0 24 24" fill="none" xmlns="http://www.w3.org/2000/svg">
<path d="M5.00003 7.75V16.25C5.00003 16.802 4.55203 17.25 4.00003 17.25C3.44803 17.25 3.00003 16.802 3.00003 16.25V9.847C2.67903 10.016 2.32503 10.155 1.94603 10.23C1.40203 10.337 0.877033 9.987 0.769033 9.446C0.661033 8.904 1.01203 8.378 1.55303 8.269C2.27403 8.125 3.00103 7.392 3.22003 7.122C3.48803 6.793 3.93303 6.668 4.33203 6.809C4.73103 6.951 4.99903 7.327 4.99903 7.75H5.00003ZM22.25 9.875C22.25 8.152 20.848 6.75 19.125 6.75C17.743 6.75 16.543 7.637 16.138 8.957C15.976 9.485 16.273 10.044 16.801 10.207C17.332 10.37 17.889 10.072 18.05 9.544C18.196 9.069 18.628 8.751 19.125 8.751C19.745 8.751 20.25 9.256 20.25 9.876C20.25 10.496 19.745 11.001 19.125 11.001C18.572 11.001 18.125 11.449 18.125 12.001C18.125 12.553 18.572 13.001 19.125 13.001C19.745 13.001 20.25 13.506 20.25 14.126C20.25 14.746 19.745 15.251 19.125 15.251C18.628 15.251 18.195 14.932 18.05 14.458C17.888 13.931 17.33 13.634 16.801 13.795C16.273 13.957 15.976 14.517 16.138 15.045C16.543 16.365 17.743 17.252 19.125 17.252C20.848 17.252 22.25 15.85 22.25 14.127C22.25 13.304 21.924 12.561 21.403 12.002C21.924 11.443 22.25 10.7 22.25 9.877V9.875ZM11.863 13.362C12.982 12.565 14.25 11.66 14.25 10C14.25 8.208 12.792 6.75 11 6.75C9.20803 6.75 7.75003 8.208 7.75003 10C7.75003 10.552 8.19803 11 8.75003 11C9.30203 11 9.75003 10.552 9.75003 10C9.75003 9.311 10.311 8.75 11 8.75C11.689 8.75 12.25 9.311 12.25 10C12.25 10.6 11.662 11.049 10.702 11.733C9.45603 12.621 7.75003 13.837 7.75003 16.25C7.75003 16.802 8.19803 17.25 8.75003 17.25H13.25C13.803 17.25 14.25 16.802 14.25 16.25C14.25 15.698 13.803 15.25 13.25 15.25H9.95103C10.266 14.547 10.936 14.023 11.863 13.362Z" fill="#242424"/>
</svg>
