<svg width="16" height="16" viewBox="0 0 16 16" fill="none" xmlns="http://www.w3.org/2000/svg">
<path d="M13 7.00002C13.1808 7.00006 13.3582 6.95108 13.5134 6.85829C13.6686 6.7655 13.7957 6.63238 13.8812 6.47308C13.9668 6.31378 14.0075 6.13428 13.9991 5.95366C13.9907 5.77305 13.9336 5.59809 13.8336 5.4474C13.7337 5.2967 13.5948 5.17592 13.4317 5.0979C13.2686 5.01989 13.0874 4.98755 12.9074 5.00434C12.7273 5.02112 12.5552 5.08641 12.4093 5.19324C12.2635 5.30007 12.1493 5.44445 12.079 5.61102C12.0451 5.71512 11.9819 5.80722 11.8969 5.87623C11.8119 5.94525 11.7088 5.98823 11.6 6.00002C11.524 6.00665 11.4475 5.99516 11.3769 5.96649C11.3062 5.93782 11.2433 5.89279 11.1934 5.8351C11.1436 5.77741 11.1081 5.7087 11.0899 5.63463C11.0718 5.56056 11.0714 5.48324 11.089 5.40902C11.1803 5.11405 11.3387 4.84423 11.5517 4.6207C11.7648 4.39718 12.0267 4.22602 12.3169 4.12063C12.6071 4.01525 12.9179 3.9785 13.2247 4.01327C13.5315 4.04804 13.8261 4.15337 14.0854 4.32103C14.3447 4.48869 14.5617 4.71411 14.7193 4.97964C14.8769 5.24517 14.9709 5.54358 14.9939 5.85151C15.0169 6.15944 14.9683 6.46851 14.8519 6.75451C14.7355 7.04052 14.5545 7.29568 14.323 7.50002C14.5545 7.70435 14.7355 7.95952 14.8519 8.24552C14.9683 8.53152 15.0169 8.8406 14.9939 9.14852C14.9709 9.45645 14.8769 9.75487 14.7193 10.0204C14.5617 10.2859 14.3447 10.5113 14.0854 10.679C13.8261 10.8467 13.5315 10.952 13.2247 10.9868C12.9179 11.0215 12.6071 10.9848 12.3169 10.8794C12.0267 10.774 11.7648 10.6029 11.5517 10.3793C11.3387 10.1558 11.1803 9.88599 11.089 9.59102C11.0714 9.51679 11.0718 9.43947 11.0899 9.3654C11.1081 9.29133 11.1436 9.22263 11.1934 9.16494C11.2433 9.10725 11.3062 9.06222 11.3769 9.03355C11.4475 9.00488 11.524 8.99338 11.6 9.00002C11.7089 9.01188 11.8121 9.05501 11.8971 9.12421C11.9821 9.19341 12.0453 9.28573 12.079 9.39002C12.1495 9.55645 12.2637 9.70066 12.4096 9.80733C12.5556 9.91399 12.7277 9.97911 12.9076 9.99576C13.0876 10.0124 13.2687 9.97998 13.4317 9.90191C13.5948 9.82383 13.7336 9.70303 13.8334 9.55236C13.9332 9.40169 13.9904 9.22678 13.9987 9.04623C14.0071 8.86568 13.9663 8.68624 13.8808 8.52699C13.7953 8.36775 13.6683 8.23465 13.5132 8.14186C13.3581 8.04907 13.1807 8.00005 13 8.00002C12.8674 8.00002 12.7402 7.94734 12.6464 7.85357C12.5526 7.7598 12.5 7.63263 12.5 7.50002C12.5 7.36741 12.5526 7.24023 12.6464 7.14646C12.7402 7.0527 12.8674 7.00002 13 7.00002Z" fill="#242424"/>
<path d="M9.5 11H6.5C6.36739 11 6.24021 10.9473 6.14645 10.8536C6.05268 10.7598 6 10.6326 6 10.5C6.03449 9.86954 6.22553 9.2576 6.55586 8.7195C6.8862 8.1814 7.34541 7.73409 7.892 7.418C8.579 6.882 9 6.526 9 6C9 5.73478 8.89464 5.48043 8.70711 5.29289C8.51957 5.10536 8.26522 5 8 5C7.73478 5 7.48043 5.10536 7.29289 5.29289C7.10536 5.48043 7 5.73478 7 6C7 6.13261 6.94732 6.25979 6.85355 6.35355C6.75979 6.44732 6.63261 6.5 6.5 6.5C6.36739 6.5 6.24021 6.44732 6.14645 6.35355C6.05268 6.25979 6 6.13261 6 6C6 5.46957 6.21071 4.96086 6.58579 4.58579C6.96086 4.21071 7.46957 4 8 4C8.53043 4 9.03914 4.21071 9.41421 4.58579C9.78929 4.96086 10 5.46957 10 6C10 7.041 9.241 7.633 8.507 8.207C7.82489 8.6129 7.30975 9.24859 7.054 10H9.5C9.63261 10 9.75979 10.0527 9.85355 10.1464C9.94732 10.2402 10 10.3674 10 10.5C10 10.6326 9.94732 10.7598 9.85355 10.8536C9.75979 10.9473 9.63261 11 9.5 11Z" fill="#242424"/>
<path d="M3.5 11C3.36739 11 3.24022 10.9473 3.14645 10.8536C3.05268 10.7598 3 10.6326 3 10.5V5.615C2.72758 5.78244 2.43116 5.90722 2.121 5.985C1.99358 6.01367 1.86 5.99135 1.74883 5.92281C1.63766 5.85427 1.55772 5.74495 1.5261 5.61823C1.49449 5.49151 1.51371 5.35745 1.57966 5.24472C1.64561 5.13199 1.75305 5.04954 1.879 5.015C2.35834 4.89113 2.78292 4.61148 3.086 4.22C3.14598 4.13143 3.23279 4.06443 3.33367 4.02884C3.43454 3.99326 3.54418 3.99096 3.64646 4.0223C3.74873 4.05363 3.83827 4.11694 3.9019 4.20292C3.96554 4.28891 3.99992 4.39303 4 4.5V10.5C4 10.6326 3.94732 10.7598 3.85355 10.8536C3.75979 10.9473 3.63261 11 3.5 11Z" fill="#242424"/>
</svg>
