<svg width="16" height="16" viewBox="0 0 16 16" fill="none" xmlns="http://www.w3.org/2000/svg">
<path d="M3.251 11.25C2.837 11.25 2.501 10.914 2.501 10.5V6.04001C2.299 6.13601 2.084 6.20901 1.859 6.24201C1.452 6.29701 1.068 6.01801 1.008 5.60801C0.948 5.19801 1.232 4.81701 1.642 4.75701C1.959 4.71101 2.447 4.28701 2.677 4.01701C2.881 3.77701 3.215 3.68801 3.508 3.79601C3.803 3.90401 4.001 4.18501 4.001 4.49901V10.499C4.001 10.913 3.665 11.249 3.251 11.249V11.25Z" fill="#242424"/>
<path d="M9.50098 11.25H6.50098C6.08698 11.25 5.75098 10.914 5.75098 10.5C5.75098 8.772 6.89998 7.876 7.73898 7.221C8.38498 6.717 8.75098 6.411 8.75098 6C8.75098 5.589 8.41498 5.25 8.00098 5.25C7.58698 5.25 7.25098 5.587 7.25098 6C7.25098 6.413 6.91498 6.75 6.50098 6.75C6.08698 6.75 5.75098 6.414 5.75098 6C5.75098 4.76 6.75998 3.75 8.00098 3.75C9.24198 3.75 10.251 4.76 10.251 6C10.251 7.163 9.40698 7.822 8.66198 8.403C8.12198 8.825 7.63498 9.205 7.39898 9.75H9.50098C9.91498 9.75 10.251 10.086 10.251 10.5C10.251 10.914 9.91498 11.25 9.50098 11.25Z" fill="#242424"/>
<path d="M13.251 11.25C12.01 11.25 11.001 10.24 11.001 9C11.001 8.586 11.337 8.25 11.751 8.25C12.165 8.25 12.501 8.586 12.501 9C12.501 9.414 12.837 9.75 13.251 9.75C13.665 9.75 14.001 9.413 14.001 9C14.001 8.587 13.665 8.25 13.251 8.25C12.837 8.25 12.501 7.914 12.501 7.5C12.501 7.086 12.837 6.75 13.251 6.75C13.665 6.75 14.001 6.413 14.001 6C14.001 5.587 13.665 5.25 13.251 5.25C12.837 5.25 12.501 5.587 12.501 6C12.501 6.413 12.165 6.75 11.751 6.75C11.337 6.75 11.001 6.414 11.001 6C11.001 4.76 12.01 3.75 13.251 3.75C14.492 3.75 15.501 4.76 15.501 6C15.501 6.576 15.284 7.102 14.927 7.5C15.284 7.898 15.501 8.424 15.501 9C15.501 10.24 14.492 11.25 13.251 11.25Z" fill="#242424"/>
</svg>
