<svg width="24" height="24" viewBox="0 0 24 24" fill="none" xmlns="http://www.w3.org/2000/svg">
<path d="M5.44303 7.417C5.30203 7.018 4.92403 6.75 4.50003 6.75C4.07603 6.75 3.69803 7.018 3.55703 7.417L0.557031 15.917C0.373031 16.438 0.646031 17.009 1.16703 17.193C1.68803 17.373 2.25903 17.102 2.44303 16.583L2.91403 15.25H6.08703L6.55803 16.583C6.70303 16.993 7.08903 17.25 7.50103 17.25C7.61103 17.25 7.72403 17.231 7.83403 17.193C8.35503 17.008 8.62803 16.437 8.44403 15.917L5.44303 7.417ZM3.61903 13.25L4.50003 10.755L5.38103 13.25H3.62003H3.61903ZM14.468 11.615C14.803 11.117 14.999 10.519 14.999 9.875C14.999 8.238 13.729 6.906 12.125 6.775C12.082 6.769 12.044 6.75 11.999 6.75H9.74903C9.19703 6.75 8.74903 7.197 8.74903 7.75V16.25C8.74903 16.803 9.19703 17.25 9.74903 17.25H12.249C12.316 17.25 12.374 17.225 12.437 17.212C12.5 17.224 12.558 17.25 12.625 17.25C14.348 17.25 15.75 15.848 15.75 14.125C15.75 13.094 15.241 12.185 14.469 11.615H14.468ZM11.874 8.75C12.494 8.75 12.999 9.255 12.999 9.875C12.999 10.495 12.494 11 11.874 11H10.749V8.75H11.874ZM12.624 15.25C12.557 15.25 12.499 15.275 12.436 15.288C12.373 15.276 12.315 15.25 12.248 15.25H10.748V13H12.498C12.52 13 12.539 12.989 12.56 12.987C12.582 12.988 12.6 13 12.622 13C13.242 13 13.747 13.505 13.747 14.125C13.747 14.745 13.242 15.25 12.622 15.25H12.624ZM23.208 14.895C22.565 16.392 21.396 17.25 19.999 17.25C17.791 17.25 16.249 15.091 16.249 12C16.249 8.909 17.791 6.75 19.999 6.75C21.396 6.75 22.565 7.608 23.208 9.105C23.426 9.613 23.191 10.201 22.684 10.418C22.175 10.637 21.587 10.401 21.371 9.894C21.045 9.134 20.584 8.749 20 8.749C18.798 8.749 18.25 10.434 18.25 11.999C18.25 13.564 18.798 15.249 20 15.249C20.584 15.249 21.045 14.864 21.371 14.104C21.589 13.596 22.177 13.36 22.684 13.58C23.192 13.798 23.426 14.386 23.208 14.893V14.895Z" fill="#242424"/>
</svg>
