<svg width="24" height="24" viewBox="0 0 24 24" fill="none" xmlns="http://www.w3.org/2000/svg">
<path d="M5.20702 7.5C5.10202 7.2 4.81802 7 4.50002 7C4.18202 7 3.89802 7.2 3.79302 7.5L0.793017 16C0.655017 16.391 0.860017 16.819 1.25102 16.957C1.64002 17.095 2.07002 16.891 2.20802 16.5L2.73702 15H6.26402L6.79302 16.5C6.90102 16.808 7.19102 17 7.50002 17C7.58302 17 7.66702 16.986 7.75002 16.957C8.14102 16.819 8.34602 16.391 8.20802 16L5.20702 7.5ZM3.26602 13.5L4.50002 10.004L5.73402 13.5H3.26602ZM14.102 11.671C14.501 11.177 14.75 10.558 14.75 9.875C14.75 8.376 13.592 7.155 12.125 7.025C12.083 7.018 12.044 7 12 7H9.75002C9.33602 7 9.00002 7.336 9.00002 7.75V16.25C9.00002 16.664 9.33602 17 9.75002 17H12.25C12.317 17 12.376 16.978 12.438 16.962C12.499 16.978 12.559 17 12.626 17C14.211 17 15.501 15.71 15.501 14.125C15.501 13.082 14.937 12.175 14.103 11.671H14.102ZM11.875 8.5C12.633 8.5 13.25 9.117 13.25 9.875C13.25 10.633 12.633 11.25 11.875 11.25H10.5V8.5H11.875ZM12.625 15.5C12.558 15.5 12.499 15.522 12.437 15.538C12.376 15.522 12.316 15.5 12.249 15.5H10.499V12.75H12.499C12.521 12.75 12.54 12.739 12.561 12.737C12.583 12.739 12.601 12.75 12.623 12.75C13.381 12.75 13.998 13.367 13.998 14.125C13.998 14.883 13.381 15.5 12.623 15.5H12.625ZM22.979 14.796C22.377 16.196 21.292 17 20 17C17.907 17 16.5 14.99 16.5 12C16.5 9.01 17.907 7 20 7C21.292 7 22.378 7.804 22.979 9.204C23.142 9.585 22.966 10.026 22.585 10.189C22.203 10.351 21.763 10.176 21.6 9.795C21.347 9.204 20.863 8.499 19.999 8.499C18.625 8.499 17.999 10.313 17.999 11.999C17.999 13.685 18.625 15.499 19.999 15.499C20.863 15.499 21.346 14.794 21.6 14.203C21.763 13.822 22.202 13.645 22.585 13.809C22.965 13.972 23.142 14.413 22.979 14.794V14.796Z" fill="#242424"/>
</svg>
