<svg width="16" height="16" viewBox="0 0 16 16" fill="none" xmlns="http://www.w3.org/2000/svg">
<path d="M9.8 7.78002C9.97 7.46702 10.055 7.11102 10.043 6.76502C10.053 6.39202 9.968 6.01902 9.795 5.67902C9.641 5.39802 9.412 5.16702 9.126 5.00802C8.802 4.83902 8.437 4.74902 8.007 4.74902H6.5C6.3 4.74902 6.111 4.82702 5.97 4.96902C5.829 5.11102 5.75 5.29902 5.75 5.49902V10.499C5.75 10.699 5.828 10.888 5.97 11.029C6.112 11.17 6.3 11.249 6.5 11.249H8.262C8.674 11.249 9.081 11.145 9.447 10.943C9.743 10.77 9.985 10.518 10.15 10.214C10.312 9.91002 10.388 9.56902 10.371 9.24602C10.382 8.85702 10.285 8.47402 10.089 8.13202C10.01 8.00202 9.912 7.88302 9.801 7.77802L9.8 7.78002ZM8.521 7.00702C8.492 7.07302 8.444 7.13002 8.405 7.15802C8.293 7.21802 8.167 7.25002 8.024 7.25002H7.251V6.25002L8.064 6.24802C8.184 6.24802 8.305 6.27502 8.401 6.31902C8.433 6.33602 8.461 6.36302 8.473 6.38802C8.528 6.49802 8.553 6.62202 8.55 6.79402C8.561 6.86602 8.55 6.94002 8.521 7.00602V7.00702ZM7.25 8.74902L8.274 8.74702C8.429 8.74702 8.58 8.77602 8.705 8.82402C8.743 8.84302 8.777 8.87402 8.794 8.89902C8.847 8.99802 8.871 9.11002 8.866 9.27002C8.876 9.34402 8.864 9.41802 8.831 9.48702C8.8 9.55202 8.749 9.60802 8.697 9.64002C8.561 9.71102 8.409 9.74902 8.25 9.74902H7.25V8.74802V8.74902Z" fill="#242424"/>
<path d="M3.69605 5.22303C3.59005 4.95303 3.31605 4.78003 3.00005 4.78003C2.68405 4.78003 2.41005 4.95403 2.30405 5.22203L0.30405 10.222C0.23005 10.408 0.23305 10.612 0.31105 10.796C0.39005 10.98 0.53705 11.122 0.72105 11.195C0.81005 11.231 0.90405 11.25 1.00005 11.25C1.30805 11.25 1.58105 11.065 1.69605 10.778L1.90705 10.25H4.09305L4.30405 10.778C4.41905 11.064 4.69205 11.25 5.00005 11.25C5.09605 11.25 5.18905 11.231 5.27805 11.196C5.46405 11.122 5.61005 10.979 5.68905 10.796C5.76705 10.611 5.77005 10.407 5.69605 10.222L3.69605 5.22303ZM2.50805 8.75003L3.00005 7.52003L3.49205 8.75003H2.50805Z" fill="#242424"/>
<path d="M15.29 8.819C15.19 8.773 15.085 8.75 14.976 8.75C14.683 8.75 14.415 8.922 14.294 9.187C14.112 9.582 13.838 9.75 13.375 9.75C13.097 9.75 12.25 9.75 12.25 8C12.25 6.25 13.097 6.25 13.375 6.25C13.852 6.25 14.132 6.43 14.312 6.853C14.43 7.129 14.701 7.308 15.001 7.308C15.102 7.308 15.2 7.287 15.296 7.247C15.676 7.085 15.853 6.643 15.692 6.264C15.276 5.287 14.454 4.75 13.376 4.75C11.732 4.75 10.751 5.965 10.751 8C10.751 10.035 11.732 11.25 13.376 11.25C14.437 11.25 15.226 10.753 15.658 9.813C15.741 9.63 15.749 9.427 15.679 9.24C15.61 9.052 15.471 8.902 15.29 8.819Z" fill="#242424"/>
</svg>
