<svg width="16" height="16" viewBox="0 0 16 16" fill="none" xmlns="http://www.w3.org/2000/svg">
<path fill-rule="evenodd" clip-rule="evenodd" d="M9.793 6.75897C9.806 7.14297 9.693 7.52097 9.473 7.83597C9.635 7.94997 9.771 8.09497 9.874 8.26397C10.045 8.56097 10.13 8.89897 10.12 9.24097C10.136 9.53897 10.07 9.83497 9.929 10.097C9.788 10.359 9.577 10.578 9.32 10.729C8.992 10.909 8.624 11.002 8.25 11H6.5C6.367 11 6.24 10.947 6.146 10.854C6.052 10.76 6 10.633 6 10.5V5.49997C6 5.36697 6.053 5.23997 6.146 5.14597C6.24 5.05197 6.367 4.99997 6.5 4.99997H8C8.351 4.98897 8.699 5.06797 9.011 5.22997C9.249 5.36297 9.444 5.56097 9.575 5.79997C9.727 6.09597 9.802 6.42597 9.793 6.75897ZM8.697 6.27797C8.657 6.20297 8.596 6.14097 8.521 6.09997C8.358 6.02397 8.179 5.98997 8 5.99997H7V7.49997H8.022C8.196 7.50297 8.369 7.46097 8.522 7.37797C8.622 7.31097 8.701 7.21797 8.749 7.10797C8.798 6.99797 8.814 6.87697 8.797 6.75897C8.805 6.59297 8.77 6.42697 8.697 6.27797ZM8.186 8.49997H7V9.99997H8.25C8.447 9.99997 8.64 9.95297 8.814 9.86097C8.919 9.79797 9.004 9.70497 9.057 9.59397C9.11 9.48297 9.13 9.35897 9.114 9.23797C9.123 9.07897 9.088 8.92097 9.014 8.78097C8.966 8.70297 8.897 8.63997 8.814 8.59997C8.615 8.52097 8.4 8.48697 8.186 8.49997Z" fill="#242424"/>
<path d="M5.46399 10.314L3.46399 5.31401C3.31399 4.93301 2.68699 4.93301 2.53599 5.31401L0.535991 10.314C0.432991 10.57 0.556991 10.861 0.813991 10.963C1.06899 11.067 1.36099 10.941 1.46299 10.685L1.73699 9.99901H4.26099L4.53499 10.685C4.61299 10.88 4.80099 10.999 4.99899 10.999C5.06099 10.999 5.12399 10.987 5.18499 10.963C5.44199 10.86 5.56599 10.569 5.46299 10.314H5.46399ZM2.13799 9.00001L2.99999 6.84701L3.86199 9.00001H2.13899H2.13799Z" fill="#242424"/>
<path d="M13.375 11C11.865 11 11 9.906 11 8C11 6.094 11.865 5 13.375 5C14.346 5 15.087 5.483 15.461 6.361C15.569 6.616 15.451 6.909 15.197 7.017C14.94 7.125 14.649 7.006 14.541 6.753C14.322 6.238 13.951 5.999 13.375 5.999C12.463 5.999 12 6.672 12 7.999C12 9.326 12.463 9.999 13.375 9.999C13.935 9.999 14.299 9.773 14.521 9.29C14.636 9.037 14.936 8.93 15.184 9.045C15.435 9.16 15.544 9.457 15.429 9.708C15.04 10.553 14.33 10.999 13.374 10.999L13.375 11Z" fill="#242424"/>
</svg>
