<svg version="1.1" id="Capa_1" xmlns="http://www.w3.org/2000/svg" xmlns:xlink="http://www.w3.org/1999/xlink" x="0px" y="0px"
     viewBox="0 0 512 512" style="enable-background:new 0 0 512 512;" xml:space="preserve">
    <style type="text/css">
        .st0{fill:url(#SVGID_1_);}
        .st1{fill:#3999C6;}
    </style>
    <linearGradient id="SVGID_1_" gradientUnits="userSpaceOnUse" x1="45" y1="248" x2="460" y2="248">
        <stop  offset="0" style="stop-color:#FFFFFF"/>
        <stop  offset="1" style="stop-color:#FFFFFF"/>
    </linearGradient>
    <rect x="45" y="45" class="st0" width="415" height="406"/>
    <g>
        <path class="st1" d="M426.7,277.3c0,5.8-2.1,10.8-6.3,15c-4.2,4.2-9.2,6.3-15,6.3H298.7v106.7c0,5.8-2.1,10.8-6.3,15
            c-4.2,4.2-9.2,6.3-15,6.3h-42.7c-5.8,0-10.8-2.1-15-6.3c-4.2-4.2-6.3-9.2-6.3-15V298.7H106.7c-5.8,0-10.8-2.1-15-6.3
            c-4.2-4.2-6.3-9.2-6.3-15v-42.7c0-5.8,2.1-10.8,6.3-15c4.2-4.2,9.2-6.3,15-6.3h106.7V106.7c0-5.8,2.1-10.8,6.3-15
            c4.2-4.2,9.2-6.3,15-6.3h42.7c5.8,0,10.8,2.1,15,6.3c4.2,4.2,6.3,9.2,6.3,15v106.7h106.7c5.8,0,10.8,2.1,15,6.3
            c4.2,4.2,6.3,9.2,6.3,15L426.7,277.3L426.7,277.3z M483.8,28.2C465.1,9.4,442.4,0,416,0H96C69.6,0,46.9,9.4,28.2,28.2
            C9.4,46.9,0,69.6,0,96v320c0,26.4,9.4,49.1,28.2,67.8C46.9,502.6,69.6,512,96,512h320c26.4,0,49.1-9.4,67.8-28.2
            c18.8-18.8,28.2-41.4,28.2-67.8V96C512,69.6,502.6,46.9,483.8,28.2z"/>
    </g>
</svg>
