<svg width="64" height="64" viewBox="0 0 64 64" fill="none" xmlns="http://www.w3.org/2000/svg">
<path d="M26.6412 4L42.6915 4C45.6233 4 47.9999 6.37667 47.9999 9.30844V50.7143C47.9999 53.6461 45.6233 56.0227 42.6915 56.0227L11.3125 56.0227C8.3807 56.0227 6.00403 53.6461 6.00403 50.7143V23.6033L26.6412 4Z" fill="url(#paint0_linear_723_143416)"/>
<path d="M26.6412 4L42.6915 4C45.6233 4 47.9999 6.37667 47.9999 9.30844V50.7143C47.9999 53.6461 45.6233 56.0227 42.6915 56.0227L11.3125 56.0227C8.3807 56.0227 6.00403 53.6461 6.00403 50.7143V23.6033L26.6412 4Z" fill="url(#paint1_radial_723_143416)" fill-opacity="0.3"/>
<path d="M26.6412 4L42.6915 4C45.6233 4 47.9999 6.37667 47.9999 9.30844V50.7143C47.9999 53.6461 45.6233 56.0227 42.6915 56.0227L11.3125 56.0227C8.3807 56.0227 6.00403 53.6461 6.00403 50.7143V23.6033L26.6412 4Z" fill="url(#paint2_radial_723_143416)"/>
<path d="M26.6412 4L42.6915 4C45.6233 4 47.9999 6.37667 47.9999 9.30844V50.7143C47.9999 53.6461 45.6233 56.0227 42.6915 56.0227L11.3125 56.0227C8.3807 56.0227 6.00403 53.6461 6.00403 50.7143V23.6033L26.6412 4Z" fill="url(#paint3_radial_723_143416)"/>
<path d="M26.6033 4L5.96788 23.6033C5.96788 24.5876 6.76576 25.3854 7.75 25.3854H22.148C25.5928 25.3854 28.3854 22.5928 28.3854 19.148V5.78212C28.3854 4.79788 27.5875 4 26.6033 4Z" fill="url(#paint4_linear_723_143416)"/>
<path d="M44 32C41.7259 32 39.8824 33.8435 39.8824 36.1177V41.8824L34.1177 41.8824C31.8435 41.8824 30 43.7259 30 46C30 48.2741 31.8435 50.1177 34.1177 50.1177H39.8824V55.8824C39.8824 58.1565 41.7259 60 44 60C46.2741 60 48.1177 58.1565 48.1177 55.8824V50.1177H53.8824C56.1565 50.1177 58 48.2741 58 46C58 43.7259 56.1565 41.8824 53.8824 41.8824H48.1177V36.1177C48.1177 33.8435 46.2741 32 44 32Z" fill="url(#paint5_radial_723_143416)"/>
<path d="M44 32C41.7259 32 39.8824 33.8435 39.8824 36.1177V41.8824L34.1177 41.8824C31.8435 41.8824 30 43.7259 30 46C30 48.2741 31.8435 50.1177 34.1177 50.1177H39.8824V55.8824C39.8824 58.1565 41.7259 60 44 60C46.2741 60 48.1177 58.1565 48.1177 55.8824V50.1177H53.8824C56.1565 50.1177 58 48.2741 58 46C58 43.7259 56.1565 41.8824 53.8824 41.8824H48.1177V36.1177C48.1177 33.8435 46.2741 32 44 32Z" fill="url(#paint6_radial_723_143416)"/>
<path d="M44 32C41.7259 32 39.8824 33.8435 39.8824 36.1177V41.8824L34.1177 41.8824C31.8435 41.8824 30 43.7259 30 46C30 48.2741 31.8435 50.1177 34.1177 50.1177H39.8824V55.8824C39.8824 58.1565 41.7259 60 44 60C46.2741 60 48.1177 58.1565 48.1177 55.8824V50.1177H53.8824C56.1565 50.1177 58 48.2741 58 46C58 43.7259 56.1565 41.8824 53.8824 41.8824H48.1177V36.1177C48.1177 33.8435 46.2741 32 44 32Z" fill="url(#paint7_radial_723_143416)"/>
<path d="M44 32C41.7259 32 39.8824 33.8435 39.8824 36.1177V41.8824L34.1177 41.8824C31.8435 41.8824 30 43.7259 30 46C30 48.2741 31.8435 50.1177 34.1177 50.1177H39.8824V55.8824C39.8824 58.1565 41.7259 60 44 60C46.2741 60 48.1177 58.1565 48.1177 55.8824V50.1177H53.8824C56.1565 50.1177 58 48.2741 58 46C58 43.7259 56.1565 41.8824 53.8824 41.8824H48.1177V36.1177C48.1177 33.8435 46.2741 32 44 32Z" fill="url(#paint8_radial_723_143416)"/>
<path d="M44 32C41.7259 32 39.8824 33.8435 39.8824 36.1177V41.8824L34.1177 41.8824C31.8435 41.8824 30 43.7259 30 46C30 48.2741 31.8435 50.1177 34.1177 50.1177H39.8824V55.8824C39.8824 58.1565 41.7259 60 44 60C46.2741 60 48.1177 58.1565 48.1177 55.8824V50.1177H53.8824C56.1565 50.1177 58 48.2741 58 46C58 43.7259 56.1565 41.8824 53.8824 41.8824H48.1177V36.1177C48.1177 33.8435 46.2741 32 44 32Z" fill="url(#paint9_radial_723_143416)"/>
<path d="M44 32C41.7259 32 39.8824 33.8435 39.8824 36.1177V41.8824L34.1177 41.8824C31.8435 41.8824 30 43.7259 30 46C30 48.2741 31.8435 50.1177 34.1177 50.1177H39.8824V55.8824C39.8824 58.1565 41.7259 60 44 60C46.2741 60 48.1177 58.1565 48.1177 55.8824V50.1177H53.8824C56.1565 50.1177 58 48.2741 58 46C58 43.7259 56.1565 41.8824 53.8824 41.8824H48.1177V36.1177C48.1177 33.8435 46.2741 32 44 32Z" fill="url(#paint10_radial_723_143416)"/>
<path d="M44 32C41.7259 32 39.8824 33.8435 39.8824 36.1177V41.8824L34.1177 41.8824C31.8435 41.8824 30 43.7259 30 46C30 48.2741 31.8435 50.1177 34.1177 50.1177H39.8824V55.8824C39.8824 58.1565 41.7259 60 44 60C46.2741 60 48.1177 58.1565 48.1177 55.8824V50.1177H53.8824C56.1565 50.1177 58 48.2741 58 46C58 43.7259 56.1565 41.8824 53.8824 41.8824H48.1177V36.1177C48.1177 33.8435 46.2741 32 44 32Z" fill="url(#paint11_radial_723_143416)"/>
<path d="M44 32C41.7259 32 39.8824 33.8435 39.8824 36.1177V41.8824L34.1177 41.8824C31.8435 41.8824 30 43.7259 30 46C30 48.2741 31.8435 50.1177 34.1177 50.1177H39.8824V55.8824C39.8824 58.1565 41.7259 60 44 60C46.2741 60 48.1177 58.1565 48.1177 55.8824V50.1177H53.8824C56.1565 50.1177 58 48.2741 58 46C58 43.7259 56.1565 41.8824 53.8824 41.8824H48.1177V36.1177C48.1177 33.8435 46.2741 32 44 32Z" fill="url(#paint12_radial_723_143416)" fill-opacity="0.8"/>
<path d="M44 32C41.7259 32 39.8824 33.8435 39.8824 36.1177V41.8824L34.1177 41.8824C31.8435 41.8824 30 43.7259 30 46C30 48.2741 31.8435 50.1177 34.1177 50.1177H39.8824V55.8824C39.8824 58.1565 41.7259 60 44 60C46.2741 60 48.1177 58.1565 48.1177 55.8824V50.1177H53.8824C56.1565 50.1177 58 48.2741 58 46C58 43.7259 56.1565 41.8824 53.8824 41.8824H48.1177V36.1177C48.1177 33.8435 46.2741 32 44 32Z" fill="url(#paint13_radial_723_143416)" fill-opacity="0.8"/>
<path d="M44 32C41.7259 32 39.8824 33.8435 39.8824 36.1177V41.8824L34.1177 41.8824C31.8435 41.8824 30 43.7259 30 46C30 48.2741 31.8435 50.1177 34.1177 50.1177H39.8824V55.8824C39.8824 58.1565 41.7259 60 44 60C46.2741 60 48.1177 58.1565 48.1177 55.8824V50.1177H53.8824C56.1565 50.1177 58 48.2741 58 46C58 43.7259 56.1565 41.8824 53.8824 41.8824H48.1177V36.1177C48.1177 33.8435 46.2741 32 44 32Z" fill="url(#paint14_radial_723_143416)" fill-opacity="0.5"/>
<path d="M44 32C41.7259 32 39.8824 33.8435 39.8824 36.1177V41.8824L34.1177 41.8824C31.8435 41.8824 30 43.7259 30 46C30 48.2741 31.8435 50.1177 34.1177 50.1177H39.8824V55.8824C39.8824 58.1565 41.7259 60 44 60C46.2741 60 48.1177 58.1565 48.1177 55.8824V50.1177H53.8824C56.1565 50.1177 58 48.2741 58 46C58 43.7259 56.1565 41.8824 53.8824 41.8824H48.1177V36.1177C48.1177 33.8435 46.2741 32 44 32Z" fill="url(#paint15_radial_723_143416)"/>
<path d="M44 32C41.7259 32 39.8824 33.8435 39.8824 36.1177V41.8824L34.1177 41.8824C31.8435 41.8824 30 43.7259 30 46C30 48.2741 31.8435 50.1177 34.1177 50.1177H39.8824V55.8824C39.8824 58.1565 41.7259 60 44 60C46.2741 60 48.1177 58.1565 48.1177 55.8824V50.1177H53.8824C56.1565 50.1177 58 48.2741 58 46C58 43.7259 56.1565 41.8824 53.8824 41.8824H48.1177V36.1177C48.1177 33.8435 46.2741 32 44 32Z" fill="url(#paint16_radial_723_143416)"/>
<defs>
<linearGradient id="paint0_linear_723_143416" x1="38.3198" y1="15.1477" x2="-2.00063" y2="52.2188" gradientUnits="userSpaceOnUse">
<stop offset="0.367698" stop-color="#E7E7E7"/>
<stop offset="0.935092" stop-color="#C5B4E3"/>
</linearGradient>
<radialGradient id="paint1_radial_723_143416" cx="0" cy="0" r="1" gradientUnits="userSpaceOnUse" gradientTransform="translate(-0.962671 3.99999) rotate(45) scale(39.7885 22.1885)">
<stop offset="0.808175" stop-color="#A798B6"/>
<stop offset="0.946228" stop-color="white" stop-opacity="0"/>
</radialGradient>
<radialGradient id="paint2_radial_723_143416" cx="0" cy="0" r="1" gradientUnits="userSpaceOnUse" gradientTransform="translate(41.256 50.6811) rotate(178.182) scale(7.31938 13.9537)">
<stop offset="0.6914" stop-color="#C5B9CF"/>
<stop offset="0.978158" stop-color="#C5B9CF" stop-opacity="0"/>
</radialGradient>
<radialGradient id="paint3_radial_723_143416" cx="0" cy="0" r="1" gradientUnits="userSpaceOnUse" gradientTransform="translate(39.8626 48.3587) rotate(88.0251) scale(6.73909 15.0663)">
<stop offset="0.722106" stop-color="#C5B9CF"/>
<stop offset="0.978158" stop-color="#C5B9CF" stop-opacity="0"/>
</radialGradient>
<linearGradient id="paint4_linear_723_143416" x1="14.1285" y1="15.5838" x2="27.0905" y2="28.7003" gradientUnits="userSpaceOnUse">
<stop stop-color="#FAF1EB"/>
<stop offset="0.180045" stop-color="#E2D5CB"/>
<stop offset="0.732971" stop-color="#FAF1EB"/>
</linearGradient>
<radialGradient id="paint5_radial_723_143416" cx="0" cy="0" r="1" gradientUnits="userSpaceOnUse" gradientTransform="translate(58 47.6875) rotate(-156.959) scale(26.8277 30.2966)">
<stop offset="0.0979548" stop-color="#A059FF"/>
<stop offset="0.475706" stop-color="#C88EFF"/>
<stop offset="0.591843" stop-color="#FE8939"/>
</radialGradient>
<radialGradient id="paint6_radial_723_143416" cx="0" cy="0" r="1" gradientUnits="userSpaceOnUse" gradientTransform="translate(38.4763 39.0657) rotate(41.0353) scale(5.90599 2.86788)">
<stop offset="0.423192" stop-color="#CE320A"/>
<stop offset="1" stop-color="#CE320A" stop-opacity="0"/>
</radialGradient>
<radialGradient id="paint7_radial_723_143416" cx="0" cy="0" r="1" gradientUnits="userSpaceOnUse" gradientTransform="translate(39.5345 34.5948) rotate(73.3856) scale(7.80877 3.79184)">
<stop offset="0.423192" stop-color="#CE320A"/>
<stop offset="1" stop-color="#CE320A" stop-opacity="0"/>
</radialGradient>
<radialGradient id="paint8_radial_723_143416" cx="0" cy="0" r="1" gradientUnits="userSpaceOnUse" gradientTransform="translate(38.8104 56.1379) rotate(-67.9021) scale(8.66217 4.20624)">
<stop offset="0.423192" stop-color="#CE320A"/>
<stop offset="1" stop-color="#CE320A" stop-opacity="0"/>
</radialGradient>
<radialGradient id="paint9_radial_723_143416" cx="0" cy="0" r="1" gradientUnits="userSpaceOnUse" gradientTransform="translate(51.4224 42.7414) rotate(135.216) scale(22.6154 25.0951)">
<stop offset="0.701428" stop-color="#CE320A" stop-opacity="0"/>
<stop offset="0.901073" stop-color="#CE320A"/>
</radialGradient>
<radialGradient id="paint10_radial_723_143416" cx="0" cy="0" r="1" gradientUnits="userSpaceOnUse" gradientTransform="translate(45.349 38.7448) rotate(89.2386) scale(10.9749 4.2667)">
<stop offset="0.21763" stop-color="#FFB33E"/>
<stop offset="0.860381" stop-color="#FFB33E" stop-opacity="0"/>
</radialGradient>
<radialGradient id="paint11_radial_723_143416" cx="0" cy="0" r="1" gradientUnits="userSpaceOnUse" gradientTransform="translate(46.5948 46.6638) rotate(-36.2538) scale(5.6124 6.41609)">
<stop offset="0.38" stop-color="#C88EFF"/>
<stop offset="0.888365" stop-color="#C88EFF" stop-opacity="0"/>
</radialGradient>
<radialGradient id="paint12_radial_723_143416" cx="0" cy="0" r="1" gradientUnits="userSpaceOnUse" gradientTransform="translate(50.6354 43.5938) rotate(90.5963) scale(3.06197 9.05338)">
<stop stop-color="#ECD5FF"/>
<stop offset="1" stop-color="#E9CEFF" stop-opacity="0"/>
</radialGradient>
<radialGradient id="paint13_radial_723_143416" cx="0" cy="0" r="1" gradientUnits="userSpaceOnUse" gradientTransform="translate(38.1302 43.8125) rotate(90) scale(2.40625 7.1146)">
<stop stop-color="#FFB33E"/>
<stop offset="1" stop-color="#FFB33E" stop-opacity="0"/>
</radialGradient>
<radialGradient id="paint14_radial_723_143416" cx="0" cy="0" r="1" gradientUnits="userSpaceOnUse" gradientTransform="translate(38.1667 44.8698) rotate(16.149) scale(11.2729 5.57652)">
<stop offset="0.184353" stop-color="#FFB33E"/>
<stop offset="0.50899" stop-color="#FFB33E" stop-opacity="0.74"/>
<stop offset="0.936886" stop-color="#FFB33E" stop-opacity="0"/>
</radialGradient>
<radialGradient id="paint15_radial_723_143416" cx="0" cy="0" r="1" gradientUnits="userSpaceOnUse" gradientTransform="translate(36.1979 49.3542) rotate(5.62818) scale(8.87071 4.30751)">
<stop offset="0.15072" stop-color="#CE320A"/>
<stop offset="0.793906" stop-color="#CE320A" stop-opacity="0"/>
</radialGradient>
<radialGradient id="paint16_radial_723_143416" cx="0" cy="0" r="1" gradientUnits="userSpaceOnUse" gradientTransform="translate(54.151 50.203) rotate(87.614) scale(3.96336 7.40468)">
<stop offset="0.493263" stop-color="#873CEC"/>
<stop offset="1" stop-color="#A05AFF" stop-opacity="0"/>
</radialGradient>
</defs>
</svg>
