<svg width="64" height="64" viewBox="0 0 64 64" fill="none" xmlns="http://www.w3.org/2000/svg">
<path d="M9.76356 8C6.58043 8 4 10.5804 4 13.7636V50.2365C4 53.4196 6.58043 56 9.76356 56H54.2364C57.4196 56 60 53.4196 60 50.2364V21.7636C60 18.5804 57.4196 16 54.2364 16H30L25.5133 10.1479C24.4192 8.78972 22.7689 8 21.0249 8H9.76356Z" fill="url(#paint0_linear_723_143414)"/>
<path d="M9.76356 8C6.58043 8 4 10.5804 4 13.7636V50.2365C4 53.4196 6.58043 56 9.76356 56H54.2364C57.4196 56 60 53.4196 60 50.2364V21.7636C60 18.5804 57.4196 16 54.2364 16H30L25.5133 10.1479C24.4192 8.78972 22.7689 8 21.0249 8H9.76356Z" fill="url(#paint1_radial_723_143414)"/>
<path d="M9.76356 8C6.58043 8 4 10.5804 4 13.7636V50.2365C4 53.4196 6.58043 56 9.76356 56H54.2364C57.4196 56 60 53.4196 60 50.2364V21.7636C60 18.5804 57.4196 16 54.2364 16H30L25.5133 10.1479C24.4192 8.78972 22.7689 8 21.0249 8H9.76356Z" fill="url(#paint2_radial_723_143414)"/>
<path d="M9.76356 8C6.58043 8 4 10.5804 4 13.7636V50.2365C4 53.4196 6.58043 56 9.76356 56H54.2364C57.4196 56 60 53.4196 60 50.2364V21.7636C60 18.5804 57.4196 16 54.2364 16H30L25.5133 10.1479C24.4192 8.78972 22.7689 8 21.0249 8H9.76356Z" fill="url(#paint3_radial_723_143414)"/>
<path d="M9.76356 8C6.58043 8 4 10.5804 4 13.7636V50.2365C4 53.4196 6.58043 56 9.76356 56H54.2364C57.4196 56 60 53.4196 60 50.2364V21.7636C60 18.5804 57.4196 16 54.2364 16H30L25.5133 10.1479C24.4192 8.78972 22.7689 8 21.0249 8H9.76356Z" fill="url(#paint4_radial_723_143414)"/>
<path d="M38.8734 56.0016L50.1509 46.1879C51.3307 45.1612 51.2827 43.3068 50.0507 42.3433L34.901 30.4957C33.2036 29.1683 30.8221 29.1856 29.144 30.5373L13.9215 42.7994C12.7034 43.7807 12.682 45.6359 13.8768 46.6454L24.9517 56.0016H25.7265L14.1995 46.2634C13.2446 45.4567 13.2619 43.9728 14.2352 43.1888L29.4577 30.9267C30.9548 29.7207 33.0787 29.7054 34.5929 30.8895L49.7427 42.7372C50.727 43.5069 50.7656 44.9902 49.8227 45.8107L38.1117 56.0016H38.8734Z" fill="url(#paint5_linear_723_143414)"/>
<path d="M29.4577 30.9267C30.9548 29.7207 33.0787 29.7054 34.5929 30.8895L49.7427 42.7372C50.727 43.5069 50.7656 44.9901 49.8227 45.8107L34.6829 58.9853C33.1431 60.3252 30.8641 60.342 29.305 59.0248L14.1995 46.2634C13.2446 45.4567 13.2619 43.9728 14.2352 43.1888L29.4577 30.9267Z" fill="url(#paint6_radial_723_143414)"/>
<path d="M29.4577 30.9267C30.9548 29.7207 33.0787 29.7054 34.5929 30.8895L49.7427 42.7372C50.727 43.5069 50.7656 44.9901 49.8227 45.8107L34.6829 58.9853C33.1431 60.3252 30.8641 60.342 29.305 59.0248L14.1995 46.2634C13.2446 45.4567 13.2619 43.9728 14.2352 43.1888L29.4577 30.9267Z" fill="url(#paint7_radial_723_143414)" fill-opacity="0.6"/>
<path d="M29.4577 30.9267C30.9548 29.7207 33.0787 29.7054 34.5929 30.8895L49.7427 42.7372C50.727 43.5069 50.7656 44.9901 49.8227 45.8107L34.6829 58.9853C33.1431 60.3252 30.8641 60.342 29.305 59.0248L14.1995 46.2634C13.2446 45.4567 13.2619 43.9728 14.2352 43.1888L29.4577 30.9267Z" fill="url(#paint8_radial_723_143414)" fill-opacity="0.6"/>
<path d="M29.4577 20.915C30.9548 19.709 33.0787 19.6937 34.5929 20.8778L49.7427 32.7255C50.727 33.4952 50.7656 34.9784 49.8227 35.799L34.6829 48.9736C33.1431 50.3135 30.8641 50.3303 29.305 49.0131L14.1995 36.2517C13.2446 35.445 13.2619 33.9611 14.2352 33.1771L29.4577 20.915Z" fill="url(#paint9_linear_723_143414)"/>
<defs>
<linearGradient id="paint0_linear_723_143414" x1="56.6061" y1="4.08717" x2="2.74423" y2="94.1395" gradientUnits="userSpaceOnUse">
<stop offset="0.367698" stop-color="#E7E7E7"/>
<stop offset="0.788937" stop-color="#DFFF87"/>
</linearGradient>
<radialGradient id="paint1_radial_723_143414" cx="0" cy="0" r="1" gradientUnits="userSpaceOnUse" gradientTransform="translate(25.5 54.5) rotate(-158.587) scale(27.3907 7.95948)">
<stop offset="0.228488" stop-color="#9EB06B"/>
<stop offset="0.511394" stop-color="#D8EBA3"/>
<stop offset="0.624352" stop-color="#E6EFCC" stop-opacity="0"/>
</radialGradient>
<radialGradient id="paint2_radial_723_143414" cx="0" cy="0" r="1" gradientUnits="userSpaceOnUse" gradientTransform="translate(26.8125 46.5) rotate(-155.881) scale(30.1305 8.75565)">
<stop offset="0.228488" stop-color="#9EB06B"/>
<stop offset="0.524566" stop-color="#D8EBA3"/>
<stop offset="0.624352" stop-color="#E6EFCC" stop-opacity="0"/>
</radialGradient>
<radialGradient id="paint3_radial_723_143414" cx="0" cy="0" r="1" gradientUnits="userSpaceOnUse" gradientTransform="translate(37.125 54.5) rotate(-21.1135) scale(27.067 7.86544)">
<stop offset="0.228488" stop-color="#9EB06B"/>
<stop offset="0.523673" stop-color="#D9E2BE"/>
<stop offset="0.624352" stop-color="#E8E9E3" stop-opacity="0"/>
</radialGradient>
<radialGradient id="paint4_radial_723_143414" cx="0" cy="0" r="1" gradientUnits="userSpaceOnUse" gradientTransform="translate(37.4375 46.0625) rotate(-26.7882) scale(28.7057 8.25034)">
<stop offset="0.228488" stop-color="#A0A0A0"/>
<stop offset="0.482301" stop-color="#D7D7D7"/>
<stop offset="0.680814" stop-color="#E8E8E8" stop-opacity="0"/>
</radialGradient>
<linearGradient id="paint5_linear_723_143414" x1="32.0001" y1="30.1111" x2="32.0001" y2="60.3517" gradientUnits="userSpaceOnUse">
<stop stop-color="#E7E7E7"/>
<stop offset="0.702698" stop-color="#E7E7E7"/>
</linearGradient>
<radialGradient id="paint6_radial_723_143414" cx="0" cy="0" r="1" gradientTransform="matrix(-50.8859 -11.4321 86.4805 -367.903 53.2437 53.5985)" gradientUnits="userSpaceOnUse">
<stop stop-color="#C8F057"/>
<stop offset="0.178514" stop-color="#9AFD83"/>
<stop offset="0.46452" stop-color="#5ADEC9"/>
<stop offset="0.791667" stop-color="#03A5FF"/>
<stop offset="1" stop-color="#8763C2"/>
</radialGradient>
<radialGradient id="paint7_radial_723_143414" cx="0" cy="0" r="1" gradientTransform="matrix(17.2913 14.5387 -5.05907 6.09048 18.167 40.6753)" gradientUnits="userSpaceOnUse">
<stop stop-color="#00278A"/>
<stop offset="0.4538" stop-color="#004CBF"/>
<stop offset="1" stop-color="#34C2DB" stop-opacity="0"/>
</radialGradient>
<radialGradient id="paint8_radial_723_143414" cx="0" cy="0" r="1" gradientTransform="matrix(-13.339 13.5446 -3.91039 -3.89813 46.0801 38.3143)" gradientUnits="userSpaceOnUse">
<stop stop-color="#4C9E31"/>
<stop offset="0.452368" stop-color="#5FB52E"/>
<stop offset="1" stop-color="#7FE593" stop-opacity="0"/>
</radialGradient>
<linearGradient id="paint9_linear_723_143414" x1="33.2345" y1="19.7975" x2="31.9843" y2="71.2417" gradientUnits="userSpaceOnUse">
<stop offset="0.15563" stop-color="white"/>
<stop offset="0.527627" stop-color="#E4E4E4"/>
</linearGradient>
</defs>
</svg>
