<svg version="1.1" viewBox="0 0 32 32" xmlns="http://www.w3.org/2000/svg">
 <path fill="#8C6CFF" d="m0 0h32v32h-32z"/>
 <g fill="#fff">
  <path transform="matrix(.8 0 0 .8 3.198 2.673)" d="M6 16.07a2.24 2.24 0 0 0 .9-.19 2.36 2.36 0 0 0 1.24-1.24 2.22 2.22 0 0 0 .19-.9v-1.29a8.22 8.22 0 0 1 0-1.26 4.68 4.68 0 0 1 .3-1.19 3.09 3.09 0 0 1 .71-1 3.42 3.42 0 0 1 1.14-.75 3.51 3.51 0 0 1 1.34-.26v1.11a2.21 2.21 0 0 0-.9.19 2.36 2.36 0 0 0-1.24 1.24 2.23 2.23 0 0 0-.19.9v2a7 7 0 0 1-.09.93 3.73 3.73 0 0 1-.25.86 3.27 3.27 0 0 1-.47.78 3.44 3.44 0 0 1-.77.69 3.48 3.48 0 0 1 .77.69 3.29 3.29 0 0 1 .47.78 3.75 3.75 0 0 1 .25.86 7 7 0 0 1 .09.93v2a2.22 2.22 0 0 0 .19.9 2.37 2.37 0 0 0 1.23 1.15 2.22 2.22 0 0 0 .9.19v1.16a3.49 3.49 0 0 1-1.34-.26 3.41 3.41 0 0 1-1.14-.75 3.09 3.09 0 0 1-.71-1.06 4.67 4.67 0 0 1-.29-1.18 8.24 8.24 0 0 1 0-1.26v-1.29a2.23 2.23 0 0 0-.19-.9 2.35 2.35 0 0 0-1.24-1.23 2.22 2.22 0 0 0-.9-.18zm14.19-8.13a3.51 3.51 0 0 1 1.34.26 3.42 3.42 0 0 1 1.13.8 3.09 3.09 0 0 1 .71 1 4.68 4.68 0 0 1 .29 1.19 8.22 8.22 0 0 1 0 1.26v1.29a2.22 2.22 0 0 0 .19.9 2.37 2.37 0 0 0 1.24 1.24 2.22 2.22 0 0 0 .9.19v1.16a2.21 2.21 0 0 0-.9.19 2.36 2.36 0 0 0-1.24 1.24 2.23 2.23 0 0 0-.19.9v1.29a8.24 8.24 0 0 1 0 1.26 4.67 4.67 0 0 1-.29 1.18 3.09 3.09 0 0 1-.71 1.06 3.41 3.41 0 0 1-1.14.75 3.49 3.49 0 0 1-1.34.26v-1.15a2.24 2.24 0 0 0 .9-.19 2.36 2.36 0 0 0 1.24-1.24 2.22 2.22 0 0 0 .19-.9v-2a7 7 0 0 1 .07-.88 3.75 3.75 0 0 1 .25-.86 3.29 3.29 0 0 1 .47-.78 3.48 3.48 0 0 1 .77-.69 3.44 3.44 0 0 1-.78-.67 3.27 3.27 0 0 1-.47-.78 3.73 3.73 0 0 1-.25-.86 7 7 0 0 1-.09-.93v-2a2.23 2.23 0 0 0-.19-.9 2.35 2.35 0 0 0-1.24-1.24 2.22 2.22 0 0 0-.9-.19v-1.16z"/>
  <path transform="matrix(.8 0 0 .8 3.198 2.673)" d="M20.12 14a1.29 1.29 0 0 1-.09.48 1.21 1.21 0 0 1-.28.42l-5 5-2.39.6.64-2.4 5-5a1.25 1.25 0 0 1 .42-.28 1.29 1.29 0 0 1 .48-.09 1.22 1.22 0 0 1 .49.1 1.27 1.27 0 0 1 .67.67 1.22 1.22 0 0 1 .06.5zm-7.07 5.8l1.24-.31a1.22 1.22 0 0 0-.93-.93zm.57-1.68a1.72 1.72 0 0 1 1.11 1.11l4.08-4.08-1.11-1.11zm5.53-3.32l.18-.18a1.37 1.37 0 0 0 .16-.18.78.78 0 0 0 .11-.2.72.72 0 0 0 0-.25.76.76 0 0 0-.06-.3.78.78 0 0 0-.17-.25.83.83 0 0 0-.25-.17.76.76 0 0 0-.3-.06.72.72 0 0 0-.25 0 .82.82 0 0 0-.2.11l-.18.16-.19.25z" stroke="#fff" stroke-miterlimit="10" stroke-width=".25"/>
 </g>
</svg>
