<svg width="32px" height="32px" enable-background="new 0 0 32 32" version="1.1" viewBox="0 0 32 32" xmlns="http://www.w3.org/2000/svg">
 <rect width="32" height="32" fill="#770BD6"/>
 <g fill="#fff">
  <path d="M6.763,13.685v-3.208C6.763,8.748,7.762,8,10,8v1.07c-1,0-2,0.325-2,1.407v3.188    C8,14.836,6.512,16,5.512,16C6.512,16,8,17.164,8,18.335V21.5c0,1.082,1,1.429,2,1.429V24c-2.238,0-3.238-0.772-3.238-2.5v-3.165    c0-1.149-0.893-1.529-1.763-1.585v-1.5C5.87,15.194,6.763,14.834,6.763,13.685z"/>
  <path d="m25.238 13.685v-3.208c0-1.729-1-2.477-3.238-2.477v1.07c1 0 2 0.325 2 1.407v3.188c0 1.171 1.488 2.335 2.488 2.335-1 0-2.488 1.164-2.488 2.335v3.165c0 1.082-1 1.429-2 1.429v1.071c2.238 0 3.238-0.772 3.238-2.5v-3.165c0-1.149 0.893-1.529 1.762-1.585v-1.5c-0.87-0.056-1.762-0.416-1.762-1.565z"/>
  <path d="m15.815 16.512l-0.242-0.641c-0.177-0.453-0.273-0.698-0.289-0.734l-0.375-0.836c-0.266-0.599-0.521-0.898-0.766-0.898-0.37 0-0.662 0.347-0.875 1.039-0.156-0.057-0.234-0.141-0.234-0.25 0-0.323 0.188-0.692 0.562-1.109 0.375-0.417 0.71-0.625 1.007-0.625 0.583 0 1.186 0.839 1.811 2.516l0.161 0.414 0.18-0.289c1.108-1.76 2.044-2.641 2.804-2.641 0.198 0 0.43 0.058 0.695 0.172l-0.946 0.992c-0.125-0.036-0.214-0.055-0.266-0.055-0.573 0-1.256 0.659-2.048 1.977l-0.227 0.379 0.179 0.48c0.684 1.891 1.249 2.836 1.694 2.836 0.408 0 0.72-0.292 0.935-0.875 0.146 0.094 0.219 0.19 0.219 0.289 0 0.261-0.208 0.573-0.625 0.938s-0.776 0.547-1.078 0.547c-0.604 0-1.221-0.852-1.851-2.555l-0.219-0.578-0.227 0.398c-1.062 1.823-2.078 2.734-3.047 2.734-0.365 0-0.675-0.091-0.93-0.271l0.906-0.885c0.156 0.156 0.338 0.234 0.547 0.234 0.588 0 1.25-0.596 1.984-1.786l0.406-0.658 0.155-0.259z"/>
  <ellipse transform="matrix(.0536 -.9986 .9986 .0536 5.4925 32.245)" cx="19.757" cy="13.225" rx=".778" ry=".778"/>
  <ellipse transform="matrix(.0536 -.9986 .9986 .0536 -7.5839 30.629)" cx="12.366" cy="19.315" rx=".778" ry=".778"/>
 </g>
</svg>
