<svg version="1.1" viewBox="0 0 32 32" xmlns="http://www.w3.org/2000/svg">
 <path d="m0 0h32v32h-32z" fill="#1f85ff"/>
 <path transform="matrix(.572 0 0 .572 6.853 6.857)" d="M24.41 8.84a13.89 13.89 0 0 1 2.84 4.07 11.65 11.65 0 0 1 1 4.85 12.08 12.08 0 0 1-.44 3.24 12.28 12.28 0 0 1-8.55 8.55 12.37 12.37 0 0 1-6.52 0 12.28 12.28 0 0 1-8.55-8.55 12.3 12.3 0 0 1-.08-6.21 12.35 12.35 0 0 1 1-2.71 12.19 12.19 0 0 1 1.63-2.35 12.4 12.4 0 0 1 2.11-1.93 12.21 12.21 0 0 1 5.4-2.18v-1.87h-3.5v-1.75h8.75v1.75h-3.5v1.75a12.35 12.35 0 0 1 3.7.56 11.68 11.68 0 0 1 3.3 1.67l2.84-2.84 1.23 1.23zm-8.41 19.41a10.14 10.14 0 0 0 4.08-.83 10.62 10.62 0 0 0 5.59-5.59 10.47 10.47 0 0 0 0-8.16 10.62 10.62 0 0 0-5.59-5.59 10.48 10.48 0 0 0-8.16 0 10.62 10.62 0 0 0-5.59 5.59 10.48 10.48 0 0 0 0 8.16 10.62 10.62 0 0 0 5.59 5.59 10.14 10.14 0 0 0 4.08.83zm8.75-12.25v1.75a8.57 8.57 0 0 1-.68 3.41 8.75 8.75 0 0 1-4.66 4.66 8.85 8.85 0 0 1-6.82 0 8.86 8.86 0 0 1-2.78-1.82 8.7 8.7 0 0 1-1.87-2.78 8.79 8.79 0 0 1-.37-5.74 8.91 8.91 0 0 1 .88-2.09 8.74 8.74 0 0 1 1.37-1.77 8.88 8.88 0 0 1 1.77-1.37 8.74 8.74 0 0 1 2.08-.89 8.56 8.56 0 0 1 2.33-.36h1.75v7zm-8.75 8.75a6.86 6.86 0 0 0 2.73-.55 7 7 0 0 0 3.73-3.73 6.88 6.88 0 0 0 .54-2.72h-7v-7a6.77 6.77 0 0 0-2.73.55 7.16 7.16 0 0 0-2.27 1.51 7 7 0 0 0-1.45 2.19 6.9 6.9 0 0 0-.55 2.78 6.74 6.74 0 0 0 .55 2.72 7 7 0 0 0 3.73 3.71 6.81 6.81 0 0 0 2.72.54z" fill="#fff"/>
</svg>
