<svg version="1.1" viewBox="0 0 32 32" xmlns="http://www.w3.org/2000/svg">
 <path d="m0 0h32v32h-32z" fill="#1f85ff"/>
 <path transform="matrix(.572 0 0 .572 6.853 6.857)" d="M24.41 8.84a13.87 13.87 0 0 1 2.84 4.07 11.64 11.64 0 0 1 1 4.85 12 12 0 0 1-.44 3.24 12.28 12.28 0 0 1-8.55 8.55 12.37 12.37 0 0 1-6.52 0 12.28 12.28 0 0 1-8.55-8.55 12.3 12.3 0 0 1-.08-6.21 12.35 12.35 0 0 1 1-2.71 12.19 12.19 0 0 1 1.63-2.35 12.43 12.43 0 0 1 2.11-1.93 12.21 12.21 0 0 1 5.4-2.18v-1.87h-3.5v-1.75h8.75v1.75h-3.5v1.75a12.34 12.34 0 0 1 3.7.56 11.68 11.68 0 0 1 3.3 1.67l2.84-2.84 1.23 1.23zm-8.41 19.41a10.14 10.14 0 0 0 4.08-.83 10.62 10.62 0 0 0 5.59-5.59 10.48 10.48 0 0 0 0-8.16 10.62 10.62 0 0 0-5.59-5.59 10.48 10.48 0 0 0-8.16 0 10.62 10.62 0 0 0-5.59 5.59 10.48 10.48 0 0 0 0 8.16 10.62 10.62 0 0 0 5.59 5.59 10.14 10.14 0 0 0 4.08.83zm5.25-10.5v1.75h-7v-8.75h1.75v7z" fill="#fff"/>
</svg>
