<?xml version="1.0" encoding="UTF-8" standalone="no"?>
<svg width="44px" height="44px" viewBox="0 0 44 44" version="1.1" xmlns="http://www.w3.org/2000/svg" xmlns:xlink="http://www.w3.org/1999/xlink">
    <title>File_icon</title>
    <desc>Created with Sketch.</desc>
    <defs></defs>
    <g id="Final" stroke="none" stroke-width="1" fill="none" fill-rule="evenodd">
        <g id="Add-file-/-Enum--(maker)" transform="translate(-87.000000, -353.000000)">
            <g id="2" transform="translate(10.000000, 260.000000)">
                <g id="File_icon" transform="translate(77.000000, 93.000000)">
                    <g id="file">
                        <path d="M22,44 C34.1502645,44 44,34.1502645 44,22 C44,9.8497355 34.1502645,0 22,0 C9.8497355,0 0,9.8497355 0,22 C0,34.1502645 9.8497355,44 22,44 Z" id="Oval-554" fill="#01B8AA"></path>
                        <path d="M29.0492308,18.2890625 L29.0492308,30 L17.0492308,30 L17.0492308,14 L24.7601683,14 L29.0492308,18.2890625 Z M25.0492308,18 L27.3382933,18 L25.0492308,15.7109375 L25.0492308,18 Z M28.0492308,29 L28.0492308,19 L24.0492308,19 L24.0492308,15 L18.0492308,15 L18.0492308,29 L28.0492308,29 Z" id="" fill="#FFFFFF"></path>
                    </g>
                </g>
            </g>
        </g>
    </g>
</svg>