<?xml version="1.0" encoding="utf-8"?>
<svg version="1.1" id="Layer_1" xmlns="http://www.w3.org/2000/svg" xmlns:xlink="http://www.w3.org/1999/xlink" x="0px" y="0px"
	 viewBox="0 0 44 44" style="enable-background:new 0 0 44 44;" xml:space="preserve">
<style type="text/css">
	.st0{fill:#B4009E;}
	.st1{fill:#FFFFFF;}
</style>
<title>Group 25</title>
<desc>Created with Sketch.</desc>
<path id="Oval-554-Copy-4" class="st0" d="M22,44c12.2,0,22-9.8,22-22S34.2,0,22,0S0,9.8,0,22S9.8,44,22,44z"/>
<path class="st1" d="M22.4,26.3h-3.9c0-0.3,0-0.5,0-0.8c0-0.3,0-0.5,0.1-0.7c0.1-0.2,0.2-0.4,0.3-0.6s0.3-0.4,0.5-0.5
	c0.2-0.2,0.4-0.3,0.6-0.5s0.4-0.3,0.5-0.5c0.2-0.2,0.3-0.3,0.4-0.5c0.1-0.2,0.1-0.3,0.1-0.5c0-0.2-0.1-0.3-0.2-0.5
	c-0.1-0.1-0.3-0.2-0.5-0.2c-0.2,0-0.3,0-0.4,0.1c-0.1,0.1-0.2,0.2-0.2,0.4l-1.3-0.3c0-0.2,0.1-0.4,0.2-0.6c0.1-0.2,0.3-0.4,0.4-0.5
	s0.4-0.2,0.6-0.3s0.4-0.1,0.7-0.1c0.3,0,0.5,0.1,0.8,0.2c0.2,0.1,0.4,0.2,0.6,0.4s0.3,0.4,0.4,0.6c0.1,0.2,0.2,0.5,0.2,0.8
	c0,0.3,0,0.5-0.1,0.7c-0.1,0.2-0.2,0.4-0.3,0.6c-0.1,0.2-0.3,0.4-0.4,0.5c-0.2,0.2-0.3,0.3-0.5,0.5s-0.4,0.3-0.5,0.5
	c-0.2,0.2-0.3,0.3-0.5,0.5h2.4V26.3z M32.8,15.9v14.3H12V15.9H32.8z M31.5,17.2H13.3v11.7h18.2V17.2z M16,21.3
	c-0.2,0.1-0.4,0.2-0.7,0.3c-0.3,0.1-0.5,0.1-0.7,0.1v-1.3c0.1,0,0.2,0,0.3-0.1s0.3-0.1,0.4-0.2c0.1-0.1,0.3-0.1,0.4-0.2
	c0.1-0.1,0.2-0.1,0.2-0.2h1.3v6.5H16V21.3z M25.4,26.3c-0.3,0-0.6,0-0.8-0.1c-0.3-0.1-0.5-0.2-0.8-0.4v-1.3c0.1,0.1,0.3,0.2,0.4,0.3
	c0.1,0.1,0.2,0.1,0.3,0.2c0.1,0,0.2,0.1,0.4,0.1s0.3,0,0.5,0c0.1,0,0.3,0,0.4,0c0.1,0,0.3-0.1,0.4-0.2s0.2-0.2,0.2-0.3
	c0.1-0.1,0.1-0.3,0.1-0.4c0-0.2-0.1-0.4-0.2-0.5s-0.4-0.2-0.6-0.2s-0.4,0-0.7,0c-0.2,0-0.4,0-0.5,0v-1c0.2,0,0.4,0,0.6,0
	s0.4,0,0.6-0.1c0.2-0.1,0.3-0.1,0.5-0.3c0.1-0.1,0.2-0.3,0.2-0.6c0-0.3-0.1-0.5-0.3-0.6C25.8,21,25.6,21,25.3,21
	c-0.3,0-0.5,0.1-0.7,0.2c-0.2,0.1-0.4,0.3-0.6,0.4v-1.3c0.2-0.2,0.5-0.3,0.8-0.3c0.3-0.1,0.6-0.1,0.8-0.1c0.2,0,0.5,0,0.7,0.1
	s0.4,0.2,0.6,0.3c0.2,0.1,0.3,0.3,0.4,0.5c0.1,0.2,0.2,0.4,0.2,0.7c0,0.3-0.1,0.6-0.2,0.9c-0.1,0.3-0.3,0.5-0.6,0.6
	c0.3,0.1,0.5,0.3,0.7,0.5c0.2,0.3,0.3,0.5,0.3,0.9s-0.1,0.6-0.2,0.9c-0.1,0.3-0.3,0.5-0.5,0.6s-0.5,0.3-0.8,0.4
	C26,26.3,25.7,26.3,25.4,26.3z"/>
</svg>
