<svg width="46" height="46" viewBox="0 0 46 46" fill="none" xmlns="http://www.w3.org/2000/svg">
<rect width="46" height="46" fill="white"/>
<circle cx="23" cy="23" r="23" fill="#4F6BED"/>
<path d="M35 12.5V33.5H11V12.5H15.5V11H17V12.5H29V11H30.5V12.5H35ZM12.5 14V17H33.5V14H30.5V15.5H29V14H17V15.5H15.5V14H12.5ZM33.5 32V18.5H12.5V32H33.5ZM27.5 21.5V29H26V23.3047C25.7891 23.4141 25.5469 23.5156 25.2734 23.6094C25 23.7031 24.7422 23.75 24.5 23.75V22.25C24.5938 22.25 24.7148 22.2266 24.8633 22.1797C25.0117 22.1328 25.1641 22.0742 25.3203 22.0039C25.4766 21.9258 25.6172 21.8438 25.7422 21.7578C25.8672 21.6719 25.9531 21.5898 26 21.5117V21.5H27.5ZM23 23.75C23 24.0547 22.9531 24.332 22.8594 24.582C22.7734 24.8242 22.6562 25.0508 22.5078 25.2617C22.3594 25.4648 22.1875 25.6602 21.9922 25.8477C21.7969 26.0352 21.5977 26.2188 21.3945 26.3984C21.1914 26.5703 20.9883 26.7461 20.7852 26.9258C20.5898 27.1055 20.4102 27.2969 20.2461 27.5H23V29H18.5C18.5 28.8672 18.4961 28.7266 18.4883 28.5781C18.4883 28.4297 18.4883 28.2812 18.4883 28.1328C18.4961 27.9766 18.5117 27.8281 18.5352 27.6875C18.5586 27.5391 18.5977 27.3984 18.6523 27.2656C18.7383 27.0547 18.8672 26.8477 19.0391 26.6445C19.2188 26.4336 19.4141 26.2266 19.625 26.0234C19.8359 25.8203 20.0508 25.6211 20.2695 25.4258C20.4883 25.2305 20.6875 25.0391 20.8672 24.8516C21.0547 24.6641 21.207 24.4805 21.3242 24.3008C21.4414 24.1133 21.5 23.9297 21.5 23.75C21.5 23.5391 21.4258 23.3633 21.2773 23.2227C21.1289 23.0742 20.9531 23 20.75 23C20.5703 23 20.4102 23.0547 20.2695 23.1641C20.1367 23.2734 20.0508 23.418 20.0117 23.5977L18.5469 23.293C18.5938 23.0352 18.6836 22.7969 18.8164 22.5781C18.957 22.3594 19.1289 22.1719 19.332 22.0156C19.5352 21.8516 19.7578 21.7266 20 21.6406C20.2422 21.5469 20.4922 21.5 20.75 21.5C21.0625 21.5 21.3555 21.5586 21.6289 21.6758C21.9023 21.793 22.1406 21.9531 22.3438 22.1562C22.5469 22.3594 22.707 22.5977 22.8242 22.8711C22.9414 23.1445 23 23.4375 23 23.75Z" fill="white"/>
</svg>
