<svg width="14" height="14" viewBox="0 0 14 14" fill="none" xmlns="http://www.w3.org/2000/svg">
	<path
		d="M3 0.512085C1.61929 0.512085 0.5 1.63137 0.5 3.01208V10.0121C0.5 11.3928 1.61929 12.5121 3 12.5121H4.75716C4.50353 12.205 4.28261 11.8699 4.09971 11.5121H3C2.17157 11.5121 1.5 10.8405 1.5 10.0121V3.01208C1.5 2.18366 2.17157 1.51208 3 1.51208H10C10.8284 1.51208 11.5 2.18366 11.5 3.01208V4.11179C11.8578 4.29469 12.1929 4.51562 12.5 4.76925V3.01208C12.5 1.63137 11.3807 0.512085 10 0.512085H3ZM9 13.5121C11.4853 13.5121 13.5 11.4974 13.5 9.01208C13.5 6.5268 11.4853 4.51208 9 4.51208C6.51472 4.51208 4.5 6.5268 4.5 9.01208C4.5 11.4974 6.51472 13.5121 9 13.5121ZM10.8536 7.15853C11.0488 7.35379 11.0488 7.67038 10.8536 7.86564L9.70711 9.01208L10.8536 10.1585C11.0488 10.3538 11.0488 10.6704 10.8536 10.8656C10.6583 11.0609 10.3417 11.0609 10.1464 10.8656L9 9.71919L7.85355 10.8656C7.65829 11.0609 7.34171 11.0609 7.14645 10.8656C6.95118 10.6704 6.95118 10.3538 7.14645 10.1585L8.29289 9.01208L7.14645 7.86564C6.95118 7.67038 6.95118 7.35379 7.14645 7.15853C7.34171 6.96327 7.65829 6.96327 7.85355 7.15853L9 8.30498L10.1464 7.15853C10.3417 6.96327 10.6583 6.96327 10.8536 7.15853Z"
		fill="currentColor">
	</path>
</svg>