<svg xmlns="http://www.w3.org/2000/svg" viewBox="0 0 40 40"><defs><style>.a{fill:#59b4d9;}.b{fill:#fff;}</style></defs><title>APIM_color</title><rect class="a" width="40" height="40"/><path class="b" d="M17.522,23.974H12.9a4.18,4.18,0,0,1-4.157-4.2v-.005a4.115,4.115,0,0,1,4.02-4.208H12.9c.416,0,.883.1,1.4.156l.883.26.26-.883a6.457,6.457,0,0,1,6.391-4.364,6.235,6.235,0,0,1,6.339,6.129q0,.1,0,.21a6.532,6.532,0,0,1-.26,1.715l-.364,1.3,1.4-.156h.26a1.88,1.88,0,0,1,.26,3.741H24.847a5.731,5.731,0,0,0-1.715-3.325,6.144,6.144,0,0,0-4.312-1.818,5.931,5.931,0,0,0-3.169.883l.987,1.559a4.4,4.4,0,0,1,2.286-.572,3.862,3.862,0,0,1,3.013,1.3,4.214,4.214,0,0,1,1.3,3.013,3.862,3.862,0,0,1-1.3,3.013,4.065,4.065,0,0,1-5.3.572l-.987,1.559a6.646,6.646,0,0,0,3.169.987,5.882,5.882,0,0,0,4.312-1.767,6.112,6.112,0,0,0,1.715-3.637h4.832a3.649,3.649,0,0,0,3.273-3.741,3.736,3.736,0,0,0-3.169-3.325,2.593,2.593,0,0,0,.1-.987,7.952,7.952,0,0,0-8.365-8.209h0a7.816,7.816,0,0,0-7.378,4.884c-.416,0-.727-.156-1.195-.156a5.872,5.872,0,0,0-.156,11.742h5.092Z"/><circle class="b" cx="18.717" cy="24.649" r="2.91"/></svg>