<svg xmlns="http://www.w3.org/2000/svg" viewBox="0 0 13 16"><defs><style>.a{fill:#333;}</style></defs><title>delete</title><path class="a" d="M12594,5203h-1v11.5a1.47,1.47,0,0,1-.12.59,1.49,1.49,0,0,1-.8.8,1.47,1.47,0,0,1-.59.12h-8a1.47,1.47,0,0,1-.59-0.12,1.49,1.49,0,0,1-.8-0.8,1.47,1.47,0,0,1-.12-0.59V5203h-1v-1h4v-1a1,1,0,0,1,.08-0.39,1,1,0,0,1,.53-0.53,1,1,0,0,1,.39-0.08h3a1,1,0,0,1,.39.08,1,1,0,0,1,.53.53,1,1,0,0,1,.08.39v1h4v1Zm-2,0h-9v11.5a0.51,0.51,0,0,0,.5.5h8a0.51,0.51,0,0,0,.5-0.5V5203Zm-6,10h-1v-8h1v8Zm0-11h3v-1h-3v1Zm2,11h-1v-8h1v8Zm2,0h-1v-8h1v8Z" transform="translate(-12581 -5200)"/></svg>