<svg width="100" height="100" viewBox="0 0 100 100" fill="none" xmlns="http://www.w3.org/2000/svg">
<g style="mix-blend-mode:luminosity" opacity="0.5">
<path d="M93.2773 19.0004H6.72179C6.22557 18.978 5.72981 19.0537 5.26288 19.2232C4.79595 19.3926 4.36703 19.6525 4.00065 19.9879C3.63427 20.3233 3.33764 20.7277 3.12773 21.1779C2.91782 21.6281 2.79875 22.1153 2.77734 22.6115V87.7226C2.79875 88.2189 2.91782 88.7061 3.12773 89.1563C3.33764 89.6065 3.63427 90.0108 4.00065 90.3462C4.36703 90.6817 4.79595 90.9415 5.26288 91.111C5.72981 91.2804 6.22557 91.3561 6.72179 91.3338H93.2773C93.7736 91.3561 94.2693 91.2804 94.7362 91.111C95.2032 90.9415 95.6321 90.6817 95.9985 90.3462C96.3649 90.0108 96.6615 89.6065 96.8714 89.1563C97.0813 88.7061 97.2004 88.2189 97.2218 87.7226V22.6115C97.2004 22.1153 97.0813 21.6281 96.8714 21.1779C96.6615 20.7277 96.3649 20.3233 95.9985 19.9879C95.6321 19.6525 95.2032 19.3926 94.7362 19.2232C94.2693 19.0537 93.7736 18.978 93.2773 19.0004V19.0004Z" fill="#605E5C"/>
<path d="M93.6111 19.0004H50V91.2227H93.7778C94.7355 91.2227 95.654 90.8422 96.3312 90.165C97.0084 89.4878 97.3889 88.5693 97.3889 87.6115V22.6115C97.3894 22.123 97.2908 21.6394 97.099 21.19C96.9072 20.7407 96.6262 20.3349 96.273 19.9973C95.9198 19.6597 95.5018 19.3973 95.0443 19.226C94.5867 19.0546 94.0992 18.9779 93.6111 19.0004V19.0004Z" fill="#605E5C"/>
<path d="M42.4449 8.66675H14.1115C13.615 8.68074 13.1426 8.88424 12.7914 9.23549C12.4402 9.58674 12.2367 10.0591 12.2227 10.5556V82.7779C12.2224 83.2841 12.4197 83.7704 12.7724 84.1335C13.1251 84.4966 13.6055 84.7078 14.1115 84.7223H42.4449C43.3765 84.6308 44.317 84.7302 45.209 85.0143C46.101 85.2984 46.9257 85.7614 47.6328 86.3749C48.3398 86.9884 48.9145 87.7396 49.3215 88.5825C49.7286 89.4255 49.9596 90.3426 50.0004 91.2779V16.2779C50.0005 14.2689 49.2062 12.3413 47.7909 10.9155C46.3755 9.48976 44.4538 8.68141 42.4449 8.66675V8.66675Z" fill="#F2F2F2"/>
<path d="M57.5556 8.66675H85.8889C86.3854 8.68074 86.8578 8.88424 87.209 9.23549C87.5603 9.58674 87.7638 10.0591 87.7778 10.5556V82.7779C87.778 83.2841 87.5808 83.7704 87.228 84.1335C86.8753 84.4966 86.3949 84.7078 85.8889 84.7223H57.5556C56.6239 84.6308 55.6834 84.7302 54.7914 85.0143C53.8995 85.2984 53.0748 85.7614 52.3677 86.3749C51.6606 86.9884 51.086 87.7396 50.6789 88.5825C50.2718 89.4255 50.0408 90.3426 50 91.2779V16.2779C49.9999 14.2689 50.7942 12.3413 52.2096 10.9155C53.6249 9.48976 55.5466 8.68141 57.5556 8.66675V8.66675Z" fill="url(#paint0_linear_821_301809)"/>
<path d="M41.6107 27.7779H20.6662C20.4398 27.7774 20.2217 27.8634 20.0565 28.0183C19.8914 28.1731 19.7915 28.3852 19.7773 28.6112V30.7223C19.7915 30.9483 19.8914 31.1604 20.0565 31.3152C20.2217 31.4701 20.4398 31.5561 20.6662 31.5556H41.6107C41.7201 31.5556 41.8285 31.5341 41.9296 31.4922C42.0307 31.4503 42.1225 31.3889 42.1999 31.3116C42.2773 31.2342 42.3387 31.1423 42.3806 31.0412C42.4225 30.9401 42.444 30.8317 42.444 30.7223V28.5001C42.4169 28.2988 42.3173 28.1144 42.1639 27.9814C42.0104 27.8484 41.8137 27.7761 41.6107 27.7779V27.7779Z" fill="#B3B3B3"/>
<path d="M41.6107 38.8891H20.6662C20.4398 38.8886 20.2217 38.9746 20.0565 39.1295C19.8914 39.2844 19.7915 39.4964 19.7773 39.7224V41.8335C19.7915 42.0595 19.8914 42.2716 20.0565 42.4265C20.2217 42.5813 20.4398 42.6673 20.6662 42.6669H41.6107C41.8317 42.6669 42.0437 42.5791 42.1999 42.4228C42.3562 42.2665 42.444 42.0545 42.444 41.8335V39.8891C42.469 39.7666 42.4662 39.6401 42.4357 39.5188C42.4052 39.3976 42.3478 39.2848 42.2677 39.1888C42.1877 39.0927 42.0871 39.0159 41.9734 38.9641C41.8596 38.9122 41.7357 38.8866 41.6107 38.8891V38.8891Z" fill="#B3B3B3"/>
<path d="M41.6107 16.2783H20.6662C20.4398 16.2779 20.2217 16.3639 20.0565 16.5187C19.8914 16.6736 19.7915 16.8857 19.7773 17.1117V19.2228C19.7915 19.4488 19.8914 19.6608 20.0565 19.8157C20.2217 19.9706 20.4398 20.0565 20.6662 20.0561H41.6107C41.8317 20.0561 42.0436 19.9683 42.1999 19.812C42.3562 19.6557 42.444 19.4438 42.444 19.2228V17.1117C42.444 16.8906 42.3562 16.6787 42.1999 16.5224C42.0436 16.3661 41.8317 16.2783 41.6107 16.2783V16.2783Z" fill="#B3B3B3"/>
<path d="M41.6107 50.4446H20.6662C20.4398 50.4441 20.2217 50.5301 20.0565 50.685C19.8914 50.8399 19.7915 51.0519 19.7773 51.2779V53.389C19.7915 53.615 19.8914 53.8271 20.0565 53.982C20.2217 54.1368 20.4398 54.2228 20.6662 54.2224H41.6107C41.8317 54.2224 42.0436 54.1346 42.1999 53.9783C42.3562 53.822 42.444 53.61 42.444 53.389V51.2779C42.444 51.0569 42.3562 50.8449 42.1999 50.6887C42.0436 50.5324 41.8317 50.4446 41.6107 50.4446V50.4446Z" fill="#B3B3B3"/>
<path d="M41.6107 61.833H20.6662C20.4398 61.8326 20.2217 61.9186 20.0565 62.0734C19.8914 62.2283 19.7915 62.4404 19.7773 62.6663V64.7774C19.7915 65.0034 19.8914 65.2155 20.0565 65.3704C20.2217 65.5252 20.4398 65.6112 20.6662 65.6108H41.6107C41.8317 65.6108 42.0436 65.523 42.1999 65.3667C42.3562 65.2104 42.444 64.9985 42.444 64.7774V62.6663C42.444 62.4453 42.3562 62.2334 42.1999 62.0771C42.0436 61.9208 41.8317 61.833 41.6107 61.833V61.833Z" fill="#B3B3B3"/>
<path d="M30.2773 73.2227H20.6662C20.4398 73.2222 20.2217 73.3082 20.0565 73.4631C19.8914 73.6179 19.7915 73.83 19.7773 74.056V76.1671C19.7915 76.3931 19.8914 76.6052 20.0565 76.76C20.2217 76.9149 20.4398 77.0009 20.6662 77.0004H30.2773C30.4984 77.0004 30.7103 76.9126 30.8666 76.7564C31.0229 76.6001 31.1107 76.3881 31.1107 76.1671V74.056C31.1107 73.835 31.0229 73.623 30.8666 73.4667C30.7103 73.3105 30.4984 73.2227 30.2773 73.2227V73.2227Z" fill="#B3B3B3"/>
</g>
<defs>
<linearGradient id="paint0_linear_821_301809" x1="50" y1="50.0001" x2="87.7778" y2="50.0001" gradientUnits="userSpaceOnUse">
<stop stop-color="#CCCCCC"/>
<stop offset="0.32" stop-color="#DFDFDF"/>
<stop offset="0.67" stop-color="#ECECEC"/>
<stop offset="1" stop-color="#F0F0F0"/>
</linearGradient>
</defs>
</svg>
