<?xml version="1.0" encoding="utf-8"?>
<svg version="1.1" id="Layer_1" xmlns="http://www.w3.org/2000/svg" xmlns:xlink="http://www.w3.org/1999/xlink" x="0px" y="0px"
	 width="20px" height="20px" viewBox="0 0 20 20" style="enable-background:new 0 0 20 20;" xml:space="preserve">
<style type="text/css">
	.st0{fill:#FFFFFF;}
</style>
<g>
	<rect x="11.73" y="6.25" class="st0" width="1.25" height="10"/>
	<path class="st0" d="M12.98,2.51V1.26c0-0.18-0.03-0.34-0.1-0.49c-0.06-0.15-0.16-0.28-0.27-0.4c-0.11-0.11-0.25-0.2-0.4-0.27
		c-0.15-0.06-0.31-0.1-0.49-0.1H7.98c-0.18,0-0.34,0.03-0.49,0.1C7.34,0.17,7.21,0.26,7.1,0.37s-0.2,0.25-0.27,0.4
		c-0.06,0.15-0.1,0.31-0.1,0.49v1.25h-5v1.25h1.25v14.37c0,0.26,0.05,0.51,0.15,0.73c0.1,0.23,0.23,0.43,0.4,0.59
		c0.17,0.17,0.37,0.3,0.6,0.4C4.35,19.95,4.6,20,4.86,20h10c0.26,0,0.5-0.05,0.73-0.15s0.43-0.23,0.6-0.4
		c0.17-0.17,0.3-0.37,0.4-0.59c0.1-0.23,0.15-0.47,0.15-0.73V3.76h1.25V2.51H12.98z M7.98,1.26h3.75v1.25H7.98V1.26z M15.48,18.13
		c0,0.17-0.06,0.32-0.19,0.44c-0.12,0.12-0.27,0.19-0.44,0.19h-10c-0.17,0-0.32-0.06-0.44-0.19c-0.12-0.12-0.19-0.27-0.19-0.44V3.76
		h11.25V18.13z"/>
	<rect x="9.23" y="6.25" class="st0" width="1.25" height="10"/>
	<rect x="6.73" y="6.25" class="st0" width="1.25" height="10"/>
</g>
</svg>
