<svg id="asc_logicapps" xmlns="http://www.w3.org/2000/svg" width="23" height="23" viewBox="0 0 23 23">
<defs>
    <style>
      .cls-1 {
        fill: #96c414;
      }

      .cls-2 {
        fill: #fff;
        fill-rule: evenodd;
      }
    </style>
  </defs>
  <rect class="cls-1" width="23" height="23" />
  <path class="cls-2" d="M48.359,450.788C45.052,450.423,44.5,449,44.5,449s-0.744,1.873-5.5,1.873v7.683a3.874,3.874,0,0,0,1.232,2.559A15.181,15.181,0,0,0,44.5,464s5.5-2.409,5.5-5.445v-7.682A14.87,14.87,0,0,1,48.359,450.788Zm-1.375,8.945a0.247,0.247,0,0,1-.247.247h-4.48a0.247,0.247,0,0,1-.247-0.247v-0.669h0v-2.223a0.247,0.247,0,0,1,.247-0.247h0.328V455.5a2.063,2.063,0,0,1,.55-1.411,1.847,1.847,0,0,1,2.725,0c0.012,0.013.023,0.028,0.035,0.041a2.061,2.061,0,0,1,.514,1.37v1.094h0.328a0.247,0.247,0,0,1,.247.247v2.892Zm-1.668-4.869a1.106,1.106,0,0,0-.12-0.155,0.94,0.94,0,0,0-1.4,0,1.153,1.153,0,0,0-.3.791v1.094H45.5v-1.1a1.174,1.174,0,0,0-.185-0.636h0Z" transform="translate(-33 -445)" />
</svg>
