<svg width="32" height="32" version="1.1" viewBox="0 0 8.4666665 8.4666669" xmlns="http://www.w3.org/2000/svg">
 <g transform="translate(0 -288.53)">
  <path d="m2.2252e-7 288.53h8.4667v8.4667h-8.4667z" fill="#444" style="paint-order:stroke fill markers"/>
  <g transform="translate(0 .00583)" fill="#fff">
   <path d="m5.3118 292.88-0.15652 0.15651 0.25367 0.25365h-1.7779v0.2202h1.7779l-0.25367 0.25365 0.15652 0.15651 0.5203-0.52026z"/>
   <path d="m3.1815 293.44 0.15652-0.15651-0.25367-0.25365h1.7779v-0.2202h-1.7779l0.25367-0.25365-0.15652-0.15651-0.5203 0.52026z"/>
  </g>
  <path transform="matrix(.26458 0 0 .26458 0 288.53)" d="m8.4629 8l-5.2637 5.2617v10.738h11.201v-4.4492h-1.5996v2.8496h-8v-8h4.7988v-4.8008h3.2012v5.9512h1.5996v-7.5508h-5.9375zm9.1367 0v7.5508h1.5996v-5.9512h3.2012v4.8008h4.7988v8h-8v-2.8496h-1.5996v4.4492h11.201v-10.738l-5.2637-5.2617h-5.9375zm-9.5996 2.7383v2.0625h-2.0625l2.0625-2.0625zm16 0l2.0625 2.0625h-2.0625v-2.0625z" fill="#fff"/>
 </g>
</svg>
