<svg width="32" height="32" viewBox="0 0 32 32" enable-background="new 0 0 32 32" version="1.1" xmlns="http://www.w3.org/2000/svg">
  <rect width="100%" height="100%" fill="#0072c6"/>
  <g class="currentLayer" transform="matrix(.32 0 0 .32 6.2559 6.3318)" fill="#fff">
    <polygon points="37.213 20.213 37.213 18.213 28.213 18.213 28.213 18.218 28.205 18.213 14.204 32.213 12.213 32.213 12.213 34.213 18.213 34.213 25.213 41.212 25.213 41.212 25.213 41.213 42.213 41.213 42.213 39.213 26.041 39.213 21.042 34.213 33.213 34.213 33.213 32.213 25.033 32.213 30.033 27.213 44.213 27.213 44.213 25.213 29.217 25.213 29.209 25.209 22.204 32.213 17.033 32.213 29.033 20.213"/>
    <circle cx="35.213" cy="32.739" r="2.9"/>
    <circle transform="matrix(.7071 -.7071 .7071 .7071 -.2338 27.435)" cx="34.34" cy="22.043" r="2.9"/>
    <circle transform="matrix(.7071 -.7071 .7071 .7071 -3.1333 34.435)" cx="39.665" cy="28.708" r="2.9"/>
    <circle transform="matrix(.71151 -.70266 .70266 .71151 -13.886 36.045)" cx="39.011" cy="44.383" r="2.9"/>
    <path d="m6.0143 5.2133c-0.501 0-0.801 0.3-0.801 0.8v10c0 0.5 0.3 0.8 0.801 0.8h5.008c0.501 0 0.801-0.3 0.801-0.8v-4.1h36.76v4.2c0 0.5 0.3 0.8 1.002 0.8h4.808c0.501 0 0.801-0.3 0.801-0.8v-10c0.1-0.6-0.2-0.9-0.701-0.9z"/>
    <path d="m54.887 55.213c0.5 0 0.8-0.3 0.8-0.8v-9.8c0-0.5-0.3-0.8-0.8-0.8h-4.8c-0.5 0-0.8 0.3-0.8 0.8v4h-36.9v-4.2c0-0.5-0.3-0.8-1-0.8h-4.9c-0.5 0-0.8 0.3-0.8 1v9.8c0 0.5 0.3 0.8 0.8 0.8z"/>
  </g>
</svg>
