<svg enable-background="new 0 0 32 32" viewBox="0 0 32 32" xmlns="http://www.w3.org/2000/svg"><style type="text/css">.st0{fill:#F1F1F1;} .st1{fill:#F38E00;} .st2{fill:#FFFFFF;} .st3{fill:#6C9B00;} .st4{fill:#4D4F4F;} .st5{fill:none;} .st6{fill:#FFFFFF;stroke:#FFFFFF;stroke-width:0.25;stroke-miterlimit:10;} .st7{fill:#0099BC;} .st8{fill:#742774;} .st9{opacity:0;fill:url(#SVGID_1_);} .st10{fill:#804998;} .st11{fill:#E81123;} .st12{opacity:0;fill:url(#SVGID_2_);} .st13{fill:#FAFAFA;} .st14{fill:#444444;} .st15{fill:#F9B23E;} .st16{fill:#DD5900;} .st17{fill:#3A99C6;} .st18{fill:#FAFAFA;stroke:#FAFAFA;stroke-miterlimit:10;}</style><path class="st10" d="M32 32h-32v-32h32z"/><path class="st2" d="M13.481 16.63v6.519h10.444v-.667h-9.778v-5.926m1.037-7.037h4.222v3.926h3.926v9.111h.667v-9.778l-4-3.926h-4.815zm4.815.222l2.963 2.963h-2.963zM9.852 19h2.593v2.593h-.593v-1.482l-.741.741c-.222.222-.444.37-.741.519-.296.074-.519.148-.815.148-.296 0-.593-.074-.815-.148-.296-.074-.519-.296-.741-.519l.519-.519c.148.148.296.222.519.296.148.074.37.074.593.074s.37 0 .593-.074c.148-.074.37-.148.519-.296l.741-.741h-1.407v-.593zM12.444 15.519h-.667v-.667h.667zm0-1.482h-.667v-5.185h.667zm-4.222 1.482v-6.667h.667v6.667zm2.444-1.482h-.741v-5.185h.667v5.185zm0 1.482h-.741v-.667h.667v.667zm-2.444-6.667h.667v6.667h-.667zm5.259 0h.667v6.667h-.667z" fill="#fff"/></svg>