<svg xmlns="http://www.w3.org/2000/svg" viewBox="0 0 32 32" enable-background="new 0 0 32 32"><style type="text/css" id="style2">.st0{fill:#F1F1F1;} .st1{fill:#F38E00;} .st2{fill:#FFFFFF;} .st3{fill:#6C9B00;} .st4{fill:#4D4F4F;} .st5{fill:none;} .st6{fill:#FFFFFF;stroke:#FFFFFF;stroke-width:0.25;stroke-miterlimit:10;} .st7{fill:#0099BC;} .st8{fill:#742774;} .st9{opacity:0;fill:url(#SVGID_1_);} .st10{fill:#804998;} .st11{fill:#E81123;} .st12{opacity:0;fill:url(#SVGID_2_);} .st13{fill:#FAFAFA;} .st14{fill:#444444;} .st15{fill:#F9B23E;} .st16{fill:#DD5900;} .st17{fill:#3A99C6;} .st18{fill:#FAFAFA;stroke:#FAFAFA;stroke-miterlimit:10;}</style><path class="st0" id="rect4" d="M0 0h32v32h-32z"/><g id="g12"><path id="polygon6" class="st14" fill="#444" d="M16.819 9.859v-.752h-7.269v11.697h.752v-10.945z"/><path id="polygon10" class="st14" fill="#444" d="M18.323 12.031h.668v-1.42h-7.937v11.614h7.937v-1.42h-.668v.668h-6.601v-10.193h6.601z"/></g><g id="g26"><path id="rect14" class="st15" fill="#f9b23e" d="M16.401 19.467h1.337v1.337h-1.337z"/><path id="rect16" class="st16" fill="#dd5900" d="M14.312 19.467h1.337v1.337h-1.337z"/><path id="rect18" class="st17" fill="#3a99c6" d="M14.312 17.379h1.337v1.337h-1.337z"/><path id="rect20" class="st10" fill="#804998" d="M12.307 19.467h1.337v1.337h-1.337z"/><path id="rect22" class="st16" fill="#dd5900" d="M12.307 17.379h1.337v1.337h-1.337z"/><path id="rect24" class="st10" fill="#804998" d="M12.307 15.373h1.337v1.337h-1.337z"/></g><g id="g32" transform="matrix(.836 0 0 .836 4.203 2.674)"><circle class="st18" cx="17.7" cy="16.4" r="3.9" id="circle28" fill="#fafafa" stroke="#fafafa" stroke-miterlimit="10"/><path class="st14" d="M25.4 23.5l-4.3-4.3c.6-.7 1-1.7 1-2.7 0-2.4-1.9-4.3-4.3-4.3s-4.3 1.9-4.3 4.3 1.9 4.3 4.3 4.3c1 0 2-.4 2.7-1l4.3 4.3c.1.1.2.1.3.1.1 0 .2 0 .3-.1.2-.1.2-.4 0-.6zm-11.1-7.1c0-1.9 1.6-3.5 3.5-3.5s3.5 1.6 3.5 3.5-1.6 3.5-3.5 3.5c-2 0-3.5-1.5-3.5-3.5z" id="path30" fill="#444"/></g></svg>