<svg version="1.1" viewBox="0 0 32 32" xmlns="http://www.w3.org/2000/svg">
 <path d="m0 0h32v32h-32z" fill="#444"/>
 <g fill="#fff">
  <path d="M13.864 14.556l.334.334-1.265 1.265 1.265 1.265-.334.347-1.605-1.598zm.876 4.468l1.904-5.726h.5l-1.89 5.732h-.507zm3.294-4.468l1.605 1.598-1.605 1.612-.334-.334 1.265-1.265-1.265-1.265z" stroke="#fff" stroke-miterlimit="10" stroke-width=".17375"/>
  <path d="M17.852 22.199h-8.157v-12.507h12.507v8.866l.695-.764v-8.797h-13.897v13.897h9.617z"/>
  <path d="M18.13 20.636l.403-.396 1.848 1.848 4.1-4.1.396.396-4.496 4.496z" stroke="#fff" stroke-miterlimit="10" stroke-width=".17375"/>
 </g>
</svg>
