<svg width="20" height="40" enable-background="new 0 0 13 30" version="1.1" viewBox="0 0 20 40" xmlns="http://www.w3.org/2000/svg">
 <style type="text/css">.st0{fill:none;stroke:#5B5B5C;stroke-width:2;stroke-miterlimit:10;}
	.st1{fill:#5B5B5C;}</style>
 <path d="m1.6652 28.335c2.7777 2.7777 5.5554 5.5554 8.3332 8.3332 2.7785-2.7777 5.557-5.5554 8.3355-8.3332 0.55547 0.55547 1.1109 1.1109 1.6664 1.6664-3.334 3.3332-6.668 6.6664-10.002 9.9996-3.3328-3.3332-6.6656-6.6664-9.9984-9.9996 0.55507-0.55547 1.1101-1.1109 1.6652-1.6664z" fill="#a80000" stroke-width="1.1785"/>
 <path d="m9 0v4h2v-4h-2zm0 6v4h2v-4h-2zm0 6v4h2v-4h-2zm0 6v4h2v-4h-2zm0 6v4h2v-4h-2zm0 6v4h2v-4h-2z" fill="#a80000" style="font-feature-settings:normal;font-variant-alternates:normal;font-variant-caps:normal;font-variant-ligatures:normal;font-variant-numeric:normal;font-variant-position:normal;isolation:auto;mix-blend-mode:normal;paint-order:normal;shape-padding:0;text-decoration-color:#000000;text-decoration-line:none;text-decoration-style:solid;text-indent:0;text-orientation:mixed;text-transform:none;white-space:normal"/>
</svg>
