<svg xmlns="http://www.w3.org/2000/svg" viewBox="0 0 16 16"><defs><style>.a{fill:#333;}</style></defs><title>EditPencil</title><path class="a" d="M12613,4298.62a2.66,2.66,0,0,1-.2,1,2.56,2.56,0,0,1-.57.86l-10.29,10.29L12597,4312l1.23-4.95,10.29-10.29a2.56,2.56,0,0,1,.86-0.57,2.66,2.66,0,0,1,1-.2,2.53,2.53,0,0,1,1,.21,2.65,2.65,0,0,1,1.39,1.39A2.53,2.53,0,0,1,12613,4298.62Zm-14.62,12,2.57-.64a2.52,2.52,0,0,0-1.93-1.93Zm1.17-3.47a3.56,3.56,0,0,1,2.3,2.3l8.45-8.45-2.29-2.29Zm11.45-6.87,0.38-.37a2.75,2.75,0,0,0,.32-0.36,1.67,1.67,0,0,0,.22-0.41,1.5,1.5,0,0,0,.08-0.52,1.55,1.55,0,0,0-.13-0.63,1.68,1.68,0,0,0-.87-0.87,1.55,1.55,0,0,0-.63-0.13,1.5,1.5,0,0,0-.52.08,1.67,1.67,0,0,0-.41.22,2.75,2.75,0,0,0-.36.32l-0.37.38Z" transform="translate(-12597 -4296)"/></svg>