<svg xmlns="http://www.w3.org/2000/svg" width="16" height="16" viewBox="0 0 16 16" fill="#D13438">
	<path d="M 16 8C16 10.1217 15.1571 12.1566 13.6569 13.6569C12.1566 15.1571 10.1217 16 8 16C5.87827 16 3.84344 15.1571 2.34315 13.6569C0.842855 12.1566 0 10.1217 0 8C0 5.87827 0.842855 3.84344 2.34315 2.34315C3.84344 0.842855 5.87827 0 8 0C10.1217 0 12.1566 0.842855 13.6569 2.34315C15.1571 3.84344 16 5.87827 16 8 ZM 11.33 5.93C11.46 5.75668 11.5231 5.5423 11.5077 5.3262C11.4924 5.1101 11.3996 4.90679 11.2464 4.7536C11.0932 4.60041 10.8899 4.50762 10.6738 4.49226C10.4577 4.4769 10.2433 4.54001 10.07 4.67L8 6.722L5.93 4.67C5.75668 4.54001 5.5423 4.4769 5.3262 4.49226C5.1101 4.50762 4.90679 4.60041 4.7536 4.7536C4.60041 4.90679 4.50762 5.1101 4.49226 5.3262C4.4769 5.5423 4.54001 5.75668 4.67 5.93L6.722 8L4.67 10.07C4.56684 10.1474 4.48152 10.246 4.4198 10.3592C4.35807 10.4724 4.3214 10.5976 4.31226 10.7262C4.30312 10.8548 4.32173 10.9839 4.36681 11.1047C4.4119 11.2255 4.48242 11.3352 4.5736 11.4264C4.66478 11.5176 4.77448 11.5881 4.89529 11.6332C5.01609 11.6783 5.14518 11.6969 5.2738 11.6877C5.40242 11.6786 5.52757 11.6419 5.64079 11.5802C5.754 11.5185 5.85263 11.4332 5.93 11.33L8 9.278L10.07 11.33C10.2433 11.46 10.4577 11.5231 10.6738 11.5077C10.8899 11.4924 11.0932 11.3996 11.2464 11.2464C11.3996 11.0932 11.4924 10.8899 11.5077 10.6738C11.5231 10.4577 11.46 10.2433 11.33 10.07L9.278 8L11.33 5.93 Z" />
</svg>