<svg width="100" height="100" viewBox="0 0 100 100" fill="none" xmlns="http://www.w3.org/2000/svg">
<circle cx="50" cy="50" r="50" fill="#BFBFBF"/>
<rect x="25" y="25" width="50" height="50" fill="white"/>
<path fill-rule="evenodd" clip-rule="evenodd" d="M84 68C84 76.8366 76.8366 84 68 84C59.1634 84 52 76.8366 52 68C52 59.1634 59.1634 52 68 52C76.8366 52 84 59.1634 84 68ZM68 82C75.732 82 82 75.732 82 68C82 60.268 75.732 54 68 54C60.268 54 54 60.268 54 68C54 75.732 60.268 82 68 82Z" fill="#BFBFBF"/>
<circle cx="68" cy="68" r="14" fill="white"/>
<path d="M68 63V73" stroke="#BFBFBF" stroke-width="2" stroke-linecap="round" stroke-linejoin="round"/>
<path d="M73 68L63 68" stroke="#BFBFBF" stroke-width="2" stroke-linecap="round" stroke-linejoin="round"/>
</svg>
