<svg enable-background="new 0 0 32 32" version="1.1" viewBox="0 0 32 32" xmlns="http://www.w3.org/2000/svg">
 <path d="m0 0h32v32h-32z" fill="#1f85ff"/>
 <path d="M20.945 8.442c.402 0 .804.08 1.206.241.402.161.724.402.965.643s.482.643.643.965c.161.322.241.804.241 1.206 0 .241 0 .482-.08.804-.08.322-.161.482-.241.724-.08.241-.241.402-.402.643-.161.241-.402.322-.563.482.161.402.241.724.322 1.126.08.402.08.804.08 1.126 0 .884-.161 1.688-.482 2.492-.322.804-.724 1.528-1.286 2.171l1.608 1.608-.724.724-1.608-1.608c-.643.563-1.367.965-2.171 1.286-.804.322-1.608.482-2.492.482-.884 0-1.688-.161-2.492-.482-.804-.322-1.528-.724-2.171-1.286l-1.608 1.608-.724-.724 1.608-1.608c-.563-.643-.965-1.367-1.286-2.171-.322-.804-.482-1.608-.482-2.492 0-.402 0-.804.08-1.126.08-.322.161-.724.322-1.126-.241-.161-.402-.322-.563-.482-.161-.161-.322-.402-.402-.643-.08-.241-.241-.482-.241-.724v-.724c0-.402.08-.804.241-1.206.161-.402.402-.724.643-.965s.643-.482.965-.643c.322-.161.804-.241 1.206-.241.241 0 .482 0 .724.08l.724.241c.241.08.402.241.643.402.241.161.322.402.482.563.402-.161.724-.241 1.126-.322.402-.08.804-.08 1.126-.08.322 0 .804 0 1.126.08.322.08.724.161 1.126.322.161-.241.322-.402.482-.563.161-.161.402-.322.643-.402.241-.08.482-.241.724-.241l.965-.161zm-9.809 1.045c-.322 0-.563.08-.804.161-.241.08-.482.241-.724.482-.241.241-.322.402-.402.643-.08.241-.161.563-.161.804 0 .322.08.643.241.884.161.241.322.563.563.724.322-.643.724-1.206 1.286-1.769.563-.563 1.126-.965 1.769-1.286-.161-.241-.482-.482-.724-.563-.241-.08-.724-.08-1.045-.08zm4.905 13.025c.804 0 1.608-.161 2.332-.482.724-.322 1.367-.724 1.93-1.286.563-.563.965-1.206 1.286-1.93.322-.724.482-1.528.482-2.332 0-.804-.161-1.608-.482-2.332-.322-.724-.724-1.367-1.286-1.93-.563-.563-1.206-.965-1.93-1.286-.724-.322-1.528-.482-2.332-.482-.804 0-1.608.161-2.332.482-.724.322-1.367.724-1.93 1.286-.563.563-.965 1.206-1.286 1.93-.322.724-.482 1.528-.482 2.332 0 .804.161 1.608.482 2.332.322.724.724 1.367 1.286 1.93.563.563 1.206.965 1.93 1.286.724.322 1.528.482 2.332.482zm3.055-6.03v.965h-4.02v-4.985h.965v4.02zm3.216-3.216c.241-.161.482-.482.563-.724.08-.241.241-.563.241-.884 0-.322-.08-.563-.161-.804-.08-.241-.322-.563-.482-.724-.161-.161-.402-.322-.643-.482-.241-.161-.563-.161-.804-.161-.322 0-.643.08-.884.241-.241.161-.643.241-.884.563.643.322 1.206.724 1.769 1.286.563.563.884 1.045 1.286 1.688z" fill="#fff"/>
</svg>
