<!-- Please let the Flow team know if this changes. It needs to also be changed in the PowerApps-Portal for DLP Policies (/src/Portal/Content/Images/Connections/http-webhook-connector-icon.svg) -->
<svg width="32" height="32" version="1.1" viewBox="0 0 32 32" xmlns="http://www.w3.org/2000/svg">
 <path fill="#709727" d="m0 0h32v32h-32z"/>
 <g fill="#fff">
  <path d="M20.128 21.187c.877 0 1.607-.731 1.607-1.607 0-.877-.731-1.607-1.607-1.607-.658 0-1.242.365-1.461.95h-4.164v.658c0 1.461-1.169 2.557-2.557 2.557-1.461 0-2.557-1.169-2.557-2.557 0-1.242.804-2.265 1.973-2.484l-.292-1.315c-1.826.365-3.068 1.973-3.068 3.799 0 2.192 1.753 3.945 3.945 3.945 1.9 0 3.507-1.388 3.872-3.215h2.922c.219.511.731.877 1.388.877z"/>
  <path d="M10.265 19.58c0 .877.731 1.607 1.607 1.607.877 0 1.607-.731 1.607-1.607 0-.365-.146-.658-.292-.95l2.119-3.726-1.169-.658c-.511-.511-.804-1.169-.804-1.826 0-1.461 1.169-2.557 2.557-2.557 1.461 0 2.557 1.169 2.557 2.557 0 .219 0 .438-.073.658l1.315.365c.073-.292.146-.658.146-1.023 0-2.192-1.753-3.945-3.945-3.945s-3.945 1.753-3.945 3.945c0 1.169.511 2.265 1.388 2.995l-1.461 2.557h-.146c-.731 0-1.461.731-1.461 1.607z"/>
  <path d="M20.128 15.635c-.438 0-.95.073-1.388.219l-1.461-2.557c.219-.292.292-.584.292-.95 0-.877-.731-1.607-1.607-1.607-.877 0-1.607.731-1.607 1.607 0 .877.731 1.607 1.607 1.607h.146l2.119 3.726 1.169-.658c.219-.073.438-.073.658-.073 1.461 0 2.557 1.169 2.557 2.557 0 1.461-1.169 2.557-2.557 2.557-.658 0-1.315-.292-1.826-.731l-.95.95c.731.731 1.753 1.169 2.776 1.169 2.192 0 3.945-1.753 3.945-3.945s-1.68-3.872-3.872-3.872z"/>
 </g>
-</svg>
