<svg xmlns="http://www.w3.org/2000/svg" viewBox="0 0 11 11">
    <defs>
        <style>
        .a {
            fill: #919191;
        }
        </style>
    </defs>
    <title>InfoTiny</title>
    <path class="a" d="M12105.5,5893a5.45,5.45,0,0,1-1.46-.19,5.49,5.49,0,0,1-3.84-3.84,5.6,5.6,0,0,1,0-2.93,5.49,5.49,0,0,1,3.84-3.84,5.6,5.6,0,0,1,2.93,0,5.49,5.49,0,0,1,3.84,3.84,5.6,5.6,0,0,1,0,2.93,5.49,5.49,0,0,1-3.84,3.84A5.45,5.45,0,0,1,12105.5,5893Zm0-10.27a4.63,4.63,0,0,0-1.27.17,4.88,4.88,0,0,0-1.14.48,4.77,4.77,0,0,0-1.71,1.71,4.87,4.87,0,0,0-.48,1.14,4.73,4.73,0,0,0,0,2.53,4.87,4.87,0,0,0,.48,1.14,4.77,4.77,0,0,0,1.71,1.71,4.88,4.88,0,0,0,1.14.48,4.74,4.74,0,0,0,2.53,0,4.87,4.87,0,0,0,1.14-.48,4.77,4.77,0,0,0,1.71-1.71,4.88,4.88,0,0,0,.48-1.14,4.74,4.74,0,0,0,0-2.53,4.87,4.87,0,0,0-.48-1.14,4.77,4.77,0,0,0-1.71-1.71,4.87,4.87,0,0,0-1.14-.48A4.64,4.64,0,0,0,12105.5,5882.73Zm-0.5,2.27h1v0.8h-1V5885Zm0,2h1v3h-1v-3Z" transform="translate(-12100 -5882)" />
</svg>
