<?xml version="1.0"?>
<svg width="10.999999999999998" height="10.999999999999998" xmlns="http://www.w3.org/2000/svg" xmlns:svg="http://www.w3.org/2000/svg">
 <defs>
  <style>.a {
            fill: #919191;
        }</style>
 </defs>
 <title>Information</title>
 <g>
  <title>Layer 1</title>
  <path id="svg_1" d="m5.5,11a5.45,5.45 0 0 1 -1.46,-0.19a5.49,5.49 0 0 1 -3.84,-3.84a5.6,5.6 0 0 1 0,-2.93a5.49,5.49 0 0 1 3.84,-3.84a5.6,5.6 0 0 1 2.93,0a5.49,5.49 0 0 1 3.84,3.84a5.6,5.6 0 0 1 0,2.93a5.49,5.49 0 0 1 -3.84,3.84a5.45,5.45 0 0 1 -1.47,0.19zm0,-10.27a4.63,4.63 0 0 0 -1.27,0.17a4.88,4.88 0 0 0 -1.14,0.48a4.77,4.77 0 0 0 -1.71,1.71a4.87,4.87 0 0 0 -0.48,1.14a4.73,4.73 0 0 0 0,2.53a4.87,4.87 0 0 0 0.48,1.14a4.77,4.77 0 0 0 1.71,1.71a4.88,4.88 0 0 0 1.14,0.48a4.74,4.74 0 0 0 2.53,0a4.87,4.87 0 0 0 1.14,-0.48a4.77,4.77 0 0 0 1.71,-1.71a4.88,4.88 0 0 0 0.48,-1.14a4.74,4.74 0 0 0 0,-2.53a4.87,4.87 0 0 0 -0.48,-1.14a4.77,4.77 0 0 0 -1.71,-1.71a4.87,4.87 0 0 0 -1.14,-0.48a4.64,4.64 0 0 0 -1.26,-0.17zm-0.5,2.27l1,0l0,0.8l-1,0l0,-0.8zm0,2l1,0l0,3l-1,0l0,-3z" class="a"/>
 </g>
</svg>