<?xml version="1.0" encoding="utf-8"?>
<!-- Generator: Adobe Illustrator 21.0.0, SVG Export Plug-In . SVG Version: 6.00 Build 0)  -->
<svg version="1.1" id="Layer_1" xmlns="http://www.w3.org/2000/svg" xmlns:xlink="http://www.w3.org/1999/xlink" x="0px" y="0px"
	 width="32px" height="32px" viewBox="0 0 32 32" enable-background="new 0 0 32 32" xml:space="preserve">
<g>
	<path fill="#1F2327" d="M32,22V10H0v12H32z M30.001,20H1.999v-8.001h28V20H30.001z"/>
	<polygon fill="#1F2327" points="6,16 4.999,16 4.999,18 9,18 9,16 7.999,16 7.999,14 6,14 	"/>
	<polygon fill="#1F2327" points="12,16 10.999,16 10.999,18 15,18 15,16 14,16 14,14 12,14 	"/>
	<polygon fill="#1F2327" points="18,16 17,16 17,18 21.001,18 21.001,16 20,16 20,14 18,14 	"/>
	<polygon fill="#1F2327" points="24.001,16 23,16 23,18 27.001,18 27.001,16 26,16 26,14 24.001,14 	"/>
</g>
</svg>
