<svg width="16" height="16" viewBox="0 0 16 16" fill="none"
	xmlns="http://www.w3.org/2000/svg">
	<path d="M8 0C10.1211 0.000209139 12.1552 0.842832 13.6553 2.34257C15.1555 3.84273 16 5.87828 16 8C15.9998 10.1215 15.1555 12.1552 13.6553 13.6553C12.1552 15.1555 10.1215 15.9998 8 16C5.87828 16 3.84273 15.1555 2.34257 13.6553C0.842832 12.1552 0.000209139 10.1211 0 8C0 5.87828 0.842413 3.84273 2.34257 2.34257C3.84273 0.842413 5.87828 0 8 0ZM8.02447 3.64572C7.81156 3.66099 7.61184 3.75405 7.46084 3.90505C7.30942 4.05626 7.21656 4.25724 7.2015 4.47077C7.18645 4.68389 7.24877 4.89616 7.37697 5.06724L9.40312 7.11158H4.44421C4.20851 7.11158 3.9818 7.20422 3.81512 7.37091C3.64864 7.53759 3.55579 7.7643 3.55579 8C3.55579 8.23549 3.64864 8.46241 3.81512 8.62909C3.9818 8.79557 4.20851 8.88842 4.44421 8.88842H9.42152L7.37697 10.9328C7.24877 11.104 7.18624 11.3159 7.2015 11.5292C7.21656 11.7425 7.30963 11.9437 7.46084 12.0949C7.61184 12.2457 7.81177 12.3369 8.02447 12.3522C8.23779 12.3675 8.44986 12.3049 8.62093 12.1767L12.1767 8.62093C12.3438 8.45697 12.4407 8.23424 12.4442 8C12.4409 7.76555 12.344 7.54115 12.1767 7.37697L8.62093 3.82119C8.44986 3.6934 8.23758 3.63045 8.02447 3.64572Z" fill="#3352B9"/>
</svg>
