<svg fill="#13A10E" xmlns="http://www.w3.org/2000/svg" width="24" height="24" viewBox="0 0 24 24">
	<path d="M17.55 10.05L11.55 16.05C11.269 16.3294 10.8888 16.4862 10.4925 16.4862C10.0962 16.4862 9.71605 16.3294 9.435 16.05L6.435 13.05C6.27901 12.9144 6.15273 12.748 6.06408 12.5613C5.97543 12.3746 5.92633 12.1716 5.91985 11.965C5.91337 11.7584 5.94966 11.5527 6.02643 11.3608C6.10321 11.1689 6.21882 10.9949 6.366 10.8498C6.51319 10.7047 6.68878 10.5916 6.88175 10.5175C7.07472 10.4435 7.28092 10.4101 7.48739 10.4195C7.69387 10.4289 7.89617 10.4809 8.08161 10.5722C8.26705 10.6635 8.43163 10.7921 8.565 10.95L10.5 12.87L15.45 7.92C15.7387 7.67615 16.1087 7.55024 16.4862 7.56744C16.8637 7.58464 17.2208 7.74369 17.4861 8.01278C17.7514 8.28187 17.9054 8.64117 17.9172 9.01887C17.9291 9.39656 17.7979 9.76481 17.55 10.05Z" />
</svg>