<svg width="24" height="24" viewBox="0 0 24 24" fill="none"
	xmlns="http://www.w3.org/2000/svg">
	<g clip-path="url(#clip0_133_2)">
		<path d="M12 0C15.1825 0 18.2349 1.26423 20.4854 3.51465C22.7357 5.76508 24 8.8174 24 12C24 15.1825 22.7357 18.2349 20.4854 20.4854C18.2349 22.7357 15.1825 24 12 24C8.8174 24 5.76508 22.7357 3.51465 20.4854C1.26423 18.2349 0 15.1825 0 12C0 8.8174 1.26421 5.76508 3.51465 3.51465C5.76508 1.26421 8.8174 0 12 0ZM6.15918 11C5.83748 11.046 5.54299 11.2067 5.33008 11.4521C5.11716 11.6976 5 12.0119 5 12.3369C5.00011 12.6617 5.11726 12.9753 5.33008 13.2207C5.54299 13.4662 5.83747 13.6269 6.15918 13.6729H17.6143C17.9358 13.6269 18.2296 13.4661 18.4424 13.2207C18.6553 12.9754 18.7723 12.6617 18.7725 12.3369C18.7725 12.0119 18.6554 11.6976 18.4424 11.4521C18.2296 11.2067 17.9358 11.046 17.6143 11H6.15918Z" fill="#808080"/>
	</g>
</svg>
