<svg xmlns="http://www.w3.org/2000/svg" width="16" height="16" viewBox="0 0 16 16" fill="#D13438">
	<path d="M 16 8C16 10.1217 15.1571 12.1566 13.6569 13.6569C12.1566 15.1571 10.1217 16 8 16C5.87827 16 3.84344 15.1571 2.34315 13.6569C0.842855 12.1566 0 10.1217 0 8C0 5.87827 0.842855 3.84344 2.34315 2.34315C3.84344 0.842855 5.87827 0 8 0C10.1217 0 12.1566 0.842855 13.6569 2.34315C15.1571 3.84344 16 5.87827 16 8 Z M 8 3.55555C7.76425 3.55555 7.53816 3.64921 7.37146 3.8159C7.20476 3.9826 7.11111 4.2087 7.11111 4.44444V8C7.11111 8.23575 7.20476 8.46184 7.37146 8.62854C7.53816 8.79524 7.76425 8.88889 8 8.88889C8.23575 8.88889 8.46184 8.79524 8.62854 8.62854C8.79524 8.46184 8.88889 8.23575 8.88889 8V4.44444C8.88889 4.2087 8.79524 3.9826 8.62854 3.8159C8.46184 3.64921 8.23575 3.55555 8 3.55555 Z M 8 12.6756C8.29468 12.6756 8.5773 12.5585 8.78567 12.3501C8.99405 12.1417 9.11111 11.8591 9.11111 11.5644C9.11111 11.2698 8.99405 10.9871 8.78567 10.7788C8.5773 10.5704 8.29468 10.4533 8 10.4533C7.70767 10.4533 7.42732 10.5695 7.22061 10.7762C7.01391 10.9829 6.89778 11.2632 6.89778 11.5556C6.89778 11.8479 7.01391 12.1282 7.22061 12.3349C7.42732 12.5417 7.70767 12.6578 8 12.6578V12.6756 Z"/>
</svg>