<svg fill="#F89F00" xmlns="http://www.w3.org/2000/svg" width="16" height="16" viewBox="0 0 16 16">
<path d="M16 8C16 10.1217 15.1571 12.1566 13.6569 13.6569C12.1566 15.1571 10.1217 16 8 16C5.87827 16 3.84344 15.1571 2.34315 13.6569C0.842855 12.1566 0 10.1217 0 8C0 5.87827 0.842855 3.84344 2.34315 2.34315C3.84344 0.842855 5.87827 0 8 0C10.1217 0 12.1566 0.842855 13.6569 2.34315C15.1571 3.84344 16 5.87827 16 8ZM8 3.55556C7.76425 3.55556 7.53816 3.64921 7.37146 3.8159C7.20476 3.9826 7.11111 4.2087 7.11111 4.44444V8C7.11111 8.49778 7.50222 8.88889 8 8.88889H10.6667C10.9024 8.88889 11.1285 8.79524 11.2952 8.62854C11.4619 8.46184 11.5556 8.23575 11.5556 8C11.5556 7.76425 11.4619 7.53816 11.2952 7.37146C11.1285 7.20476 10.9024 7.11111 10.6667 7.11111H8.88889V4.44444C8.88889 4.2087 8.79524 3.9826 8.62854 3.8159C8.46184 3.64921 8.23575 3.55556 8 3.55556Z"/>
</svg>