<svg width="32" height="32" version="1.1" viewBox="0 0 32 32" xmlns="http://www.w3.org/2000/svg">
 <path d="m0 0h32v32h-32z" fill="#8C3900"/>
  <path d="m23.922 19.164-0.96875 0.39844q0.09375 0.48438 0 0.95312l0.96875 0.39844-0.38281 0.92969-0.96875-0.40625q-0.13281 0.19531-0.30469 0.36719-0.16406 0.17188-0.36719 0.30469l0.40625 0.96875-0.92969 0.38281-0.39844-0.96875q-0.23438 0.04687-0.47656 0.04687-0.24219 0-0.47656-0.04687l-0.39844 0.96875-0.92969-0.38281 0.40625-0.96875q-0.39844-0.27344-0.67188-0.67188l-0.96875 0.40625-0.38281-0.92969 0.96875-0.39844q-0.09375-0.47656 0-0.95312l-0.96875-0.39844 0.38281-0.92969 0.96875 0.40625q0.27344-0.39844 0.67188-0.67188l-0.40625-0.96875 0.92969-0.38281 0.39844 0.96875q0.48438-0.09375 0.95312 0l0.39844-0.96875 0.92969 0.38281-0.40625 0.96875q0.19531 0.13281 0.36719 0.30469 0.17188 0.16406 0.30469 0.36719l0.96875-0.40625zm-2.8516 2.2578q0.28906-0.11719 0.49219-0.32812 0.21094-0.21875 0.32031-0.48438t0.10938-0.5625q0.007813-0.29688-0.10938-0.57812-0.10938-0.28125-0.32031-0.49219-0.21094-0.21094-0.49219-0.32031-0.27344-0.11719-0.57031-0.11719-0.30469 0-0.57031 0.11719-0.28125 0.10938-0.49219 0.32031-0.21094 0.21094-0.32031 0.49219-0.24219 0.57031 0 1.1406 0.10938 0.28125 0.32031 0.49219 0.21094 0.21094 0.49219 0.32031 0.57031 0.24219 1.1406 0zm2.9297-12.883v7h-1v-3h-14v8h7v1h-8v-13zm-1 3v-2h-14v2zm-8 7v-1.0938q-0.24219-0.08594-0.46875-0.26562l-0.94531 0.53906-0.5-0.85938 0.9375-0.54688q-0.023438-0.125-0.023438-0.27344 0-0.14062 0.02344-0.27344l-0.9375-0.54688 0.5-0.85938 0.94531 0.53906q0.22656-0.17969 0.46875-0.26562v-1.0938h1v1.0938q0.13281 0.04687 0.24219 0.11719 0.11719 0.0625 0.22656 0.14844l0.94531-0.53906 0.5 0.85938-0.9375 0.54688q0.023438 0.13281 0.023438 0.27344 0 0.14844-0.023438 0.27344l0.9375 0.54688-0.5 0.85938-0.94531-0.53906q-0.10938 0.08594-0.22656 0.15625-0.10938 0.0625-0.24219 0.10938v1.0938zm-0.25-2.5q0 0.3125 0.21875 0.53125t0.53125 0.21875 0.53125-0.21875 0.21875-0.53125q0-0.3125-0.21875-0.53125t-0.53125-0.21875-0.53125 0.21875-0.21875 0.53125z" fill="#fff" stroke-width=".4"/>
</svg>
