<svg width="32" height="32" enable-background="new 0 0 64 64" version="1.1" viewBox="0 0 32 32" xmlns="http://www.w3.org/2000/svg">
 <path d="m0 0h32v32h-32z" fill="#3999c6"/>
 <g fill="#fff">
  <path d="M23.899 16.257c.16-.16.107-.4 0-.534l-.721-.721-3.229-3.149c-.16-.16-.347-.16-.507 0-.16.16-.187.4 0 .534l3.389 3.309c.16.16.16.4 0 .534l-3.442 3.442c-.16.16-.16.4 0 .534.16.16.4.107.507 0l3.202-3.176.027-.027z"/>
  <path d="M8.101 16.257c-.16-.16-.107-.4 0-.534l.721-.721 3.229-3.149c.16-.16.347-.16.507 0 .16.16.187.4 0 .534l-3.336 3.336c-.16.16-.16.4 0 .534l3.389 3.442c.16.16.16.4 0 .534-.16.16-.4.107-.507 0l-3.256-3.149-.027-.027z"/>
  <path d="m15.626 16.203l-2.348 6.832 6.458-9.126h-3.149l3.069-4.643h-4.563l-2.455 6.912z"/>
 </g>
</svg>
