<svg width="110" height="110" viewBox="0 0 110 110" fill="none" xmlns="http://www.w3.org/2000/svg">
<path fill-rule="evenodd" clip-rule="evenodd" d="M0 3C0 1.34315 1.34315 0 3 0H107C108.657 0 110 1.34315 110 3V107C110 108.657 108.657 110 107 110H3C1.34315 110 0 108.657 0 107V3Z" fill="#27AE60"/>
<path d="M0.0798857 16.8417C0.643383 20.855 10.1759 38.8194 14.8717 47.3C19.4501 38.8194 28.8887 20.855 30.0157 16.8417C31.4244 11.825 26.4938 0 14.8717 0C3.24956 0 -0.624486 11.825 0.0798857 16.8417Z" transform="translate(40.15 29.1499)" fill="white"/>
<path d="M12.925 55.47C14.4283 55.89 15.9867 56.1 17.6 56.1C19.2133 56.1 20.7717 55.89 22.275 55.47C23.7783 55.0499 25.1808 54.461 26.4825 53.7031C27.7842 52.9453 28.9712 52.0322 30.0437 50.9639C31.1162 49.8956 32.0329 48.7131 32.7937 47.4165C33.5546 46.12 34.1458 44.7229 34.5675 43.2255C34.9892 41.728 35.2 40.1758 35.2 38.5687C35.2 37.3087 35.0487 36.108 34.7462 34.9666C34.4437 33.8253 34.0083 32.6885 33.44 31.5562L17.6 0L1.76 31.5562C1.19167 32.6885 0.75625 33.8253 0.45375 34.9666C0.15125 36.108 0 37.3087 0 38.5687C0 40.1758 0.210833 41.728 0.6325 43.2255C1.05417 44.7229 1.64542 46.12 2.40625 47.4165C3.16708 48.7131 4.08375 49.8956 5.15625 50.9639C6.22875 52.0322 7.41583 52.9453 8.7175 53.7031C10.0192 54.461 11.4217 55.0499 12.925 55.47ZM17.6 6.84814L30.69 32.9259C30.69 32.9441 30.6946 32.9533 30.7037 32.9533C30.7129 32.9533 30.7175 32.9624 30.7175 32.9807C31.1758 33.839 31.5242 34.7429 31.7625 35.6925C32.0008 36.6421 32.12 37.6009 32.12 38.5687C32.12 40.5593 31.7396 42.4311 30.9787 44.1842C30.2179 45.9373 29.1775 47.4713 27.8575 48.7862C26.5375 50.101 24.9975 51.1374 23.2375 51.8952C21.4775 52.6531 19.5983 53.032 17.6 53.032C15.6017 53.032 13.7225 52.6531 11.9625 51.8952C10.2025 51.1374 8.6625 50.101 7.3425 48.7862C6.0225 47.4713 4.98208 45.9373 4.22125 44.1842C3.46042 42.4311 3.08 40.5593 3.08 38.5687C3.08 37.6009 3.19917 36.6421 3.4375 35.6925C3.67583 34.7429 4.02417 33.839 4.4825 32.9807C4.4825 32.9624 4.48708 32.9533 4.49625 32.9533C4.50542 32.9533 4.51 32.9441 4.51 32.9259L17.6 6.84814ZM13.5712 48.0603C14.8271 48.599 16.17 48.8684 17.6 48.8684C19.03 48.8684 20.3729 48.599 21.6287 48.0603C22.8846 47.5215 23.98 46.7865 24.915 45.8552C25.85 44.9238 26.5879 43.8327 27.1287 42.5818C27.6696 41.3308 27.94 39.9932 27.94 38.5687C27.94 37.1443 27.6696 35.8067 27.1287 34.5557C26.5879 33.3048 25.85 32.2137 24.915 31.2823C23.98 30.351 22.8846 29.6159 21.6287 29.0772C20.3729 28.5385 19.03 28.2691 17.6 28.2691C16.17 28.2691 14.8271 28.5385 13.5712 29.0772C12.3154 29.6159 11.22 30.351 10.285 31.2823C9.35 32.2137 8.61208 33.3048 8.07125 34.5557C7.53042 35.8067 7.26 37.1443 7.26 38.5687C7.26 39.9932 7.53042 41.3308 8.07125 42.5818C8.61208 43.8327 9.35 44.9238 10.285 45.8552C11.22 46.7865 12.3154 47.5215 13.5712 48.0603ZM14.7675 31.8987C15.6475 31.5243 16.5917 31.3371 17.6 31.3371C18.6083 31.3371 19.5525 31.5243 20.4325 31.8987C21.3125 32.273 22.0825 32.7889 22.7425 33.4463C23.4025 34.1038 23.9204 34.8707 24.2962 35.7473C24.6721 36.6239 24.86 37.5644 24.86 38.5687C24.86 39.5731 24.6721 40.5136 24.2962 41.3902C23.9204 42.2667 23.4025 43.0337 22.7425 43.6912C22.0825 44.3486 21.3125 44.8645 20.4325 45.2388C19.5525 45.6132 18.6083 45.8004 17.6 45.8004C16.5917 45.8004 15.6475 45.6132 14.7675 45.2388C13.8875 44.8645 13.1175 44.3486 12.4575 43.6912C11.7975 43.0337 11.2796 42.2667 10.9037 41.3902C10.5279 40.5136 10.34 39.5731 10.34 38.5687C10.34 37.5644 10.5279 36.6239 10.9037 35.7473C11.2796 34.8707 11.7975 34.1038 12.4575 33.4463C13.1175 32.7889 13.8875 32.273 14.7675 31.8987Z" transform="translate(37.4 82.5) scale(1 -1)" fill="white"/>
<ellipse cx="7.95861" cy="7.94592" rx="7.95861" ry="7.94592" transform="translate(47.2355 36.009)" fill="#27AE60"/>
</svg>
