<svg width="32" height="32" version="1.1" viewBox="0 0 32 32" xmlns="http://www.w3.org/2000/svg">
 <path fill="#709727" d="m0 0h32v32h-32z"/>
 <g fill="#fff">
  <path class="st1" d="M11.817 21.206c-.367 0-.661-.147-.661-.587l-.073-1.762c-.073-1.101-.147-2.202-1.248-2.936.661-.44 1.101-1.101 1.174-1.835l.147-2.202c0-1.028.22-1.321 1.101-1.174h.073c.073-.073.22-.147.22-.22v-1.248h-.807c-1.321 0-2.055.734-2.129 2.055-.073.734-.073 1.542-.073 2.276 0 1.101-.367 1.395-1.321 1.615-.073 0-.22.22-.22.294v1.028c0 .294.073.367.367.367.587 0 .881.22 1.028.807.073.294.147.661.147.954l.073 2.202c.073.734.294 1.395 1.028 1.688.587.294 1.248.294 1.982.22v-.661c-.073-.807-.073-.881-.807-.881z"/>
  <path class="st1" d="M23.635 15.113c-.44 0-.807-.22-.954-.661l-.22-1.101c-.073-.734-.073-1.395-.073-2.129-.073-1.248-.807-1.909-1.982-1.982-.954-.073-.954-.073-.954.881v.073c0 .514 0 .514.514.514.661 0 .881.22.881.881 0 .734 0 1.395.073 2.129.073.807.294 1.615 1.028 2.129l.22.147c-.734.44-1.101 1.101-1.174 1.909-.073.734-.147 1.468-.147 2.129 0 1.028-.22 1.321-1.174 1.248-.073 0-.294.147-.294.22v1.248h1.028c1.028-.073 1.615-.587 1.835-1.615.147-.587.073-1.248.147-1.835 0-.44 0-.881.073-1.321.073-.734.44-1.101 1.174-1.101.22 0 .294-.073.294-.294v-.954c.147-.44.073-.587-.294-.514z"/>
  <path class="st1" d="M12.771 15.04c-.514 0-.954.44-.954.954s.44.881.954.881.954-.367.954-.954c0-.514-.44-.881-.954-.881z"/>
  <path class="st1" d="M16.001 15.04c-.514 0-.954.367-.954.881 0 .587.367.954.881.954s.954-.367.954-.881c.073-.587-.294-.954-.881-.954z"/>
  <path class="st1" d="M20.185 15.92c0-.514-.44-.881-.954-.881s-.954.44-.954.881c0 .514.44.954.954.954s.954-.44.954-.954z"/>
 </g>
</svg>
