<svg width="200" height="180" viewBox="0 0 200 180" fill="none" xmlns="http://www.w3.org/2000/svg">
  <path d="M189.609 163.881L184.916 166.612C186.274 165.82 187.119 164.141 187.126 161.749L191.819 159.018C191.812 161.41 190.973 163.088 189.609 163.881Z" fill="#D2D2D2"/>
  <path d="M187.307 99.4101L187.127 161.749C187.114 166.566 183.712 168.504 179.525 166.086L76.6294 106.625C72.4491 104.206 69.0609 98.3442 69.0743 93.5345L69.254 31.1953L187.307 99.4101Z" fill="#F4F4F4"/>
  <path d="M187.307 99.4101L192 96.6788L191.82 159.018L187.127 161.743L187.307 99.4101Z" fill="#D2D2D2"/>
  <path d="M69.2539 31.1953L73.9467 28.4707L191.999 96.6789L187.307 99.4101L69.2539 31.1953Z" fill="#D2D2D2"/>
  <path d="M71.4629 11.2438L76.1557 8.51249C77.5336 7.7131 79.444 7.81969 81.5475 9.03876L76.8546 11.77C74.7512 10.5576 72.8408 10.4444 71.4629 11.2438Z" fill="#AAAAAA"/>
  <path d="M187.308 84.3215L192 81.5903L191.954 96.4323L187.268 99.1569L187.308 84.3215Z" fill="#AAAAAA"/>
  <path d="M76.8555 11.7759L81.5483 9.04462L184.444 68.4994L179.751 71.2307L76.8555 11.7759Z" fill="#AAAAAA"/>
  <path d="M179.751 71.2315C183.938 73.6496 187.32 79.5118 187.306 84.3215L187.266 99.1569L69.207 30.9487L69.247 16.1133C69.2603 11.3037 72.6684 9.35848 76.8487 11.7766L179.751 71.2315Z" fill="url(#paint0_linear_1345_76061)"/>
  <path d="M179.752 71.2315L184.445 68.5002C188.632 70.9184 192.013 76.7806 192 81.5903L187.307 84.3216C187.32 79.5119 183.939 73.6497 179.752 71.2315Z" fill="#AAAAAA"/>
  <path d="M176.704 106.424L117.266 71.6573C117.205 71.6123 117.133 71.5846 117.058 71.5771C116.983 71.5696 116.907 71.5826 116.838 71.6147L115.354 72.4884C115.422 72.4566 115.498 72.4439 115.574 72.4516C115.649 72.4593 115.721 72.4871 115.782 72.5322L175.22 107.3C175.394 107.416 175.539 107.57 175.643 107.752C175.747 107.934 175.807 108.137 175.818 108.347L175.786 119.612C175.793 119.686 175.781 119.761 175.75 119.83C175.72 119.898 175.672 119.957 175.611 120.001L177.096 119.128C177.157 119.084 177.205 119.025 177.236 118.956C177.266 118.888 177.279 118.813 177.271 118.738L177.302 107.472C177.292 107.262 177.232 107.059 177.128 106.877C177.024 106.695 176.879 106.54 176.704 106.424Z" fill="#D2D2D2"/>
  <path d="M175.532 128.634L116.094 93.8677C116.034 93.8223 115.962 93.7942 115.886 93.7865C115.811 93.7788 115.735 93.7917 115.666 93.8239L114.182 94.6988C114.25 94.6667 114.326 94.6537 114.401 94.6612C114.477 94.6687 114.549 94.6964 114.61 94.7414L174.048 129.508C174.222 129.624 174.367 129.778 174.471 129.96C174.575 130.142 174.635 130.345 174.646 130.555L174.614 141.82C174.622 141.895 174.609 141.97 174.579 142.038C174.548 142.107 174.5 142.166 174.439 142.21L175.924 141.336C175.985 141.292 176.033 141.233 176.064 141.164C176.095 141.096 176.107 141.021 176.099 140.946L176.131 129.681C176.12 129.472 176.06 129.268 175.956 129.086C175.852 128.905 175.707 128.75 175.532 128.634Z" fill="#D2D2D2"/>
  <path d="M108.515 67.1271L49.0774 32.3592C49.0169 32.3144 48.9455 32.2866 48.8706 32.2789C48.7957 32.2712 48.7202 32.2838 48.6518 32.3154L47.166 33.1903C47.2342 33.1582 47.3097 33.1451 47.3847 33.1526C47.4596 33.1601 47.5311 33.1879 47.5916 33.2329L107.033 68.002C107.207 68.117 107.352 68.2715 107.455 68.4529C107.559 68.6343 107.618 68.8375 107.628 69.0461L107.597 80.3125C107.605 80.3874 107.593 80.4629 107.562 80.5314C107.531 80.6 107.482 80.6592 107.421 80.7031L108.907 79.8294C108.968 79.7852 109.016 79.7257 109.047 79.657C109.078 79.5882 109.09 79.5125 109.082 79.4376L109.114 68.1724C109.103 67.9633 109.044 67.7595 108.94 67.5779C108.836 67.3962 108.691 67.2417 108.515 67.1271Z" fill="#AAAAAA"/>
  <path d="M107.032 68.002C107.206 68.1175 107.351 68.272 107.454 68.4533C107.558 68.6346 107.617 68.8376 107.628 69.046L107.597 80.3125C107.597 80.697 107.328 80.8552 106.997 80.6605L47.5555 45.8925C47.3815 45.7766 47.237 45.6214 47.1338 45.4394C47.0305 45.2575 46.9713 45.0539 46.9609 44.8449L46.9926 33.5796C46.9926 33.1939 47.26 33.0394 47.5908 33.2328L107.032 68.002Z" fill="#DCDCDC"/>
  <path d="M174.048 129.508C174.223 129.624 174.368 129.778 174.472 129.96C174.576 130.142 174.636 130.346 174.647 130.555L174.615 141.821C174.615 142.206 174.344 142.361 174.007 142.168L114.568 107.401C114.393 107.285 114.248 107.13 114.144 106.948C114.041 106.766 113.981 106.562 113.971 106.352L114.001 95.0858C114.001 94.7013 114.272 94.548 114.609 94.7414L174.048 129.508Z" fill="white"/>
  <path d="M175.425 107.3C175.6 107.416 175.745 107.57 175.849 107.752C175.952 107.934 176.012 108.138 176.023 108.347L175.992 119.612C175.992 119.998 175.721 120.153 175.384 119.96L115.951 85.1919C115.776 85.076 115.631 84.9205 115.527 84.7381C115.423 84.5557 115.364 84.3515 115.354 84.1418L115.384 72.8766C115.384 72.4909 115.655 72.3388 115.992 72.5322L175.425 107.3Z" fill="white"/>
  <path d="M71.1852 117.343C58.4185 109.875 37.79 109.875 25.1035 117.343C18.8065 121.05 15.6525 125.903 15.6367 130.766L15.6732 118.048C15.689 113.181 18.843 108.333 25.14 104.626C37.8216 97.1581 58.4465 97.1581 71.2217 104.626C77.6427 108.379 80.8539 113.316 80.8381 118.237L80.8016 130.954C80.8162 126.033 77.6136 121.102 71.1852 117.343Z" fill="#DCDCDC"/>
  <path opacity="0.4" d="M71.107 108.384C58.3403 100.918 37.7118 100.918 25.0253 108.384C12.3389 115.851 12.4106 127.958 25.1809 135.426C37.9513 142.893 58.575 142.892 71.2517 135.426C83.9284 127.959 83.8713 115.852 71.107 108.384Z" fill="white"/>
  <path d="M19.7041 101.467C35.3889 92.2373 60.8882 92.2373 76.6715 101.467C92.4548 110.696 92.5326 125.662 76.8527 134.897C61.1728 144.133 35.6685 144.127 19.8901 134.897C4.1117 125.668 4.02416 110.696 19.7041 101.467ZM71.2001 104.631C58.4334 97.1642 37.8061 97.1642 25.1245 104.631C12.4429 112.097 12.5098 124.204 25.2789 131.67C38.048 139.137 58.6741 139.138 71.3496 131.67C84.0251 124.203 83.9643 112.103 71.2001 104.635V104.631Z" fill="#AAAAAA"/>
  <path d="M19.9257 147.421C11.9824 142.778 8.01744 136.68 8.03325 130.588L8.06973 117.871C8.05392 123.955 12.0177 130.055 19.9622 134.704C35.7406 143.934 61.2485 143.934 76.9236 134.704C84.7125 130.118 88.6142 124.118 88.63 118.106L88.5935 130.824C88.5789 136.837 84.676 142.835 76.8871 147.421C61.2071 156.65 35.7042 156.65 19.9257 147.421Z" fill="#DCDCDC"/>
  <path d="M90.7882 144.681C90.7381 145.682 90.4533 146.658 89.9567 147.529C89.4602 148.4 88.7658 149.142 87.9297 149.695C87.641 149.906 87.3007 150.036 86.9446 150.07C86.5886 150.104 86.2299 150.041 85.9065 149.889L76.3777 144.314C76.086 144.1 75.8558 143.812 75.7101 143.481C75.5643 143.149 75.5082 142.785 75.5472 142.425C75.5975 141.423 75.8826 140.447 76.3794 139.576C76.8761 138.705 77.5707 137.963 78.407 137.41C78.6945 137.198 79.0341 137.069 79.3894 137.035C79.7448 137.001 80.1028 137.063 80.4253 137.217L89.9541 142.791C90.2465 143.005 90.4774 143.292 90.6238 143.624C90.7702 143.956 90.8269 144.32 90.7882 144.681Z" fill="#AAAAAA"/>
  <path d="M90.4577 140.916L123.031 159.965L116.497 171.433L83.9236 152.383C83.452 152.039 83.0788 151.577 82.8413 151.043C82.6039 150.509 82.5105 149.922 82.5703 149.341C82.6521 147.721 83.1128 146.144 83.9153 144.735C84.7178 143.326 85.8397 142.125 87.1907 141.23C87.6555 140.886 88.2052 140.675 88.7807 140.619C89.3562 140.564 89.936 140.667 90.4577 140.916Z" fill="#D2D2D2"/>
  <path d="M124.385 163.014C124.385 160.023 122.318 158.794 119.765 160.279C118.413 161.174 117.291 162.374 116.488 163.783C115.685 165.192 115.225 166.77 115.145 168.39C115.145 171.386 117.212 172.615 119.765 171.129C121.116 170.232 122.237 169.031 123.04 167.622C123.842 166.212 124.303 164.634 124.385 163.014Z" fill="#AAAAAA"/>
  <defs>
    <linearGradient id="paint0_linear_1345_76061" x1="128.257" y1="10.7371" x2="128.257" y2="99.1569" gradientUnits="userSpaceOnUse">
      <stop offset="0.177741" stop-color="#F4F4F4"/>
      <stop offset="0.631431" stop-color="#DCDCDC"/>
    </linearGradient>
  </defs>
</svg>
