<svg width="60" height="48" viewBox="0 0 60 48" fill="none" xmlns="http://www.w3.org/2000/svg">
<g clip-path="url(#clip0_444_37329)">
<mask id="mask0_444_37329" style="mask-type:alpha" maskUnits="userSpaceOnUse" x="-2" y="-2" width="64" height="52">
<rect x="-1.37146" y="-1.09766" width="62.7429" height="50.1943" fill="url(#paint0_linear_444_37329)"/>
</mask>
<g mask="url(#mask0_444_37329)">
<g filter="url(#filter0_ddddiiiif_444_37329)">
<path d="M11.6524 26.3899L18.152 3.96165C18.3741 3.1953 19.0759 2.66797 19.8738 2.66797H72.8209C73.82 2.66797 74.6264 3.48483 74.6134 4.4839L73.7634 69.93C73.7508 70.9053 72.9607 71.6914 71.9855 71.6993L7.41248 72.2229L16.8858 31.394C16.9901 30.9444 16.6488 30.5148 16.1873 30.5148H14.7517C12.6028 30.5148 11.0543 28.4538 11.6524 26.3899Z" fill="white" fill-opacity="0.01" shape-rendering="crispEdges"/>
</g>
</g>
<mask id="mask1_444_37329" style="mask-type:alpha" maskUnits="userSpaceOnUse" x="-2" y="-2" width="64" height="52">
<rect x="-1.37146" y="-1.09766" width="62.7429" height="50.1943" fill="url(#paint1_linear_444_37329)"/>
</mask>
<g mask="url(#mask1_444_37329)">
<g filter="url(#filter1_ddddiiiif_444_37329)">
<path d="M39.5881 11.7683L47.0131 -13.7876C47.2356 -14.5533 47.9371 -15.0801 48.7346 -15.0801H101.683C102.682 -15.0801 103.488 -14.2632 103.475 -13.2641L102.625 52.1785C102.612 53.1551 101.82 53.9418 100.844 53.9478L14.7623 54.4749L48.0687 19.3427C50.4513 16.8294 48.6697 12.6855 45.2066 12.6855H40.2767C39.799 12.6855 39.4548 12.2271 39.5881 11.7683Z" fill="white" fill-opacity="0.01" shape-rendering="crispEdges"/>
</g>
</g>
<mask id="mask2_444_37329" style="mask-type:alpha" maskUnits="userSpaceOnUse" x="18" y="8" width="24" height="31">
<path d="M18.5251 23.8792L22.5147 10.1208C22.7825 9.20311 23.6238 8.57227 24.5798 8.57227H33.8073C34.5246 8.57227 35.041 9.26114 34.8397 9.94966L32.8579 16.8008H40.5972C41.5398 16.8008 42.0264 17.9272 41.3804 18.6136L22.7652 38.332C22.014 39.1301 20.69 38.4249 20.9332 37.3562L23.5993 25.7151H19.9018C18.9456 25.7151 18.2573 24.7971 18.5251 23.8792Z" fill="url(#paint2_linear_444_37329)"/>
</mask>
<g mask="url(#mask2_444_37329)">
<g clip-path="url(#clip1_444_37329)">
<g filter="url(#filter2_f_444_37329)">
<ellipse cx="26.6099" cy="21.1114" rx="35.8615" ry="35.2104" transform="rotate(0.260508 26.6099 21.1114)" fill="url(#paint3_linear_444_37329)"/>
</g>
<g filter="url(#filter3_f_444_37329)">
<ellipse cx="36.5995" cy="4.62022" rx="9.97791" ry="16.0831" fill="#90D5E6"/>
</g>
<g filter="url(#filter4_f_444_37329)">
<path d="M30.631 6.35152C31.7245 -0.300419 33.9114 -6.86123 57.9222 -11.7363L53.9584 -12.9209L67.4445 -14.1055L80.7939 67.4491L-11.6498 74.3744L10.7663 46.8554C18.3751 41.6918 39.8736 36.2963 42.8414 33.9616C46.2585 31.2735 39.5538 26.1442 35.3694 21.7968C31.8612 18.1519 29.6314 12.4325 30.631 6.35152Z" fill="url(#paint4_linear_444_37329)"/>
</g>
<g filter="url(#filter5_f_444_37329)">
<path d="M41.7935 28.4496C42.7508 24.1668 14.7757 24.3491 -0.487356 -20.8477C-32.3815 -18.5808 -43.0505 55.4747 -13.1534 66.8121C6.66578 47.9042 40.9278 32.3223 41.7935 28.4496Z" fill="url(#paint5_linear_444_37329)"/>
</g>
</g>
<g filter="url(#filter6_dd_444_37329)">
<path d="M37.551 28.164C37.688 27.6434 38.4267 27.6434 38.5637 28.164L38.6271 28.4072C38.737 28.8244 39.0634 29.1499 39.4807 29.2597L39.7238 29.3242C40.2443 29.4612 40.2443 30.1998 39.7238 30.3369L39.4807 30.4013C39.0634 30.5111 38.737 30.8366 38.6271 31.2538L38.5637 31.497C38.4267 32.0176 37.688 32.0176 37.551 31.497L37.4865 31.2538C37.3767 30.8368 37.051 30.5112 36.634 30.4013L36.3908 30.3369C35.8702 30.1999 35.8702 29.4612 36.3908 29.3242L36.634 29.2597C37.051 29.1498 37.3767 28.8242 37.4865 28.4072L37.551 28.164ZM32.6877 21.6171C32.937 20.6823 34.2636 20.6823 34.5129 21.6171L34.7443 22.4882C34.9709 23.3379 35.6349 24.0018 36.4846 24.2285L37.3557 24.4609C38.2905 24.7102 38.2905 26.0368 37.3557 26.2861L36.4846 26.5175C35.6349 26.7441 34.971 27.4081 34.7443 28.2578L34.5129 29.1288C34.2636 30.0637 32.937 30.0637 32.6877 29.1288L32.4553 28.2578C32.2286 27.4081 31.5647 26.7441 30.715 26.5175L29.8439 26.2861C28.9091 26.0368 28.9091 24.7102 29.8439 24.4609L30.715 24.2285C31.5648 24.0018 32.2287 23.338 32.4553 22.4882L32.6877 21.6171Z" fill="url(#paint6_linear_444_37329)"/>
</g>
</g>
<g filter="url(#filter7_d_444_37329)">
<path d="M37.551 28.162C37.688 27.6414 38.4267 27.6414 38.5637 28.162L38.6271 28.4052C38.737 28.8225 39.0634 29.1479 39.4807 29.2578L39.7238 29.3222C40.2443 29.4593 40.2443 30.1978 39.7238 30.3349L39.4807 30.3994C39.0634 30.5092 38.737 30.8346 38.6271 31.2519L38.5637 31.4951C38.4267 32.0157 37.688 32.0157 37.551 31.4951L37.4865 31.2519C37.3767 30.8348 37.051 30.5093 36.634 30.3994L36.3908 30.3349C35.8702 30.1979 35.8702 29.4592 36.3908 29.3222L36.634 29.2578C37.051 29.1478 37.3767 28.8223 37.4865 28.4052L37.551 28.162ZM32.6877 21.6152C32.937 20.6804 34.2636 20.6803 34.5129 21.6152L34.7443 22.4863C34.9709 23.3359 35.6349 23.9998 36.4846 24.2265L37.3557 24.4589C38.2905 24.7082 38.2905 26.0348 37.3557 26.2841L36.4846 26.5156C35.6349 26.7422 34.971 27.4062 34.7443 28.2558L34.5129 29.1269C34.2636 30.0618 32.937 30.0618 32.6877 29.1269L32.4553 28.2558C32.2286 27.4062 31.5647 26.7421 30.715 26.5156L29.8439 26.2841C28.9091 26.0348 28.9091 24.7083 29.8439 24.4589L30.715 24.2265C31.5648 23.9999 32.2287 23.336 32.4553 22.4863L32.6877 21.6152Z" fill="url(#paint7_linear_444_37329)"/>
</g>
<mask id="mask3_444_37329" style="mask-type:alpha" maskUnits="userSpaceOnUse" x="29" y="20" width="12" height="12">
<path d="M37.551 28.162C37.688 27.6414 38.4267 27.6414 38.5637 28.162L38.6271 28.4052C38.737 28.8225 39.0634 29.1479 39.4807 29.2578L39.7238 29.3222C40.2443 29.4593 40.2443 30.1978 39.7238 30.3349L39.4807 30.3994C39.0634 30.5092 38.737 30.8346 38.6271 31.2519L38.5637 31.4951C38.4267 32.0157 37.688 32.0157 37.551 31.4951L37.4865 31.2519C37.3767 30.8348 37.051 30.5093 36.634 30.3994L36.3908 30.3349C35.8702 30.1979 35.8702 29.4592 36.3908 29.3222L36.634 29.2578C37.051 29.1478 37.3767 28.8223 37.4865 28.4052L37.551 28.162ZM32.6877 21.6152C32.937 20.6804 34.2636 20.6803 34.5129 21.6152L34.7443 22.4863C34.9709 23.3359 35.6349 23.9998 36.4846 24.2265L37.3557 24.4589C38.2905 24.7082 38.2905 26.0348 37.3557 26.2841L36.4846 26.5156C35.6349 26.7422 34.971 27.4062 34.7443 28.2558L34.5129 29.1269C34.2636 30.0618 32.937 30.0618 32.6877 29.1269L32.4553 28.2558C32.2286 27.4062 31.5647 26.7421 30.715 26.5156L29.8439 26.2841C28.9091 26.0348 28.9091 24.7083 29.8439 24.4589L30.715 24.2265C31.5648 23.9999 32.2287 23.336 32.4553 22.4863L32.6877 21.6152Z" fill="url(#paint8_linear_444_37329)"/>
</mask>
<g mask="url(#mask3_444_37329)">
<mask id="mask4_444_37329" style="mask-type:alpha" maskUnits="userSpaceOnUse" x="20" y="4" width="42" height="42">
<circle cx="35.743" cy="25.5445" r="0.171429" fill="#B7B7B7"/>
<circle cx="39.5314" cy="30.276" r="0.102857" transform="rotate(180 39.5314 30.276)" fill="#B7B7B7"/>
<circle cx="34.0286" cy="29.6586" r="0.171429" transform="rotate(180 34.0286 29.6586)" fill="#B7B7B7"/>
<circle cx="33.6857" cy="27.9458" r="0.171429" transform="rotate(180 33.6857 27.9458)" fill="#B7B7B7"/>
<circle cx="39.943" cy="29.6586" r="0.171429" transform="rotate(180 39.943 29.6586)" fill="#B7B7B7"/>
<circle cx="37.8686" cy="30.4128" r="0.102857" transform="rotate(180 37.8686 30.4128)" fill="#B7B7B7"/>
<circle cx="37.7315" cy="29.9323" r="0.102857" transform="rotate(180 37.7315 29.9323)" fill="#B7B7B7"/>
<circle cx="36.4287" cy="25.2016" r="0.171429" transform="rotate(180 36.4287 25.2016)" fill="#B7B7B7"/>
<circle cx="37.8" cy="28.9731" r="0.171429" transform="rotate(180 37.8 28.9731)" fill="#B7B7B7"/>
<circle cx="34.7143" cy="25.2016" r="0.171429" transform="rotate(180 34.7143 25.2016)" fill="#B7B7B7"/>
<circle cx="34.0972" cy="25.6139" r="0.102857" transform="rotate(180 34.0972 25.6139)" fill="#B7B7B7"/>
<circle cx="38.4858" cy="30.0024" r="0.171429" transform="rotate(180 38.4858 30.0024)" fill="#B7B7B7"/>
<circle cx="38.2115" cy="28.6999" r="0.102857" transform="rotate(180 38.2115 28.6999)" fill="#B7B7B7"/>
<circle cx="34.0286" cy="28.6313" r="0.171429" transform="rotate(180 34.0286 28.6313)" fill="#B7B7B7"/>
<circle cx="33.4115" cy="24.2428" r="0.102857" transform="rotate(180 33.4115 24.2428)" fill="#B7B7B7"/>
<circle cx="33.0173" cy="23.0768" r="0.102857" transform="rotate(180 33.0173 23.0768)" fill="#B7B7B7"/>
<circle cx="33.7029" cy="22.0475" r="0.102857" transform="rotate(180 33.7029 22.0475)" fill="#B7B7B7"/>
<circle cx="34.3886" cy="22.3913" r="0.102857" transform="rotate(180 34.3886 22.3913)" fill="#B7B7B7"/>
<circle cx="33.0171" cy="25.1335" r="0.102857" transform="rotate(180 33.0171 25.1335)" fill="#B7B7B7"/>
<circle cx="33.2743" cy="23.4186" r="0.102857" transform="rotate(180 33.2743 23.4186)" fill="#B7B7B7"/>
<circle cx="31.5601" cy="24.1042" r="0.102857" transform="rotate(180 31.5601 24.1042)" fill="#B7B7B7"/>
<circle cx="35.3315" cy="23.7624" r="0.102857" transform="rotate(180 35.3315 23.7624)" fill="#B7B7B7"/>
<circle cx="37.0458" cy="24.4479" r="0.102857" transform="rotate(180 37.0458 24.4479)" fill="#B7B7B7"/>
<circle cx="34.6458" cy="25.819" r="0.102857" transform="rotate(180 34.6458 25.819)" fill="#B7B7B7"/>
<circle cx="34.9887" cy="27.1901" r="0.102857" transform="rotate(180 34.9887 27.1901)" fill="#B7B7B7"/>
<circle cx="37.0458" cy="30.6198" r="0.102857" transform="rotate(180 37.0458 30.6198)" fill="#B7B7B7"/>
<circle cx="36.4457" cy="29.9323" r="0.102857" transform="rotate(180 36.4457 29.9323)" fill="#B7B7B7"/>
<circle cx="37.8172" cy="30.9616" r="0.102857" transform="rotate(180 37.8172 30.9616)" fill="#B7B7B7"/>
<circle cx="39.4459" cy="29.5905" r="0.102857" transform="rotate(180 39.4459 29.5905)" fill="#B7B7B7"/>
<circle cx="38.5029" cy="30.6198" r="0.102857" transform="rotate(180 38.5029 30.6198)" fill="#B7B7B7"/>
<circle cx="38.1601" cy="31.3053" r="0.102857" transform="rotate(180 38.1601 31.3053)" fill="#B7B7B7"/>
<circle cx="33.343" cy="21.4301" r="0.171429" transform="rotate(180 33.343 21.4301)" fill="#B7B7B7"/>
<circle cx="29.5887" cy="24.6198" r="0.102857" transform="rotate(180 29.5887 24.6198)" fill="#B7B7B7"/>
<circle cx="31.3029" cy="25.4753" r="0.102857" transform="rotate(180 31.3029 25.4753)" fill="#B7B7B7"/>
<circle cx="31.6458" cy="24.7897" r="0.102857" transform="rotate(180 31.6458 24.7897)" fill="#B7B7B7"/>
<circle cx="37.8686" cy="25.6139" r="0.102857" transform="rotate(180 37.8686 25.6139)" fill="#B7B7B7"/>
<circle cx="36.84" cy="25.9557" r="0.102857" transform="rotate(180 36.84 25.9557)" fill="#B7B7B7"/>
<circle cx="37.3887" cy="25.1335" r="0.102857" transform="rotate(180 37.3887 25.1335)" fill="#B7B7B7"/>
<circle cx="37.0458" cy="24.4479" r="0.102857" transform="rotate(180 37.0458 24.4479)" fill="#B7B7B7"/>
<circle cx="35.3315" cy="26.1628" r="0.102857" transform="rotate(180 35.3315 26.1628)" fill="#B7B7B7"/>
<circle cx="35.3315" cy="24.4479" r="0.102857" transform="rotate(180 35.3315 24.4479)" fill="#B7B7B7"/>
<circle cx="34.9887" cy="24.1042" r="0.102857" transform="rotate(180 34.9887 24.1042)" fill="#B7B7B7"/>
<circle cx="38.7601" cy="29.2468" r="0.102857" transform="rotate(180 38.7601 29.2468)" fill="#B7B7B7"/>
<circle cx="32.3143" cy="26.2309" r="0.171429" transform="rotate(180 32.3143 26.2309)" fill="#B7B7B7"/>
<circle cx="31.0286" cy="24.8598" r="0.171429" transform="rotate(180 31.0286 24.8598)" fill="#B7B7B7"/>
<circle cx="30.6857" cy="25.5454" r="0.171429" transform="rotate(180 30.6857 25.5454)" fill="#B7B7B7"/>
<circle cx="36.0858" cy="24.1743" r="0.171429" transform="rotate(180 36.0858 24.1743)" fill="#B7B7B7"/>
<circle cx="32.4001" cy="27.2583" r="0.171429" transform="rotate(180 32.4001 27.2583)" fill="#B7B7B7"/>
<circle cx="33.343" cy="26.2309" r="0.171429" transform="rotate(180 33.343 26.2309)" fill="#B7B7B7"/>
<circle cx="34.0286" cy="23.145" r="0.171429" transform="rotate(180 34.0286 23.145)" fill="#B7B7B7"/>
<circle cx="30.343" cy="25.0297" r="0.171429" transform="rotate(180 30.343 25.0297)" fill="#B7B7B7"/>
<circle cx="31.3543" cy="25.9557" r="0.102857" transform="rotate(180 31.3543 25.9557)" fill="#B7B7B7"/>
<circle cx="32.0401" cy="25.6139" r="0.102857" transform="rotate(180 32.0401 25.6139)" fill="#B7B7B7"/>
<circle cx="31.6286" cy="26.5727" r="0.171429" transform="rotate(180 31.6286 26.5727)" fill="#B7B7B7"/>
<circle cx="36.0001" cy="24.7741" r="0.257143" transform="rotate(180 36.0001 24.7741)" fill="#B7B7B7"/>
<circle cx="30.0858" cy="25.2878" r="0.257143" transform="rotate(180 30.0858 25.2878)" fill="#B7B7B7"/>
<circle cx="37.9715" cy="24.944" r="0.257143" transform="rotate(180 37.9715 24.944)" fill="#B7B7B7"/>
<circle cx="35.9144" cy="26.6589" r="0.257143" transform="rotate(180 35.9144 26.6589)" fill="#B7B7B7"/>
<circle cx="32.4858" cy="22.2018" r="0.257143" transform="rotate(180 32.4858 22.2018)" fill="#B7B7B7"/>
<circle cx="34.8858" cy="28.03" r="0.257143" transform="rotate(180 34.8858 28.03)" fill="#B7B7B7"/>
<circle cx="34.2858" cy="26.487" r="0.257143" transform="rotate(180 34.2858 26.487)" fill="#B7B7B7"/>
<circle cx="32.8287" cy="27.0868" r="0.342857" transform="rotate(180 32.8287 27.0868)" fill="#B7B7B7"/>
<circle cx="33.2573" cy="28.5456" r="0.257143" transform="rotate(180 33.2573 28.5456)" fill="#B7B7B7"/>
<circle cx="30.6857" cy="26.5727" r="0.171429" transform="rotate(180 30.6857 26.5727)" fill="#B7B7B7"/>
<circle cx="29.4001" cy="26.0595" r="0.342857" transform="rotate(180 29.4001 26.0595)" fill="#B7B7B7"/>
</mask>
<g mask="url(#mask4_444_37329)">
<rect x="20.8286" y="4.11523" width="41.1429" height="41.1429" fill="url(#paint9_linear_444_37329)"/>
</g>
</g>
</g>
<defs>
<filter id="filter0_ddddiiiif_444_37329" x="2.61248" y="-2.81775" width="77.1439" height="80.1833" filterUnits="userSpaceOnUse" color-interpolation-filters="sRGB">
<feFlood flood-opacity="0" result="BackgroundImageFix"/>
<feColorMatrix in="SourceAlpha" type="matrix" values="0 0 0 0 0 0 0 0 0 0 0 0 0 0 0 0 0 0 127 0" result="hardAlpha"/>
<feOffset dx="1.02857" dy="1.02857"/>
<feGaussianBlur stdDeviation="2.05714"/>
<feComposite in2="hardAlpha" operator="out"/>
<feColorMatrix type="matrix" values="0 0 0 0 0.160784 0 0 0 0 0.517647 0 0 0 0 0.619608 0 0 0 0.18 0"/>
<feBlend mode="normal" in2="BackgroundImageFix" result="effect1_dropShadow_444_37329"/>
<feColorMatrix in="SourceAlpha" type="matrix" values="0 0 0 0 0 0 0 0 0 0 0 0 0 0 0 0 0 0 127 0" result="hardAlpha"/>
<feOffset dx="0.342857" dy="0.685714"/>
<feGaussianBlur stdDeviation="1.02857"/>
<feComposite in2="hardAlpha" operator="out"/>
<feColorMatrix type="matrix" values="0 0 0 0 0.160784 0 0 0 0 0.517647 0 0 0 0 0.619608 0 0 0 0.1 0"/>
<feBlend mode="normal" in2="effect1_dropShadow_444_37329" result="effect2_dropShadow_444_37329"/>
<feColorMatrix in="SourceAlpha" type="matrix" values="0 0 0 0 0 0 0 0 0 0 0 0 0 0 0 0 0 0 127 0" result="hardAlpha"/>
<feOffset dx="-0.685714" dy="-1.37143"/>
<feGaussianBlur stdDeviation="2.05714"/>
<feComposite in2="hardAlpha" operator="out"/>
<feColorMatrix type="matrix" values="0 0 0 0 1 0 0 0 0 1 0 0 0 0 1 0 0 0 0.9 0"/>
<feBlend mode="normal" in2="effect2_dropShadow_444_37329" result="effect3_dropShadow_444_37329"/>
<feColorMatrix in="SourceAlpha" type="matrix" values="0 0 0 0 0 0 0 0 0 0 0 0 0 0 0 0 0 0 127 0" result="hardAlpha"/>
<feOffset dx="-0.514286" dy="-1.02857"/>
<feGaussianBlur stdDeviation="1.02857"/>
<feComposite in2="hardAlpha" operator="out"/>
<feColorMatrix type="matrix" values="0 0 0 0 1 0 0 0 0 1 0 0 0 0 1 0 0 0 0.85 0"/>
<feBlend mode="normal" in2="effect3_dropShadow_444_37329" result="effect4_dropShadow_444_37329"/>
<feBlend mode="normal" in="SourceGraphic" in2="effect4_dropShadow_444_37329" result="shape"/>
<feColorMatrix in="SourceAlpha" type="matrix" values="0 0 0 0 0 0 0 0 0 0 0 0 0 0 0 0 0 0 127 0" result="hardAlpha"/>
<feOffset dx="0.685714" dy="1.37143"/>
<feGaussianBlur stdDeviation="2.05714"/>
<feComposite in2="hardAlpha" operator="arithmetic" k2="-1" k3="1"/>
<feColorMatrix type="matrix" values="0 0 0 0 0.160784 0 0 0 0 0.517647 0 0 0 0 0.619608 0 0 0 0.18 0"/>
<feBlend mode="normal" in2="shape" result="effect5_innerShadow_444_37329"/>
<feColorMatrix in="SourceAlpha" type="matrix" values="0 0 0 0 0 0 0 0 0 0 0 0 0 0 0 0 0 0 127 0" result="hardAlpha"/>
<feOffset dx="0.342857" dy="0.685714"/>
<feGaussianBlur stdDeviation="0.685714"/>
<feComposite in2="hardAlpha" operator="arithmetic" k2="-1" k3="1"/>
<feColorMatrix type="matrix" values="0 0 0 0 0.160784 0 0 0 0 0.517647 0 0 0 0 0.619608 0 0 0 0.1 0"/>
<feBlend mode="normal" in2="effect5_innerShadow_444_37329" result="effect6_innerShadow_444_37329"/>
<feColorMatrix in="SourceAlpha" type="matrix" values="0 0 0 0 0 0 0 0 0 0 0 0 0 0 0 0 0 0 127 0" result="hardAlpha"/>
<feOffset dx="-0.685714" dy="-1.37143"/>
<feGaussianBlur stdDeviation="2.05714"/>
<feComposite in2="hardAlpha" operator="arithmetic" k2="-1" k3="1"/>
<feColorMatrix type="matrix" values="0 0 0 0 1 0 0 0 0 1 0 0 0 0 1 0 0 0 0.9 0"/>
<feBlend mode="normal" in2="effect6_innerShadow_444_37329" result="effect7_innerShadow_444_37329"/>
<feColorMatrix in="SourceAlpha" type="matrix" values="0 0 0 0 0 0 0 0 0 0 0 0 0 0 0 0 0 0 127 0" result="hardAlpha"/>
<feOffset dx="-0.514286" dy="-1.02857"/>
<feGaussianBlur stdDeviation="1.02857"/>
<feComposite in2="hardAlpha" operator="arithmetic" k2="-1" k3="1"/>
<feColorMatrix type="matrix" values="0 0 0 0 1 0 0 0 0 1 0 0 0 0 1 0 0 0 0.85 0"/>
<feBlend mode="normal" in2="effect7_innerShadow_444_37329" result="effect8_innerShadow_444_37329"/>
<feGaussianBlur stdDeviation="0.0321429" result="effect9_foregroundBlur_444_37329"/>
</filter>
<filter id="filter1_ddddiiiif_444_37329" x="9.96233" y="-20.5658" width="98.6557" height="80.1833" filterUnits="userSpaceOnUse" color-interpolation-filters="sRGB">
<feFlood flood-opacity="0" result="BackgroundImageFix"/>
<feColorMatrix in="SourceAlpha" type="matrix" values="0 0 0 0 0 0 0 0 0 0 0 0 0 0 0 0 0 0 127 0" result="hardAlpha"/>
<feOffset dx="1.02857" dy="1.02857"/>
<feGaussianBlur stdDeviation="2.05714"/>
<feComposite in2="hardAlpha" operator="out"/>
<feColorMatrix type="matrix" values="0 0 0 0 0.160784 0 0 0 0 0.517647 0 0 0 0 0.619608 0 0 0 0.18 0"/>
<feBlend mode="normal" in2="BackgroundImageFix" result="effect1_dropShadow_444_37329"/>
<feColorMatrix in="SourceAlpha" type="matrix" values="0 0 0 0 0 0 0 0 0 0 0 0 0 0 0 0 0 0 127 0" result="hardAlpha"/>
<feOffset dx="0.342857" dy="0.685714"/>
<feGaussianBlur stdDeviation="1.02857"/>
<feComposite in2="hardAlpha" operator="out"/>
<feColorMatrix type="matrix" values="0 0 0 0 0.160784 0 0 0 0 0.517647 0 0 0 0 0.619608 0 0 0 0.1 0"/>
<feBlend mode="normal" in2="effect1_dropShadow_444_37329" result="effect2_dropShadow_444_37329"/>
<feColorMatrix in="SourceAlpha" type="matrix" values="0 0 0 0 0 0 0 0 0 0 0 0 0 0 0 0 0 0 127 0" result="hardAlpha"/>
<feOffset dx="-0.685714" dy="-1.37143"/>
<feGaussianBlur stdDeviation="2.05714"/>
<feComposite in2="hardAlpha" operator="out"/>
<feColorMatrix type="matrix" values="0 0 0 0 1 0 0 0 0 1 0 0 0 0 1 0 0 0 0.9 0"/>
<feBlend mode="normal" in2="effect2_dropShadow_444_37329" result="effect3_dropShadow_444_37329"/>
<feColorMatrix in="SourceAlpha" type="matrix" values="0 0 0 0 0 0 0 0 0 0 0 0 0 0 0 0 0 0 127 0" result="hardAlpha"/>
<feOffset dx="-0.514286" dy="-1.02857"/>
<feGaussianBlur stdDeviation="1.02857"/>
<feComposite in2="hardAlpha" operator="out"/>
<feColorMatrix type="matrix" values="0 0 0 0 1 0 0 0 0 1 0 0 0 0 1 0 0 0 0.85 0"/>
<feBlend mode="normal" in2="effect3_dropShadow_444_37329" result="effect4_dropShadow_444_37329"/>
<feBlend mode="normal" in="SourceGraphic" in2="effect4_dropShadow_444_37329" result="shape"/>
<feColorMatrix in="SourceAlpha" type="matrix" values="0 0 0 0 0 0 0 0 0 0 0 0 0 0 0 0 0 0 127 0" result="hardAlpha"/>
<feOffset dx="0.685714" dy="1.37143"/>
<feGaussianBlur stdDeviation="2.05714"/>
<feComposite in2="hardAlpha" operator="arithmetic" k2="-1" k3="1"/>
<feColorMatrix type="matrix" values="0 0 0 0 0.160784 0 0 0 0 0.517647 0 0 0 0 0.619608 0 0 0 0.18 0"/>
<feBlend mode="normal" in2="shape" result="effect5_innerShadow_444_37329"/>
<feColorMatrix in="SourceAlpha" type="matrix" values="0 0 0 0 0 0 0 0 0 0 0 0 0 0 0 0 0 0 127 0" result="hardAlpha"/>
<feOffset dx="0.342857" dy="0.685714"/>
<feGaussianBlur stdDeviation="0.685714"/>
<feComposite in2="hardAlpha" operator="arithmetic" k2="-1" k3="1"/>
<feColorMatrix type="matrix" values="0 0 0 0 0.160784 0 0 0 0 0.517647 0 0 0 0 0.619608 0 0 0 0.1 0"/>
<feBlend mode="normal" in2="effect5_innerShadow_444_37329" result="effect6_innerShadow_444_37329"/>
<feColorMatrix in="SourceAlpha" type="matrix" values="0 0 0 0 0 0 0 0 0 0 0 0 0 0 0 0 0 0 127 0" result="hardAlpha"/>
<feOffset dx="-0.685714" dy="-1.37143"/>
<feGaussianBlur stdDeviation="2.05714"/>
<feComposite in2="hardAlpha" operator="arithmetic" k2="-1" k3="1"/>
<feColorMatrix type="matrix" values="0 0 0 0 1 0 0 0 0 1 0 0 0 0 1 0 0 0 0.9 0"/>
<feBlend mode="normal" in2="effect6_innerShadow_444_37329" result="effect7_innerShadow_444_37329"/>
<feColorMatrix in="SourceAlpha" type="matrix" values="0 0 0 0 0 0 0 0 0 0 0 0 0 0 0 0 0 0 127 0" result="hardAlpha"/>
<feOffset dx="-0.514286" dy="-1.02857"/>
<feGaussianBlur stdDeviation="1.02857"/>
<feComposite in2="hardAlpha" operator="arithmetic" k2="-1" k3="1"/>
<feColorMatrix type="matrix" values="0 0 0 0 1 0 0 0 0 1 0 0 0 0 1 0 0 0 0.85 0"/>
<feBlend mode="normal" in2="effect7_innerShadow_444_37329" result="effect8_innerShadow_444_37329"/>
<feGaussianBlur stdDeviation="0.0321429" result="effect9_foregroundBlur_444_37329"/>
</filter>
<filter id="filter2_f_444_37329" x="-20.9086" y="-25.7568" width="95.0372" height="93.7362" filterUnits="userSpaceOnUse" color-interpolation-filters="sRGB">
<feFlood flood-opacity="0" result="BackgroundImageFix"/>
<feBlend mode="normal" in="SourceGraphic" in2="BackgroundImageFix" result="shape"/>
<feGaussianBlur stdDeviation="5.82857" result="effect1_foregroundBlur_444_37329"/>
</filter>
<filter id="filter3_f_444_37329" x="14.9644" y="-23.12" width="43.2701" height="55.4803" filterUnits="userSpaceOnUse" color-interpolation-filters="sRGB">
<feFlood flood-opacity="0" result="BackgroundImageFix"/>
<feBlend mode="normal" in="SourceGraphic" in2="BackgroundImageFix" result="shape"/>
<feGaussianBlur stdDeviation="5.82857" result="effect1_foregroundBlur_444_37329"/>
</filter>
<filter id="filter4_f_444_37329" x="-20.9069" y="-23.3626" width="110.958" height="106.995" filterUnits="userSpaceOnUse" color-interpolation-filters="sRGB">
<feFlood flood-opacity="0" result="BackgroundImageFix"/>
<feBlend mode="normal" in="SourceGraphic" in2="BackgroundImageFix" result="shape"/>
<feGaussianBlur stdDeviation="4.62857" result="effect1_foregroundBlur_444_37329"/>
</filter>
<filter id="filter5_f_444_37329" x="-39.7169" y="-29.7619" width="90.4486" height="105.489" filterUnits="userSpaceOnUse" color-interpolation-filters="sRGB">
<feFlood flood-opacity="0" result="BackgroundImageFix"/>
<feBlend mode="normal" in="SourceGraphic" in2="BackgroundImageFix" result="shape"/>
<feGaussianBlur stdDeviation="4.45714" result="effect1_foregroundBlur_444_37329"/>
</filter>
<filter id="filter6_dd_444_37329" x="26.4" y="18.8589" width="16.457" height="16.4564" filterUnits="userSpaceOnUse" color-interpolation-filters="sRGB">
<feFlood flood-opacity="0" result="BackgroundImageFix"/>
<feColorMatrix in="SourceAlpha" type="matrix" values="0 0 0 0 0 0 0 0 0 0 0 0 0 0 0 0 0 0 127 0" result="hardAlpha"/>
<feOffset dy="0.137143"/>
<feGaussianBlur stdDeviation="0.137143"/>
<feColorMatrix type="matrix" values="0 0 0 0 0 0 0 0 0 0 0 0 0 0 0 0 0 0 0.24 0"/>
<feBlend mode="normal" in2="BackgroundImageFix" result="effect1_dropShadow_444_37329"/>
<feColorMatrix in="SourceAlpha" type="matrix" values="0 0 0 0 0 0 0 0 0 0 0 0 0 0 0 0 0 0 127 0" result="hardAlpha"/>
<feOffset dy="0.685714"/>
<feGaussianBlur stdDeviation="1.37143"/>
<feColorMatrix type="matrix" values="0 0 0 0 0 0 0 0 0 0 0 0 0 0 0 0 0 0 0.32 0"/>
<feBlend mode="normal" in2="effect1_dropShadow_444_37329" result="effect2_dropShadow_444_37329"/>
<feBlend mode="normal" in="SourceGraphic" in2="effect2_dropShadow_444_37329" result="shape"/>
</filter>
<filter id="filter7_d_444_37329" x="25.0285" y="18.5141" width="19.1999" height="19.1993" filterUnits="userSpaceOnUse" color-interpolation-filters="sRGB">
<feFlood flood-opacity="0" result="BackgroundImageFix"/>
<feColorMatrix in="SourceAlpha" type="matrix" values="0 0 0 0 0 0 0 0 0 0 0 0 0 0 0 0 0 0 127 0" result="hardAlpha"/>
<feOffset dy="1.71429"/>
<feGaussianBlur stdDeviation="2.05714"/>
<feColorMatrix type="matrix" values="0 0 0 0 0.0588235 0 0 0 0 0.6 0 0 0 0 0.498039 0 0 0 0.24 0"/>
<feBlend mode="normal" in2="BackgroundImageFix" result="effect1_dropShadow_444_37329"/>
<feBlend mode="normal" in="SourceGraphic" in2="effect1_dropShadow_444_37329" result="shape"/>
</filter>
<linearGradient id="paint0_linear_444_37329" x1="14.5832" y1="43.3601" x2="14.5831" y2="3.92177" gradientUnits="userSpaceOnUse">
<stop stop-color="#BFBFBF" stop-opacity="0"/>
<stop offset="0.259668" stop-color="#595959"/>
<stop offset="0.682564" stop-color="#595959"/>
<stop offset="1" stop-color="#BFBFBF" stop-opacity="0"/>
</linearGradient>
<linearGradient id="paint1_linear_444_37329" x1="14.5832" y1="43.3601" x2="14.5831" y2="3.92177" gradientUnits="userSpaceOnUse">
<stop stop-color="#BFBFBF" stop-opacity="0"/>
<stop offset="0.259668" stop-color="#595959"/>
<stop offset="0.682564" stop-color="#595959"/>
<stop offset="1" stop-color="#BFBFBF" stop-opacity="0"/>
</linearGradient>
<linearGradient id="paint2_linear_444_37329" x1="25.1599" y1="10.5559" x2="30.1794" y2="33.1434" gradientUnits="userSpaceOnUse">
<stop stop-color="#46A1BB"/>
<stop offset="1" stop-color="#4271C2"/>
</linearGradient>
<linearGradient id="paint3_linear_444_37329" x1="26.6099" y1="-14.099" x2="26.6099" y2="56.3219" gradientUnits="userSpaceOnUse">
<stop stop-color="#46A1BB"/>
<stop offset="1" stop-color="#313190"/>
</linearGradient>
<linearGradient id="paint4_linear_444_37329" x1="27.6696" y1="-3.44414" x2="52.1359" y2="46.5365" gradientUnits="userSpaceOnUse">
<stop stop-color="#46A1BB"/>
<stop offset="1" stop-color="#005068"/>
</linearGradient>
<linearGradient id="paint5_linear_444_37329" x1="-1.37081" y1="23.0931" x2="42.9921" y2="25.9552" gradientUnits="userSpaceOnUse">
<stop stop-color="#BBBBFF"/>
<stop offset="1" stop-color="#4545A4"/>
</linearGradient>
<linearGradient id="paint6_linear_444_37329" x1="35.6775" y1="21.8505" x2="35.5573" y2="33.6821" gradientUnits="userSpaceOnUse">
<stop stop-color="#3EF1CF"/>
<stop offset="1" stop-color="#46A1BB"/>
</linearGradient>
<linearGradient id="paint7_linear_444_37329" x1="35.6775" y1="21.8486" x2="35.5573" y2="33.6801" gradientUnits="userSpaceOnUse">
<stop stop-color="#3EF1CF"/>
<stop offset="1" stop-color="#46A1BB"/>
</linearGradient>
<linearGradient id="paint8_linear_444_37329" x1="35.6775" y1="21.8486" x2="35.5573" y2="33.6801" gradientUnits="userSpaceOnUse">
<stop stop-color="#3EF1CF"/>
<stop offset="1" stop-color="#46A1BB"/>
</linearGradient>
<linearGradient id="paint9_linear_444_37329" x1="32.5715" y1="20.7438" x2="37.7143" y2="32.7438" gradientUnits="userSpaceOnUse">
<stop stop-color="#46A1BB" stop-opacity="0.3"/>
<stop offset="1" stop-color="#4271C2"/>
</linearGradient>
<clipPath id="clip0_444_37329">
<rect width="60" height="48" fill="white"/>
</clipPath>
<clipPath id="clip1_444_37329">
<rect width="45.5612" height="45.5612" fill="white" transform="translate(4.11438 -1.71289)"/>
</clipPath>
</defs>
</svg>
