<svg width="24" height="24" viewBox="0 0 24 24" fill="none" xmlns="http://www.w3.org/2000/svg">
<g clip-path="url(#clip0_2183_28968)">
<mask id="mask0_2183_28968" style="mask-type:luminance" maskUnits="userSpaceOnUse" x="2" y="2" width="20" height="20">
<path d="M22 2H2V22H22V2Z" fill="white"/>
</mask>
<g mask="url(#mask0_2183_28968)">
<path fill-rule="evenodd" clip-rule="evenodd" d="M15.0722 3.9524C14.6696 3.56054 14.1299 3.34127 13.568 3.34127C13.0062 3.34127 12.4665 3.56054 12.0639 3.9524L4.04221 11.8191C3.90797 11.9495 3.72816 12.0225 3.54096 12.0225C3.35376 12.0225 3.17394 11.9495 3.03971 11.8191C2.97399 11.7552 2.92175 11.6787 2.88608 11.5943C2.85041 11.5098 2.83203 11.4191 2.83203 11.3274C2.83203 11.2357 2.85041 11.145 2.88608 11.0605C2.92175 10.9761 2.97399 10.8996 3.03971 10.8357L11.0614 2.96907C11.7324 2.31606 12.6317 1.95068 13.568 1.95068C14.5044 1.95068 15.4037 2.31606 16.0747 2.96907C16.463 3.34665 16.7563 3.81081 16.9307 4.32356C17.1051 4.8363 17.1556 5.38306 17.078 5.91907C17.6212 5.84182 18.1748 5.89031 18.6962 6.06079C19.2176 6.23128 19.693 6.51921 20.0855 6.9024L20.1272 6.94407C20.4558 7.26363 20.717 7.64584 20.8954 8.06808C21.0737 8.49032 21.1656 8.94404 21.1656 9.4024C21.1656 9.86077 21.0737 10.3145 20.8954 10.7367C20.717 11.159 20.4558 11.5412 20.1272 11.8607L12.8722 18.9749C12.8503 18.9962 12.8329 19.0216 12.821 19.0498C12.8091 19.0779 12.803 19.1081 12.803 19.1387C12.803 19.1692 12.8091 19.1994 12.821 19.2275C12.8329 19.2557 12.8503 19.2811 12.8722 19.3024L14.3622 20.7641C14.4279 20.828 14.4802 20.9044 14.5158 20.9889C14.5515 21.0733 14.5699 21.1641 14.5699 21.2557C14.5699 21.3474 14.5515 21.4381 14.5158 21.5226C14.4802 21.607 14.4279 21.6835 14.3622 21.7474C14.228 21.8779 14.0482 21.9509 13.861 21.9509C13.6738 21.9509 13.4939 21.8779 13.3597 21.7474L11.8697 20.2866C11.7162 20.1374 11.5942 19.9591 11.5109 19.762C11.4276 19.5649 11.3847 19.353 11.3847 19.1391C11.3847 18.9251 11.4276 18.7133 11.5109 18.5162C11.5942 18.3191 11.7162 18.1407 11.8697 17.9916L19.1247 10.8766C19.3218 10.6848 19.4784 10.4554 19.5853 10.2021C19.6923 9.94875 19.7474 9.67655 19.7474 9.40157C19.7474 9.12658 19.6923 8.85438 19.5853 8.60104C19.4784 8.34771 19.3218 8.11837 19.1247 7.92657L19.083 7.88573C18.6808 7.49428 18.1419 7.27504 17.5806 7.27457C17.0194 7.27411 16.4801 7.49245 16.0772 7.88323L10.1005 13.7449L10.0989 13.7466L10.0172 13.8274C9.88294 13.9581 9.70294 14.0313 9.51554 14.0313C9.32815 14.0313 9.14815 13.9581 9.01388 13.8274C8.94816 13.7635 8.89592 13.687 8.86025 13.6026C8.82458 13.5182 8.8062 13.4274 8.8062 13.3357C8.8062 13.2441 8.82458 13.1533 8.86025 13.0689C8.89592 12.9844 8.94816 12.908 9.01388 12.8441L15.0747 6.8999C15.2712 6.70797 15.4273 6.47866 15.5338 6.22546C15.6403 5.97226 15.6951 5.70031 15.6949 5.42562C15.6946 5.15094 15.6394 4.87908 15.5325 4.62606C15.4255 4.37305 15.269 4.14399 15.0722 3.9524Z" fill="black"/>
<path fill-rule="evenodd" clip-rule="evenodd" d="M14.0719 5.91914C14.1376 5.85522 14.1898 5.77878 14.2255 5.69433C14.2612 5.60989 14.2796 5.51914 14.2796 5.42747C14.2796 5.3358 14.2612 5.24505 14.2255 5.1606C14.1898 5.07616 14.1376 4.99972 14.0719 4.9358C13.9376 4.80508 13.7576 4.73193 13.5702 4.73193C13.3828 4.73193 13.2028 4.80508 13.0686 4.9358L7.13605 10.7541C6.80746 11.0737 6.54626 11.4559 6.36791 11.8781C6.18955 12.3004 6.09766 12.7541 6.09766 13.2125C6.09766 13.6708 6.18955 14.1245 6.36791 14.5468C6.54626 14.969 6.80746 15.3512 7.13605 15.6708C7.80717 16.3236 8.70648 16.6889 9.64272 16.6889C10.579 16.6889 11.4783 16.3236 12.1494 15.6708L18.0827 9.85247C18.1484 9.78856 18.2007 9.71212 18.2363 9.62767C18.272 9.54322 18.2904 9.45248 18.2904 9.3608C18.2904 9.26913 18.272 9.17839 18.2363 9.09394C18.2007 9.00949 18.1484 8.93305 18.0827 8.86914C17.9484 8.73841 17.7685 8.66527 17.5811 8.66527C17.3937 8.66527 17.2137 8.73841 17.0794 8.86914L11.1469 14.6875C10.7442 15.0793 10.2046 15.2986 9.64272 15.2986C9.08087 15.2986 8.5412 15.0793 8.13855 14.6875C7.9415 14.4957 7.78487 14.2663 7.67793 14.013C7.57098 13.7597 7.51588 13.4875 7.51588 13.2125C7.51588 12.9375 7.57098 12.6653 7.67793 12.4119C7.78487 12.1586 7.9415 11.9293 8.13855 11.7375L14.0719 5.91914Z" fill="black"/>
</g>
</g>
<defs>
<clipPath id="clip0_2183_28968">
<rect width="24" height="24" fill="white"/>
</clipPath>
</defs>
</svg>
