<?xml version="1.0" encoding="utf-8"?>
<svg version="1.1" id="Layer_1" xmlns="http://www.w3.org/2000/svg" xmlns:xlink="http://www.w3.org/1999/xlink" x="0px" y="0px"
	 viewBox="0 0 44 44" style="enable-background:new 0 0 44 44;" xml:space="preserve">
<style type="text/css">
	.st0{fill:#0078D7;}
	.st1{fill:#FFFFFF;}
</style>
<title>Group 25</title>
<desc>Created with Sketch.</desc>
<path id="Oval-554-Copy-4" class="st0" d="M22,44c12.2,0,22-9.8,22-22S34.2,0,22,0S0,9.8,0,22S9.8,44,22,44z"/>
<g>
	<g>
		<path class="st1" d="M33.2,19.2v14.1H19.2v-8.6c-0.4,0.1-0.9,0.1-1.4,0.1c-1,0-1.9-0.2-2.7-0.5c-0.9-0.4-1.6-0.9-2.2-1.5
			c-0.6-0.6-1.1-1.4-1.5-2.2c-0.4-0.9-0.5-1.8-0.5-2.7c0-1,0.2-1.9,0.5-2.7c0.4-0.9,0.9-1.6,1.5-2.2c0.6-0.6,1.4-1.1,2.2-1.5
			c0.9-0.4,1.8-0.5,2.7-0.5c1,0,1.9,0.2,2.7,0.5c0.9,0.4,1.6,0.9,2.2,1.5c0.6,0.6,1.1,1.4,1.5,2.2c0.4,0.9,0.5,1.8,0.5,2.7
			c0,0.5,0,1-0.1,1.4H33.2z M12.2,17.8c0,0.8,0.1,1.5,0.4,2.2c0.3,0.7,0.7,1.3,1.2,1.8c0.5,0.5,1.1,0.9,1.8,1.2
			c0.7,0.3,1.4,0.4,2.2,0.4s1.5-0.1,2.2-0.4c0.7-0.3,1.3-0.7,1.8-1.2c0.5-0.5,0.9-1.1,1.2-1.8c0.3-0.7,0.4-1.4,0.4-2.2
			s-0.1-1.5-0.4-2.2c-0.3-0.7-0.7-1.3-1.2-1.8c-0.5-0.5-1.1-0.9-1.8-1.2s-1.4-0.4-2.2-0.4s-1.5,0.1-2.2,0.4
			c-0.7,0.3-1.3,0.7-1.8,1.2c-0.5,0.5-0.9,1.1-1.2,1.8S12.2,17,12.2,17.8z M31.8,20.6h-7.6c-0.4,0.8-0.9,1.5-1.5,2.2
			c-0.6,0.6-1.3,1.1-2.2,1.5v7.6h11.2V20.6z M25.5,27.3l3.7-3.7l1,1l-4.7,4.7l-2.6-2.6l1-1L25.5,27.3z"/>
	</g>
	<rect x="14.3" y="17.1" transform="matrix(0.7071 -0.7071 0.7071 0.7071 -7.3651 17.7812)" class="st1" width="7" height="1.4"/>
	<rect x="17.1" y="14.3" transform="matrix(0.7071 -0.7071 0.7071 0.7071 -7.3652 17.7813)" class="st1" width="1.4" height="7"/>
</g>
</svg>
