<?xml version="1.0" encoding="UTF-8" standalone="no"?>
<svg width="13px" height="16px" viewBox="0 0 13 16" version="1.1" xmlns="http://www.w3.org/2000/svg" xmlns:xlink="http://www.w3.org/1999/xlink">
    <!-- Generator: Sketch 41.2 (35397) - http://www.bohemiancoding.com/sketch -->
    <title>Delete</title>
    <desc>Created with Sketch.</desc>
    <defs></defs>
    <g id="Page-2" stroke="none" stroke-width="1" fill="none" fill-rule="evenodd">
        <g id="Parameters---designer-3-Copy-4" transform="translate(-334.000000, -190.000000)" fill="#000000">
            <path d="M347,193 L346,193 L346,204.5 C346,204.708334 345.960938,204.903645 345.882812,205.085938 C345.804687,205.26823 345.697917,205.427083 345.5625,205.5625 C345.427083,205.697917 345.26823,205.804687 345.085938,205.882812 C344.903645,205.960938 344.708334,206 344.5,206 L336.5,206 C336.291666,206 336.096355,205.960938 335.914062,205.882812 C335.73177,205.804687 335.572917,205.697917 335.4375,205.5625 C335.302083,205.427083 335.195313,205.26823 335.117188,205.085938 C335.039062,204.903645 335,204.708334 335,204.5 L335,193 L334,193 L334,192 L338,192 L338,191 C338,190.859374 338.026041,190.729167 338.078125,190.609375 C338.130209,190.489583 338.201822,190.384115 338.292969,190.292969 C338.384115,190.201822 338.489583,190.130209 338.609375,190.078125 C338.729167,190.026041 338.859374,190 339,190 L342,190 C342.140626,190 342.270833,190.026041 342.390625,190.078125 C342.510417,190.130209 342.615885,190.201822 342.707031,190.292969 C342.798178,190.384115 342.869791,190.489583 342.921875,190.609375 C342.973959,190.729167 343,190.859374 343,191 L343,192 L347,192 L347,193 Z M339,192 L342,192 L342,191 L339,191 L339,192 Z M345,193 L336,193 L336,204.5 C336,204.635417 336.049479,204.752604 336.148438,204.851562 C336.247396,204.950521 336.364583,205 336.5,205 L344.5,205 C344.635417,205 344.752604,204.950521 344.851562,204.851562 C344.950521,204.752604 345,204.635417 345,204.5 L345,193 Z M339,203 L338,203 L338,195 L339,195 L339,203 Z M341,203 L340,203 L340,195 L341,195 L341,203 Z M343,203 L342,203 L342,195 L343,195 L343,203 Z" id="Delete"></path>
        </g>
    </g>
</svg>