<svg xmlns="http://www.w3.org/2000/svg" viewBox="0 0 2048 2048">
  <path d="M621 621l-402 403 402 403-90 90-494-493 494-493 90 90zm896-90l494 493-494 493-90-90 402-403-402-403 90-90zM640 896q27 0 50 10t40 27 28 41 10 50q0 27-10 50t-27 40-41 28-50 10q-27 0-50-10t-40-27-28-41-10-50q0-27 10-50t27-40 41-28 50-10zm384 0q27 0 50 10t40 27 28 41 10 50q0 27-10 50t-27 40-41 28-50 10q-27 0-50-10t-40-27-28-41-10-50q0-27 10-50t27-40 41-28 50-10zm512 128q0 27-10 50t-27 40-41 28-50 10q-27 0-50-10t-40-27-28-41-10-50q0-27 10-50t27-40 41-28 50-10q27 0 50 10t40 27 28 41 10 50z" />
</svg>