<?xml version="1.0" encoding="utf-8"?>
<svg version="1.1" id="Layer_1" xmlns="http://www.w3.org/2000/svg" xmlns:xlink="http://www.w3.org/1999/xlink" x="0px" y="0px"
	 width="21px" height="21px" viewBox="0 0 21 21" style="enable-background:new 0 0 21 21;" xml:space="preserve">
<style type="text/css">
	.st0{fill:#999999;}
	.st1{fill:#999999;}
	.st2{fill:#FFFFFF;}
</style>
<title>i</title>
<circle class="st0" cx="10.5" cy="10.5" r="9.8"/>
<path class="st1" d="M10.5,21C4.7,21,0,16.3,0,10.5S4.7,0,10.5,0S21,4.7,21,10.5C21,16.3,16.3,21,10.5,21z M10.5,1.3
	c-5.1,0-9.2,4.1-9.2,9.2s4.1,9.2,9.2,9.2s9.2-4.1,9.2-9.2l0,0C19.7,5.4,15.6,1.3,10.5,1.3z"/>
<rect x="9" y="8" class="st2" width="3" height="9"/>
<rect x="9" y="4" class="st2" width="3" height="3"/>
</svg>
