<svg width="100" height="100" viewBox="0 0 100 100" fill="none" xmlns="http://www.w3.org/2000/svg">
<g clip-path="url(#clip0)">
<path d="M0.937424 28.0625C0.437424 28.0625 0.062424 27.6875 -7.60104e-05 27.1875C-0.062576 26.6875 0.312424 26.1875 0.874924 26.1875C0.937424 26.1875 1.87492 26.125 3.49992 26.125C3.99992 26.125 4.43742 26.5625 4.43742 27.0625C4.43742 27.5625 3.99992 28 3.49992 28C2.06242 28 1.12492 28.0625 1.12492 28.0625C0.999924 28.0625 0.937424 28.0625 0.937424 28.0625Z" fill="#E1DFDD"/>
<path d="M34.6249 97.0625C32.9374 97 31.2499 96.8125 29.6249 96.5C29.1249 96.375 28.8124 95.875 28.8749 95.375C28.9999 94.875 29.4999 94.5625 29.9999 94.625C31.4999 94.9375 33.0624 95.125 34.6249 95.125C35.1249 95.125 35.5624 95.5625 35.5624 96.0625C35.5624 96.625 35.1249 97.0625 34.6249 97.0625ZM39.4374 96.6875C38.9999 96.6875 38.5624 96.375 38.4999 95.875C38.4374 95.375 38.7499 94.875 39.2499 94.8125C40.8749 94.5625 42.3749 94.125 43.6874 93.5625C44.1874 93.375 44.6874 93.5625 44.9374 94.0625C45.1249 94.5625 44.9374 95.0625 44.4374 95.3125C42.9374 95.9375 41.3124 96.375 39.5624 96.6875C39.5624 96.6875 39.4999 96.6875 39.4374 96.6875ZM25.1874 95C25.0624 95 24.9374 95 24.8124 94.9375C23.1874 94.25 21.7499 93.3125 20.4999 92.3125C20.1249 92 20.0624 91.375 20.3749 91C20.6874 90.625 21.3124 90.5625 21.6874 90.875C22.8124 91.8125 24.1874 92.625 25.6249 93.25C26.1249 93.4375 26.3124 94 26.1249 94.5C25.9374 94.8125 25.5624 95 25.1874 95ZM48.1874 92.8125C47.9374 92.8125 47.6874 92.6875 47.4999 92.5C47.1874 92.125 47.1874 91.5 47.6249 91.1875C48.8124 90.1875 49.9374 89.0625 50.9999 87.875C51.3749 87.5 51.9374 87.4375 52.3124 87.8125C52.6874 88.1875 52.7499 88.75 52.3749 89.125C51.2499 90.375 50.0624 91.5625 48.8124 92.625C48.6249 92.75 48.4374 92.8125 48.1874 92.8125ZM17.8124 89C17.4999 89 17.1874 88.875 16.9999 88.5625C16.0624 87.125 15.3749 85.5625 14.8749 83.875C14.7499 83.375 14.9999 82.875 15.4999 82.75C15.9999 82.625 16.4999 82.875 16.6249 83.375C17.0624 84.875 17.6874 86.25 18.4999 87.5C18.8124 87.9375 18.6874 88.5 18.2499 88.8125C18.1874 88.9375 17.9999 89 17.8124 89ZM54.6874 85.6875C54.4999 85.6875 54.3124 85.625 54.1249 85.5C53.6874 85.1875 53.6249 84.625 53.8749 84.1875C54.7499 82.9375 55.6249 81.5625 56.3749 80.1875C56.6249 79.75 57.1874 79.5625 57.6249 79.8125C58.0624 80.0625 58.2499 80.625 57.9999 81.0625C57.1874 82.5 56.3124 83.9375 55.3749 85.25C55.2499 85.5 54.9374 85.6875 54.6874 85.6875ZM15.1249 79.8125C14.6249 79.8125 14.2499 79.4375 14.1874 78.9375C14.1249 78.25 14.1249 77.625 14.1249 76.9375C14.1249 75.875 14.1874 74.875 14.3124 73.875C14.3749 73.375 14.8749 73 15.3749 73.0625C15.8749 73.125 16.2499 73.625 16.1874 74.125C16.0624 75 15.9999 75.9375 15.9999 76.9375C15.9999 77.5625 15.9999 78.125 16.0624 78.75C16.1249 79.25 15.6874 79.6875 15.1874 79.75C15.1249 79.8125 15.1249 79.8125 15.1249 79.8125ZM59.3749 77.1875C59.2499 77.1875 59.1249 77.1875 58.9999 77.125C58.4999 76.9375 58.3124 76.375 58.4999 75.875C59.1249 74.4375 59.6874 72.9375 60.1874 71.4375C60.3749 70.9375 60.8749 70.6875 61.3749 70.875C61.8749 71.0625 62.1249 71.5625 61.9374 72.0625C61.4374 73.625 60.8124 75.1875 60.1874 76.6875C60.0624 77 59.7499 77.1875 59.3749 77.1875ZM16.3749 70.3125C16.2499 70.3125 16.1249 70.3125 16.0624 70.25C15.5624 70.0625 15.3124 69.5 15.4999 69.0625C16.0624 67.625 16.7499 66.25 17.7499 64.5625C17.9999 64.125 18.5624 64 19.0624 64.25C19.4999 64.5 19.6249 65.0625 19.3749 65.5625C18.4374 67.125 17.8124 68.4375 17.3124 69.75C17.1249 70.0625 16.7499 70.3125 16.3749 70.3125ZM21.0624 61.875C20.8749 61.875 20.7499 61.8125 20.5624 61.75C20.1249 61.5 19.9999 60.875 20.2499 60.4375C21.1874 58.875 21.8749 57.5625 22.4374 56.25C22.6249 55.75 23.1874 55.5625 23.6874 55.75C24.1874 55.9375 24.3749 56.5 24.1874 57C23.6249 58.375 22.8749 59.75 21.8749 61.375C21.6874 61.6875 21.3749 61.875 21.0624 61.875ZM24.7499 52.9375C24.6874 52.9375 24.6249 52.9375 24.5624 52.9375C24.0624 52.8125 23.7499 52.3125 23.8124 51.8125C24.1249 50.3125 24.2499 48.8125 24.3124 47.1875C24.3124 46.6875 24.7499 46.25 25.2499 46.25C25.7499 46.25 26.1874 46.6875 26.1874 47.1875C26.1249 48.9375 25.9999 50.5625 25.6874 52.1875C25.5624 52.625 25.1874 52.9375 24.7499 52.9375ZM24.9999 43.3125C24.5624 43.3125 24.1249 43 24.0624 42.5C23.8124 40.9375 23.4374 39.4375 22.8124 38.125C22.6249 37.625 22.8124 37.125 23.3124 36.875C23.8124 36.6875 24.3124 36.875 24.5624 37.375C25.1874 38.875 25.6874 40.5 25.9374 42.25C25.9999 42.75 25.6874 43.25 25.1249 43.3125C25.0624 43.3125 25.0624 43.3125 24.9999 43.3125ZM21.0624 34.625C20.8124 34.625 20.5624 34.5 20.3749 34.3125C19.3749 33.1875 18.1874 32.25 16.8749 31.4375C16.4374 31.1875 16.3124 30.5625 16.5624 30.125C16.8124 29.6875 17.4374 29.5625 17.8749 29.8125C19.3749 30.75 20.6874 31.8125 21.8124 33.0625C22.1874 33.4375 22.1249 34.0625 21.7499 34.375C21.5624 34.5625 21.3124 34.625 21.0624 34.625ZM12.9374 29.5625C12.8124 29.5625 12.7499 29.5625 12.6249 29.5C11.1874 29 9.68742 28.6875 8.06242 28.4375C7.56242 28.375 7.18742 27.875 7.24992 27.375C7.31242 26.875 7.81242 26.5 8.31242 26.5625C9.99992 26.8125 11.6874 27.25 13.1874 27.75C13.6874 27.9375 13.9374 28.4375 13.7499 28.9375C13.7499 29.3125 13.3749 29.5625 12.9374 29.5625Z" fill="#E1DFDD"/>
<path d="M62.4374 67.9375C62.3749 67.9375 62.3124 67.9375 62.2499 67.9375C61.7499 67.8125 61.4374 67.3125 61.5624 66.8125C61.8749 65.3125 62.0624 64.4375 62.0624 64.4375C62.1249 63.9375 62.6249 63.5625 63.1249 63.625C63.6249 63.6875 63.9999 64.1875 63.9374 64.6875C63.9374 64.75 63.8124 65.6875 63.4374 67.1875C63.2499 67.625 62.8749 67.9375 62.4374 67.9375Z" fill="#E1DFDD"/>
<path d="M99 4.06253C99 4.06253 99.125 4.06253 99.1875 4.12503C99.5 4.31253 90.125 21.625 64.5625 67.5C64.25 68.0625 63.625 68.375 62.9375 68.3125C62.3125 68.25 61.75 67.8125 61.5625 67.125L57.4375 50.8125C57.5 50.625 57.625 50.5 57.8125 49.8125C64.6875 23.5625 96.625 6.75003 97.9375 4.87503C98 4.75003 98.5 4.00003 99 4.06253Z" fill="#FFD590"/>
<path d="M62.5625 71.125L57.5 50.875L100.375 2.5L62.5625 71.125Z" fill="#FFD590"/>
<path d="M62.5625 71.125L63.0625 53.625L71 55.8125L62.5625 71.125Z" fill="#F7B548"/>
<path d="M39 45.3126L57.5 50.9376L98.9999 4.12508C98.5625 4.00008 98.125 4.00008 97.6875 4.25008L95.4375 5.62508L38.1875 41.6876C37 42.7501 37.375 44.8126 39 45.3126Z" fill="#FFE5B9"/>
<path d="M90.25 61.25C91.5 61.625 92.75 60.75 92.9375 59.5L100 5.3125C99.9375 4.8125 99.625 4.375 99.1875 4.1875L63.125 53.6875L90.25 61.25Z" fill="#FFE5B9"/>
</g>
<defs>
<clipPath id="clip0">
<rect width="100" height="100" fill="white"/>
</clipPath>
</defs>
</svg>
