<svg xmlns="http://www.w3.org/2000/svg" viewBox="0 0 15 15">
    <defs>
        <style>
        .a {
            fill: #333333;
        }
        </style>
    </defs>
    <title>InfoSlim</title>
    <path class="a" d="M12476.5,5647a7.43,7.43,0,0,1-2-.27,7.49,7.49,0,0,1-5.24-5.24,7.63,7.63,0,0,1,0-4,7.49,7.49,0,0,1,5.24-5.24,7.63,7.63,0,0,1,4,0,7.49,7.49,0,0,1,5.24,5.24,7.63,7.63,0,0,1,0,4,7.49,7.49,0,0,1-5.24,5.24A7.43,7.43,0,0,1,12476.5,5647Zm0-14a6.31,6.31,0,0,0-1.73.23,6.66,6.66,0,0,0-1.55.66,6.5,6.5,0,0,0-2.33,2.33,6.64,6.64,0,0,0-.66,1.55,6.45,6.45,0,0,0,0,3.45,6.64,6.64,0,0,0,.66,1.55,6.5,6.5,0,0,0,2.33,2.33,6.66,6.66,0,0,0,1.55.66,6.46,6.46,0,0,0,3.45,0,6.64,6.64,0,0,0,1.55-.66,6.5,6.5,0,0,0,2.33-2.33,6.66,6.66,0,0,0,.66-1.55,6.46,6.46,0,0,0,0-3.45,6.64,6.64,0,0,0-.66-1.55,6.5,6.5,0,0,0-2.33-2.33,6.64,6.64,0,0,0-1.55-.66A6.32,6.32,0,0,0,12476.5,5633Zm-0.5,3h1v1h-1v-1Zm0,2h1v5h-1v-5Z" transform="translate(-12469 -5632)" />
</svg>
