<svg xmlns="http://www.w3.org/2000/svg" viewBox="0 0 12 12">
    <defs>
        <style>.a{fill:#333;}</style>
    </defs>
    <polygon class="a" points="8 0 6 0 6 1 8 1 8 0 8 0" />
    <polygon class="a" points="4 0 2 0 2 1 4 1 4 0 4 0" />
    <polygon class="a" points="1 2 0 2 0 4 1 4 1 2 1 2 1 2 1 2" />
    <polygon class="a" points="1 6 0 6 0 8 1 8 1 6 1 6" />
    <polygon class="a" points="3 9 1 9 1 10 3 10 3 9 3 9" />
    <polygon class="a" points="10 1 9 1 9 3 10 3 10 1 10 1" />
    <path class="a" d="M11,4v7H4V4h7m1-1H3v9h9V3Z" />
    <rect class="a" x="7" y="6" width="1" height="4" />
    <rect class="a" x="5" y="5" width="5" height="1" />
</svg>