<svg xmlns="http://www.w3.org/2000/svg" viewBox="0 0 32 32"><defs id="defs9"><style id="style2">.cls-1{isolation:isolate;}.cls-2{fill:#742774;}. cls-3{opacity:0;mix-blend-mode:multiply;fill:url(#linear-gradient);}.cls-4{fill:#fff;}</style><linearGradient id="linear-gradient" x1="16" x2="16" y2="32" gradientUnits="userSpaceOnUse"><stop offset="0" stop-color="#231f20" stop-opacity="0" id="stop4"/><stop offset="1" id="stop6"/></linearGradient></defs><title id="title11">designer icons</title><path id="Rectangle-path" fill="#07f" fill-rule="evenodd" d="M0 0h32v32h-32z"/><path d="M13.729 13.934v-3.419c0-1.262 1.024-2.286 2.286-2.286s2.286 1.024 2.286 2.286v3.419c1.106-.741 1.829-1.993 1.829-3.419 0-2.277-1.838-4.114-4.114-4.114-2.277 0-4.114 1.838-4.114 4.114 0 1.426.722 2.679 1.829 3.419zm8.997 4.233l-4.151-2.066c-.155-.064-.32-.101-.494-.101h-.695v-5.486c0-.759-.613-1.371-1.371-1.371-.759 0-1.371.613-1.371 1.371v9.819l-3.136-.658-.219-.027c-.283 0-.539.119-.722.302l-.722.731 4.517 4.517c.247.247.594.402.969.402h6.208c.686 0 1.216-.503 1.317-1.17l.686-4.818.018-.183c0-.567-.347-1.061-.832-1.262z" id="Shape" fill="#fff" fill-rule="evenodd"/></svg>