<?xml version="1.0" encoding="utf-8"?>
<svg version="1.1" id="Layer_1" xmlns="http://www.w3.org/2000/svg" xmlns:xlink="http://www.w3.org/1999/xlink" x="0px" y="0px"
	 viewBox="0 0 500 500" style="enable-background:new 0 0 500 500;" xml:space="preserve">
<style type="text/css">
	.st0{opacity:0.2;}
	.st1{fill:#FFFFFF;}
	.st2{opacity:0.12;}
	.st3{fill:#036C70;}
	.st4{fill:#1A9BA1;}
	.st5{fill:#37C6D0;}
	.st6{fill:none;}
	.st7{clip-path:url(#SVGID_2_);}
	.st8{opacity:0.48;}
	.st9{opacity:0.24;}
	.st10{opacity:0.5;fill:url(#SVGID_3_);}
	.st11{fill:#038387;}
	.st12{opacity:0.5;}
	.st13{fill:url(#SVGID_4_);}
</style>
<g id="_x34_16_1_">
	<g>
		<g class="st0">
			
				<image style="overflow:visible;" width="1478" height="1722" xlink:href="58160183E927D244.png"  transform="matrix(0.24 0 0 0.24 105.155 48.275)">
			</image>
			<path class="st1" d="M353.8,172.2c0-1.1,0.2-2.3,0.2-3.4c0-66.4-53.8-120.2-120.2-120.2c-66.4,0-120.2,53.8-120.2,120.2
				c0,62.7,48,114.2,109.3,119.7c-29.8,12-50.8,41.2-50.8,75.3c0,44.9,36.4,81.2,81.2,81.2c42.1,0,76.7-32,80.8-73
				c5.4,0.9,11,1.5,16.7,1.5c55.6,0,100.8-45.1,100.8-100.8C451.5,218.1,408,173.8,353.8,172.2z"/>
		</g>
		<g class="st2">
			
				<image style="overflow:visible;" width="1436" height="1679" xlink:href="58160183E927D245.png"  transform="matrix(0.24 0 0 0.24 110.2148 46.3748)">
			</image>
			<path class="st1" d="M353.8,172.2c0-1.1,0.2-2.3,0.2-3.4c0-66.4-53.8-120.2-120.2-120.2c-66.4,0-120.2,53.8-120.2,120.2
				c0,62.7,48,114.2,109.3,119.7c-29.8,12-50.8,41.2-50.8,75.3c0,44.9,36.4,81.2,81.2,81.2c42.1,0,76.7-32,80.8-73
				c5.4,0.9,11,1.5,16.7,1.5c55.6,0,100.8-45.1,100.8-100.8C451.5,218.1,408,173.8,353.8,172.2z"/>
		</g>
	</g>
	<circle class="st3" cx="233.8" cy="168.8" r="120.2"/>
	<circle class="st4" cx="350.8" cy="272.8" r="100.8"/>
	<circle class="st5" cx="253.2" cy="363.8" r="81.2"/>
	<rect x="42" y="42" class="st6" width="416" height="416"/>
	<g>
		<defs>
			<path id="SVGID_1_" d="M353.8,172.2c0-1.1,0.2-2.3,0.2-3.4c0-66.4-53.8-120.2-120.2-120.2c-66.4,0-120.2,53.8-120.2,120.2
				c0,62.7,48,114.2,109.3,119.7c-29.8,12-50.8,41.2-50.8,75.3c0,44.9,36.4,81.2,81.2,81.2c42.1,0,76.7-32,80.8-73
				c5.4,0.9,11,1.5,16.7,1.5c55.6,0,100.8-45.1,100.8-100.8C451.5,218.1,408,173.8,353.8,172.2z"/>
		</defs>
		<clipPath id="SVGID_2_">
			<use xlink:href="#SVGID_1_"  style="overflow:visible;"/>
		</clipPath>
		<g class="st7">
			<g>
				<g id="Ambient_224_">
					<g class="st8">
						
							<image style="overflow:visible;" width="1193" height="1193" xlink:href="58160183E927D243.png"  transform="matrix(0.24 0 0 0.24 2.7604 124.2004)">
						</image>
						<path class="st1" d="M232.7,354H59.3c-9.5,0-17.3-7.8-17.3-17.3V163.3c0-9.5,7.8-17.3,17.3-17.3h173.3
							c9.5,0,17.3,7.8,17.3,17.3v173.3C250,346.2,242.2,354,232.7,354z"/>
					</g>
					<g class="st9">
						
							<image style="overflow:visible;" width="909" height="908" xlink:href="58160183E927D24C.png"  transform="matrix(0.24 0 0 0.24 36.885 142.7251)">
						</image>
						<path class="st1" d="M232.7,354H59.3c-9.5,0-17.3-7.8-17.3-17.3V163.3c0-9.5,7.8-17.3,17.3-17.3h173.3
							c9.5,0,17.3,7.8,17.3,17.3v173.3C250,346.2,242.2,354,232.7,354z"/>
					</g>
				</g>
			</g>
		</g>
	</g>
	<linearGradient id="SVGID_3_" gradientUnits="userSpaceOnUse" x1="168.5034" y1="67.5442" x2="358.5823" y2="396.7704">
		<stop  offset="0" style="stop-color:#FFFFFF;stop-opacity:0.5"/>
		<stop  offset="0.1396" style="stop-color:#C9C9C9;stop-opacity:0.5279"/>
		<stop  offset="0.3138" style="stop-color:#8D8D8D;stop-opacity:0.5628"/>
		<stop  offset="0.4817" style="stop-color:#5A5A5A;stop-opacity:0.5963"/>
		<stop  offset="0.6385" style="stop-color:#333333;stop-opacity:0.6277"/>
		<stop  offset="0.7818" style="stop-color:#171717;stop-opacity:0.6564"/>
		<stop  offset="0.9069" style="stop-color:#060606;stop-opacity:0.6814"/>
		<stop  offset="1" style="stop-color:#000000;stop-opacity:0.7"/>
	</linearGradient>
	<path class="st10" d="M353.8,172.2c0-1.1,0.2-2.3,0.2-3.4c0-66.4-53.8-120.2-120.2-120.2c-66.4,0-120.2,53.8-120.2,120.2
		c0,62.7,48,114.2,109.3,119.7c-29.8,12-50.8,41.2-50.8,75.3c0,44.9,36.4,81.2,81.2,81.2c42.1,0,76.7-32,80.8-73
		c5.4,0.9,11,1.5,16.7,1.5c55.6,0,100.8-45.1,100.8-100.8C451.5,218.1,408,173.8,353.8,172.2z"/>
	<path class="st11" d="M232.7,354H59.3c-9.6,0-17.3-7.8-17.3-17.3V163.3c0-9.6,7.8-17.3,17.3-17.3h173.3c9.6,0,17.3,7.8,17.3,17.3
		v173.3C250,346.2,242.2,354,232.7,354z"/>
	<g class="st12">
		<linearGradient id="SVGID_4_" gradientUnits="userSpaceOnUse" x1="78.1378" y1="132.4586" x2="213.8629" y2="367.5414">
			<stop  offset="0" style="stop-color:#FFFFFF;stop-opacity:0.5"/>
			<stop  offset="1" style="stop-color:#000000;stop-opacity:0.7"/>
		</linearGradient>
		<path class="st13" d="M232.7,354H59.3c-9.6,0-17.3-7.8-17.3-17.3V163.3c0-9.6,7.8-17.3,17.3-17.3h173.3c9.6,0,17.3,7.8,17.3,17.3
			v173.3C250,346.2,242.2,354,232.7,354z"/>
	</g>
	<g>
		<g>
			<path class="st1" d="M119.8,248c-4-2.8-7.1-6-9.3-9.8c-2.2-3.8-3.2-8.2-3.2-13.4c0-6.9,2-12.7,6-17.4c4-4.7,9.3-8.2,16-10.4
				c6.6-2.3,13.9-3.4,21.8-3.4c12.1,0,21.7,1.3,28.7,4V218c-3.7-2.3-8.1-4.1-13-5.3c-4.9-1.2-10-1.8-15.2-1.8
				c-6.3,0-11.5,1.1-15.6,3.3c-4.1,2.2-6.2,5.3-6.2,9.4c0,2.5,0.9,4.7,2.6,6.6c1.7,1.9,4.1,3.6,7.1,5.1c3,1.5,7.4,3.4,13.3,5.8
				c1,0.4,1.6,0.6,1.9,0.8c6.9,2.8,12.5,5.6,16.7,8.2c4.2,2.7,7.5,6,9.9,10c2.4,4,3.6,9,3.6,15c0,7.4-1.9,13.4-5.6,18.1
				c-3.7,4.7-8.8,8-15,10.1c-6.3,2.1-13.4,3.1-21.4,3.1c-6.8,0-13.3-0.5-19.4-1.6c-6.1-1.1-11.4-2.6-15.8-4.6v-21.4
				c4.3,3.2,9.6,5.7,16,7.6c6.3,1.9,12.2,2.8,17.5,2.8c7,0,12.3-1.1,15.9-3.4c3.6-2.3,5.4-5.4,5.4-9.5c0-2.8-1-5.2-3-7.3
				c-2-2.1-4.8-4-8.3-5.8c-3.5-1.8-8.7-4.1-15.6-7C129,253.5,123.8,250.8,119.8,248z"/>
		</g>
	</g>
</g>
</svg>
