<?xml version="1.0" encoding="UTF-8" standalone="no"?>
<svg xmlns:dc="http://purl.org/dc/elements/1.1/" xmlns:cc="http://creativecommons.org/ns#" xmlns:rdf="http://www.w3.org/1999/02/22-rdf-syntax-ns#" xmlns:svg="http://www.w3.org/2000/svg" xmlns="http://www.w3.org/2000/svg" xmlns:sodipodi="http://sodipodi.sourceforge.net/DTD/sodipodi-0.dtd" xmlns:inkscape="http://www.inkscape.org/namespaces/inkscape" width="18" height="18" viewBox="0 0 18 18" version="1.1" id="svg160" sodipodi:docname="02631-icon-service-Logic-Apps (1) (2).svg" inkscape:version="1.0.2-2 (e86c870879, 2021-01-15)">
	<metadata id="metadata164">
		<RDF>
			<Work rdf:about="">
				<format>
					image/svg+xml
				</format>
				<type rdf:resource="http://purl.org/dc/dcmitype/StillImage" />
				<title>
				</title>
			</Work>
		</RDF>
	</metadata>
	<namedview pagecolor="#ffffff" bordercolor="#666666" borderopacity="1" objecttolerance="10" gridtolerance="10" guidetolerance="10" inkscape:pageopacity="0" inkscape:pageshadow="2" inkscape:window-width="3840" inkscape:window-height="2093" id="namedview162" showgrid="false" inkscape:zoom="56" inkscape:cx="6.1160714" inkscape:cy="9" inkscape:window-x="-9" inkscape:window-y="-9" inkscape:window-maximized="1" inkscape:current-layer="svg160" />
	<defs id="defs147">
		<linearGradient id="ba6b54e9-66d7-42e0-a289-95171eaf47f3" x1="9" y1="1.796" x2="9" y2="6.371" gradientUnits="userSpaceOnUse">
			<stop offset="0" stop-color="#9cebff" id="stop132" />
			<stop offset="1" stop-color="#50e6ff" id="stop134" />
		</linearGradient>
		<linearGradient id="e5c23c93-889c-4cfe-8adf-72bfa2a5b6e4" x1="3.374" y1="12.14" x2="3.374" y2="18.457" gradientUnits="userSpaceOnUse">
			<stop offset="0.001" stop-color="#b4ec36" id="stop137" />
			<stop offset="1" stop-color="#86d633" id="stop139" />
		</linearGradient>
		<linearGradient id="fb46250a-f4a9-418f-b6ae-1a568665f153" x1="14.626" y1="12.14" x2="14.626" y2="18.457" gradientTransform="rotate(-90,14.6265,14.6465)" gradientUnits="userSpaceOnUse">
			<stop offset="0.001" stop-color="#b4ec36" id="stop142" />
			<stop offset="1" stop-color="#86d633" id="stop144" />
		</linearGradient>
		<linearGradient id="b403aca7-f387-4434-96b4-ae157edc835f" x1="-175.993" y1="-343.72299" x2="-175.993" y2="-359.23199" gradientTransform="matrix(1.156,0,0,1.029,212.53781,371.20819)" gradientUnits="userSpaceOnUse">
			<stop offset="0" stop-color="#fea11b" id="stop254" />
			<stop offset="0.284" stop-color="#fea51a" id="stop256" />
			<stop offset="0.547" stop-color="#feb018" id="stop258" />
			<stop offset="0.8" stop-color="#ffc314" id="stop260" />
			<stop offset="1" stop-color="#ffd70f" id="stop262" />
		</linearGradient>
	</defs>
	<g id="a9693b19-30a4-439f-a536-87fc73c5ba8c" transform="matrix(0.77777777,0,0,0.77605319,2,2.0155211)">
		<g id="g157">
			<path d="M 13.851,9.047 H 10.939 A 1.518,1.518 0 0 1 9.421,7.529 V 4.33 H 8.579 v 3.2 A 1.518,1.518 0 0 1 7.061,9.047 H 4.149 a 1.2,1.2 0 0 0 -1.2,1.2 v 2.338 H 3.79 V 10.244 A 0.355,0.355 0 0 1 4.146,9.889 H 7.061 A 2.353,2.353 0 0 0 8.8,9.125 a 0.278,0.278 0 0 1 0.408,0 2.353,2.353 0 0 0 1.735,0.764 h 2.912 a 0.354,0.354 0 0 1 0.355,0.355 v 2.338 h 0.841 v -2.338 a 1.2,1.2 0 0 0 -1.2,-1.197 z" fill="#0078d4" id="path149" />
			<rect x="5.6259999" y="-0.02" width="6.7470002" height="6.7470002" rx="0.60399997" fill="url(#ba6b54e9-66d7-42e0-a289-95171eaf47f3)" id="rect151" style="fill:url(#ba6b54e9-66d7-42e0-a289-95171eaf47f3)" />
			<rect y="11.273" width="6.7470002" height="6.7470002" rx="0.60399997" fill="url(#e5c23c93-889c-4cfe-8adf-72bfa2a5b6e4)" id="rect153" style="fill:url(#e5c23c93-889c-4cfe-8adf-72bfa2a5b6e4)" x="0" />
			<rect x="11.253" y="11.273" width="6.7470002" height="6.7470002" rx="0.60399997" transform="rotate(90,14.6265,14.6465)" fill="url(#fb46250a-f4a9-418f-b6ae-1a568665f153)" id="rect155" style="fill:url(#fb46250a-f4a9-418f-b6ae-1a568665f153)" />
		</g>
	</g>
</svg>
