<svg width="100" height="100" viewBox="0 0 100 100" fill="none" xmlns="http://www.w3.org/2000/svg">
<path d="M74.25 93.375L66.875 52.5625C66.625 51.0625 65.1875 49.6875 63.6875 49.5L27.125 44.25L26.875 43.25L26.125 40.4375C25.8125 39.3125 24.6875 38.3125 23.5625 38.1875L18.5625 37.5L7.81245 35.9375C6.31245 35.75 5.37495 36.75 5.68745 38.25L7.43745 45.75L14.5 84.875C14.625 85.75 15.1875 86.5625 15.9375 87.125C16.5 87.5625 17.125 87.875 17.75 87.9375L71.6875 95.625C72.3125 95.6875 73.0625 95.5625 73.6875 95.3125C74.125 94.875 74.375 94.1875 74.25 93.375Z" fill="url(#paint0_radial)"/>
<path d="M69.375 4.375L31.0625 24.875C31.0625 24.875 40 54.25 59.625 69.5625C76.375 59.6875 95 48.75 95 48.75C95 48.75 78.3125 37.1875 69.375 4.375Z" fill="#E1DFDD"/>
<path d="M89.4376 56.6251L67.0001 53.4376L35.1876 48.8751C33.6876 48.6876 31.9376 49.6251 31.3126 51.0001L15.8126 85.0001C15.4376 85.8126 15.5626 86.5626 15.9376 87.1251C16.5001 87.5626 17.1251 87.8751 17.7501 87.9376L71.6876 95.6251C72.3126 95.6876 73.0626 95.5626 73.6876 95.3126C74.5001 94.9376 75.1876 94.3126 75.5626 93.5001L91.0626 59.5001C91.6251 58.1251 90.9376 56.8126 89.4376 56.6251Z" fill="#A7CBF6"/>
<defs>
<radialGradient id="paint0_radial" cx="0" cy="0" r="1" gradientUnits="userSpaceOnUse" gradientTransform="translate(39.9571 65.7885) scale(32.1724)">
<stop stop-color="#72ACF1"/>
<stop offset="1" stop-color="#A7CBF6"/>
</radialGradient>
</defs>
</svg>
