<?xml version="1.0" encoding="utf-8"?>
<svg xmlns="http://www.w3.org/2000/svg" viewBox="0 0 32 32">
    <g>
        <path d="M16 0C7.16 0 0 7.16 0 16s7.16 16 16 16 16-7.16 16-16S24.84 0 16 0zm0 30C8.28 30 2 23.72 2 16S8.28 2 16 2s14 6.28 14 14-6.28 14-14 14zm6-16c-1.1 0-2-.9-2-2s.9-2 2-2 2 .9 2 2-.9 2-2 2zm-12 0c-1.1 0-2-.9-2-2s.9-2 2-2 2 .9 2 2-.9 2-2 2zm14.93 6.47C23.29 23.74 19.91 26 16 26s-7.29-2.26-8.93-5.53l1.79-.89C10.17 22.19 12.87 24 16 24s5.83-1.81 7.15-4.43l1.78.9z">
        </path>
    </g>
</svg>
