<?xml version="1.0" standalone="no"?>
<!DOCTYPE svg PUBLIC "-//W3C//DTD SVG 20010904//EN" "http://www.w3.org/TR/2001/REC-SVG-20010904/DTD/svg10.dtd">
<svg version="1.0" xmlns="http://www.w3.org/2000/svg"
    width="156.000000pt" height="156.000000pt" viewBox="0 0 156.000000 156.000000" style="background-color:#8a8a8a"
    preserveAspectRatio="xMidYMid meet">

    <g transform="translate(0.000000,156.000000) scale(0.100000,-0.100000)"
        fill="#000000" stroke="none">
        <path d="M95 1546 c-41 -18 -83 -69 -90 -109 -3 -18 -5 -325 -3 -684 3 -640 3
-652 24 -679 11 -15 33 -37 48 -48 27 -21 36 -21 706 -21 670 0 679 0 706 21
15 11 37 33 48 48 21 27 21 36 21 706 0 670 0 679 -21 706 -11 15 -33 37 -48
48 -27 21 -38 21 -694 23 -539 2 -673 0 -697 -11z m1332 -119 c11 -11 11
-1283 0 -1294 -11 -11 -1283 -11 -1294 0 -9 10 -17 1214 -8 1264 3 18 13 34
23 36 31 9 1270 2 1279 -6z" />
        <path d="M665 1307 c-58 -19 -82 -34 -133 -81 -53 -49 -92 -125 -92 -183 0
-34 5 -46 31 -67 62 -53 108 -32 155 72 43 94 56 109 107 123 63 17 122 3 162
-37 31 -31 35 -41 35 -86 l0 -51 -104 -101 c-113 -110 -134 -142 -143 -216 -9
-80 24 -130 87 -130 32 0 68 42 84 101 14 50 26 65 121 157 67 64 113 117 125
144 27 60 26 140 -4 203 -29 61 -64 95 -136 131 -47 24 -69 29 -155 31 -63 2
-115 -2 -140 -10z" />
        <path d="M725 478 c-60 -32 -75 -115 -30 -161 30 -30 66 -38 111 -25 42 11 64
42 64 91 0 49 -13 73 -50 92 -34 18 -67 19 -95 3z" />
    </g>
</svg>