<?xml version="1.0" encoding="UTF-8"?>
<!DOCTYPE svg PUBLIC "-//W3C//DTD SVG 1.1//EN" "http://www.w3.org/Graphics/SVG/1.1/DTD/svg11.dtd">
<svg xmlns="http://www.w3.org/2000/svg" version="1.1" width="13px" height="13px" style="shape-rendering:geometricPrecision; text-rendering:geometricPrecision; image-rendering:optimizeQuality; fill-rule:evenodd; clip-rule:evenodd" xmlns:xlink="http://www.w3.org/1999/xlink">
<g><path style="opacity:0.561" fill="#66dbe8" d="M 8.5,0.5 C 9.83333,0.5 11.1667,0.5 12.5,0.5C 12.5,1.5 12.5,2.5 12.5,3.5C 10.901,3.76781 9.56764,3.43448 8.5,2.5C 8.5,1.83333 8.5,1.16667 8.5,0.5 Z"/></g>
<g><path style="opacity:0.255" fill="#faab2c" d="M 4.5,2.5 C 4.16667,2.5 3.83333,2.5 3.5,2.5C 2.83333,2.5 2.16667,2.5 1.5,2.5C 2.5,-0.166667 3.5,-0.166667 4.5,2.5 Z"/></g>
<g><path style="opacity:0.186" fill="#c9cccd" d="M 8.5,0.5 C 8.5,1.16667 8.5,1.83333 8.5,2.5C 7.66175,2.84171 7.32842,3.50838 7.5,4.5C 6.83333,4.5 6.16667,4.5 5.5,4.5C 5.5,4.16667 5.5,3.83333 5.5,3.5C 5.5,1.5 6.5,0.5 8.5,0.5 Z"/></g>
<g><path style="opacity:0.608" fill="#5a6873" d="M 1.5,2.5 C 2.16667,2.5 2.83333,2.5 3.5,2.5C 3.28519,4.17876 3.95186,5.17876 5.5,5.5C 5.5,5.83333 5.5,6.16667 5.5,6.5C 4.29208,7.23411 2.95875,7.56745 1.5,7.5C 1.5,6.16667 1.5,4.83333 1.5,3.5C 1.5,3.16667 1.5,2.83333 1.5,2.5 Z"/></g>
<g><path style="opacity:0.09" fill="#213945" d="M 3.5,2.5 C 3.83333,2.5 4.16667,2.5 4.5,2.5C 4.5,3.16667 4.83333,3.5 5.5,3.5C 5.5,3.83333 5.5,4.16667 5.5,4.5C 5.5,4.83333 5.5,5.16667 5.5,5.5C 3.95186,5.17876 3.28519,4.17876 3.5,2.5 Z"/></g>
<g><path style="opacity:0.408" fill="#2886e6" d="M 8.5,4.5 C 9.83333,4.5 11.1667,4.5 12.5,4.5C 12.5,5.5 12.5,6.5 12.5,7.5C 11.1667,7.5 9.83333,7.5 8.5,7.5C 8.5,6.5 8.5,5.5 8.5,4.5 Z"/></g>
<g><path style="opacity:0.78" fill="#f1b249" d="M 5.5,4.5 C 6.16667,4.5 6.83333,4.5 7.5,4.5C 7.83333,4.5 8.16667,4.5 8.5,4.5C 8.5,5.5 8.5,6.5 8.5,7.5C 8.16667,7.5 7.83333,7.5 7.5,7.5C 6.83333,7.5 6.16667,7.5 5.5,7.5C 5.5,7.16667 5.5,6.83333 5.5,6.5C 5.5,6.16667 5.5,5.83333 5.5,5.5C 5.5,5.16667 5.5,4.83333 5.5,4.5 Z"/></g>
<g><path style="opacity:0.753" fill="#344553" d="M 1.5,3.5 C 1.5,4.83333 1.5,6.16667 1.5,7.5C 2.95875,7.56745 4.29208,7.23411 5.5,6.5C 5.5,6.83333 5.5,7.16667 5.5,7.5C 5.5,7.83333 5.5,8.16667 5.5,8.5C 4.83333,8.5 4.5,8.83333 4.5,9.5C 3.5,9.5 2.5,9.5 1.5,9.5C 1.16667,8.5 0.5,7.83333 -0.5,7.5C -0.5,7.16667 -0.5,6.83333 -0.5,6.5C 0.833333,6.16667 0.833333,5.83333 -0.5,5.5C -0.5,5.16667 -0.5,4.83333 -0.5,4.5C 0.166667,4.16667 0.833333,3.83333 1.5,3.5 Z"/></g>
<g><path style="opacity:0.186" fill="#cccbc8" d="M 5.5,7.5 C 6.16667,7.5 6.83333,7.5 7.5,7.5C 7.32842,8.49162 7.66175,9.15829 8.5,9.5C 8.5,10.1667 8.5,10.8333 8.5,11.5C 6.5,11.5 5.5,10.5 5.5,8.5C 5.5,8.16667 5.5,7.83333 5.5,7.5 Z"/></g>
<g><path style="opacity:0.267" fill="#fbc72b" d="M 8.5,9.5 C 9.56764,8.56552 10.901,8.23219 12.5,8.5C 12.5,9.5 12.5,10.5 12.5,11.5C 12.1667,11.5 11.8333,11.5 11.5,11.5C 11.1788,9.95186 10.1788,9.28519 8.5,9.5 Z"/></g>
<g><path style="opacity:0.545" fill="#fbaa2c" d="M 1.5,9.5 C 2.5,9.5 3.5,9.5 4.5,9.5C 3.5,12.1667 2.5,12.1667 1.5,9.5 Z"/></g>
<g><path style="opacity:0.486" fill="#fcd145" d="M 8.5,9.5 C 10.1788,9.28519 11.1788,9.95186 11.5,11.5C 10.5,11.5 9.5,11.5 8.5,11.5C 8.5,10.8333 8.5,10.1667 8.5,9.5 Z"/></g>
</svg>
