<svg width="34" height="34" viewBox="0 0 34 34" fill="none" xmlns="http://www.w3.org/2000/svg">
	<g clip-path="url(#clip0_162_20)">
		<path d="M8.81546 10.1056H0.602567C0.44276 10.1056 0.289497 10.0421 0.176496 9.92907C0.0634952 9.81607 1.18437e-05 9.66281 1.18437e-05 9.503V3.98178C1.18437e-05 3.82197 0.0634952 3.66871 0.176496 3.55571C0.289497 3.44271 0.44276 3.37922 0.602567 3.37922H8.81546C8.97526 3.37922 9.12853 3.44271 9.24153 3.55571C9.35453 3.66871 9.41801 3.82197 9.41801 3.98178V9.503C9.41801 9.66281 9.35453 9.81607 9.24153 9.92907C9.12853 10.0421 8.97526 10.1056 8.81546 10.1056ZM8.81546 19.9278H0.602567C0.523279 19.9278 0.444771 19.9121 0.371542 19.8817C0.298313 19.8513 0.231804 19.8068 0.175827 19.7506C0.11985 19.6945 0.0755053 19.6278 0.0453354 19.5545C0.0151654 19.4812 -0.000236708 19.4026 1.18437e-05 19.3233V13.8021C1.18437e-05 13.6423 0.0634952 13.489 0.176496 13.376C0.289497 13.263 0.44276 13.1996 0.602567 13.1996H8.81546C8.97526 13.1996 9.12853 13.263 9.24153 13.376C9.35453 13.489 9.41801 13.6423 9.41801 13.8021V19.3233C9.41801 19.4831 9.35453 19.6364 9.24153 19.7494C9.12853 19.8624 8.97526 19.9259 8.81546 19.9259V19.9278ZM21.2406 10.1056H13.0333C12.9541 10.1058 12.8755 10.0904 12.8022 10.0602C12.7289 10.0301 12.6622 9.98572 12.6061 9.92974C12.5499 9.87376 12.5053 9.80725 12.4749 9.73403C12.4445 9.6608 12.4289 9.58229 12.4289 9.503V3.98178C12.4289 3.90249 12.4445 3.82398 12.4749 3.75075C12.5053 3.67752 12.5499 3.61101 12.6061 3.55504C12.6622 3.49906 12.7289 3.45472 12.8022 3.42455C12.8755 3.39438 12.9541 3.37897 13.0333 3.37922H21.2443C21.3235 3.37922 21.4018 3.39481 21.4749 3.42509C21.548 3.45537 21.6145 3.49975 21.6704 3.55571C21.7264 3.61166 21.7708 3.67808 21.801 3.75119C21.8313 3.82429 21.8469 3.90265 21.8469 3.98178V9.503C21.8469 9.58245 21.8312 9.66111 21.8007 9.73446C21.7702 9.80782 21.7254 9.87441 21.6691 9.93041C21.6127 9.98641 21.5459 10.0307 21.4723 10.0608C21.3988 10.0908 21.32 10.1061 21.2406 10.1056ZM21.2406 29.75H13.0333C12.873 29.75 12.7193 29.6863 12.6059 29.573C12.4926 29.4596 12.4289 29.3059 12.4289 29.1456V23.6224C12.4289 23.5432 12.4445 23.4646 12.4749 23.3914C12.5053 23.3182 12.5499 23.2517 12.6061 23.1957C12.6622 23.1397 12.7289 23.0954 12.8022 23.0652C12.8755 23.035 12.9541 23.0196 13.0333 23.0199H21.2443C21.3235 23.0199 21.4018 23.0355 21.4749 23.0658C21.548 23.096 21.6145 23.1404 21.6704 23.1964C21.7264 23.2523 21.7708 23.3188 21.801 23.3919C21.8313 23.465 21.8469 23.5433 21.8469 23.6224V29.1437C21.8472 29.2233 21.8316 29.3021 21.8012 29.3757C21.7708 29.4493 21.7261 29.5161 21.6698 29.5723C21.6134 29.6285 21.5464 29.673 21.4728 29.7032C21.3991 29.7333 21.3202 29.7486 21.2406 29.7481V29.75ZM8.81546 29.75H0.602567C0.52312 29.75 0.444456 29.7343 0.371103 29.7038C0.297751 29.6733 0.231157 29.6285 0.175155 29.5722C0.119153 29.5158 0.074848 29.449 0.0447898 29.3754C0.0147316 29.3019 -0.00048626 29.2231 1.18437e-05 29.1437V23.6224C1.18437e-05 23.4626 0.0634952 23.3094 0.176496 23.1964C0.289497 23.0834 0.44276 23.0199 0.602567 23.0199H8.81546C8.97526 23.0199 9.12853 23.0834 9.24153 23.1964C9.35453 23.3094 9.41801 23.4626 9.41801 23.6224V29.1437C9.41826 29.223 9.40286 29.3015 9.37269 29.3748C9.34252 29.4482 9.29817 29.5148 9.2422 29.571C9.18622 29.6271 9.11971 29.6717 9.04648 29.7021C8.97325 29.7325 8.89474 29.7481 8.81546 29.7481V29.75Z" fill="url(#paint0_linear_162_20)" />
		<path d="M24.9654 7.09845L33.6959 15.827C33.8909 16.0222 34.0005 16.2868 34.0005 16.5627C34.0005 16.8386 33.8909 17.1033 33.6959 17.2984L24.9654 26.0289C24.9004 26.0939 24.8176 26.1382 24.7275 26.1561C24.6373 26.1741 24.5438 26.1649 24.4589 26.1297C24.374 26.0945 24.3014 26.0349 24.2503 25.9585C24.1993 25.882 24.1721 25.7922 24.1721 25.7002V20.332C24.1721 20.271 24.1601 20.2106 24.1367 20.1542C24.1134 20.0978 24.0791 20.0466 24.036 20.0034C23.9929 19.9603 23.9416 19.9261 23.8853 19.9027C23.8289 19.8794 23.7685 19.8673 23.7074 19.8673H12.7972C12.697 19.8673 12.6009 19.8275 12.5301 19.7567C12.4592 19.6858 12.4194 19.5897 12.4194 19.4896V13.634C12.4194 13.5338 12.4592 13.4377 12.5301 13.3669C12.6009 13.296 12.697 13.2562 12.7972 13.2562H23.7074C23.7685 13.2562 23.8289 13.2442 23.8853 13.2209C23.9416 13.1975 23.9929 13.1633 24.036 13.1201C24.0791 13.077 24.1134 13.0258 24.1367 12.9694C24.1601 12.913 24.1721 12.8526 24.1721 12.7916V7.42711C24.1721 7.33518 24.1993 7.2453 24.2503 7.16885C24.3014 7.0924 24.374 7.03282 24.4589 6.99763C24.5438 6.96245 24.6373 6.95324 24.7275 6.97119C24.8176 6.98913 24.9004 7.03342 24.9654 7.09845Z" fill="#86D633" />
	</g>
	<defs>
		<linearGradient id="paint0_linear_162_20" x1="10.9216" y1="3.37922" x2="10.9216" y2="29.7481" gradientUnits="userSpaceOnUse">
			<stop stop-color="#5EA0EF" />
			<stop offset="1" stop-color="#0078D4" />
		</linearGradient>
		<clipPath id="clip0_162_20">
			<rect width="34" height="34" fill="white" />
		</clipPath>
	</defs>
</svg>
