<svg width="24" height="24" viewBox="0 0 24 24" fill="none"
	xmlns="http://www.w3.org/2000/svg">
	<path d="M12 5.33333C11.6464 5.33333 11.3073 5.47381 11.0572 5.72385C10.8072 5.9739 10.6667 6.31304 10.6667 6.66666V12C10.6667 12.3536 10.8072 12.6928 11.0572 12.9428C11.3073 13.1929 11.6464 13.3333 12 13.3333C12.3536 13.3333 12.6928 13.1929 12.9428 12.9428C13.1929 12.6928 13.3333 12.3536 13.3333 12V6.66666C13.3333 6.31304 13.1929 5.9739 12.9428 5.72385C12.6928 5.47381 12.3536 5.33333 12 5.33333ZM12 19.0133C12.442 19.0133 12.866 18.8377 13.1785 18.5252C13.4911 18.2126 13.6667 17.7887 13.6667 17.3467C13.6667 16.9046 13.4911 16.4807 13.1785 16.1682C12.866 15.8556 12.442 15.68 12 15.68C11.5615 15.68 11.141 15.8542 10.8309 16.1642C10.5209 16.4743 10.3467 16.8948 10.3467 17.3333C10.3467 17.7718 10.5209 18.1924 10.8309 18.5024C11.141 18.8125 11.5615 18.9867 12 18.9867V19.0133Z" fill="white"/>
</svg>
