<svg xmlns="http://www.w3.org/2000/svg" width="24" height="24" viewBox="0 0 24 24" fill="none">
	<path d="M16.995 8.895C17.19 8.63502 17.2847 8.31345 17.2616 7.9893C17.2386 7.66515 17.0994 7.36019 16.8696 7.1304C16.6398 6.90062 16.3349 6.76143 16.0107 6.73839C15.6866 6.71535 15.365 6.81002 15.105 7.005L12 10.083L8.895 7.005C8.63502 6.81002 8.31345 6.71535 7.9893 6.73839C7.66515 6.76143 7.36019 6.90062 7.1304 7.1304C6.90062 7.36019 6.76143 7.66515 6.73839 7.9893C6.71535 8.31345 6.81002 8.63502 7.005 8.895L10.083 12L7.005 15.105C6.85026 15.2211 6.72228 15.369 6.6297 15.5388C6.53711 15.7086 6.4821 15.8964 6.46839 16.0893C6.45468 16.2822 6.4826 16.4759 6.55022 16.6571C6.61785 16.8383 6.72363 17.0028 6.8604 17.1396C6.99717 17.2764 7.16172 17.3822 7.34294 17.4498C7.52414 17.5175 7.71777 17.5454 7.9107 17.5316C8.10363 17.5179 8.29136 17.4629 8.46119 17.3703C8.631 17.2778 8.77895 17.1498 8.895 16.995L12 13.917L15.105 16.995C15.365 17.19 15.6866 17.2847 16.0107 17.2616C16.3349 17.2386 16.6398 17.0994 16.8696 16.8696C17.0994 16.6398 17.2386 16.3349 17.2616 16.0107C17.2847 15.6866 17.19 15.365 16.995 15.105L13.917 12L16.995 8.895Z" fill="white"/>
</svg>