<?xml version="1.0" encoding="UTF-8" standalone="no"?>
<svg width="14px" height="14px" viewBox="0 0 14 14" version="1.1" xmlns="http://www.w3.org/2000/svg" xmlns:xlink="http://www.w3.org/1999/xlink">
    <title>list</title>
    <defs></defs>
    <g id="Final" stroke="none" stroke-width="1" fill="none" fill-rule="evenodd">
        <g id="Add-file-/-Enum--(maker)" transform="translate(-214.000000, -869.000000)" fill-rule="nonzero" fill="#000000">
            <g id="4" transform="translate(10.000000, 726.000000)">
                <g id="Group" transform="translate(191.000000, 106.000000)">
                    <g id="E179" transform="translate(13.000000, 37.000000)">
                        <g id="list">
                            <path d="M0.01365,3.66057391 L0.01365,6.39532174 L2.63445,6.39532174 L2.63445,3.66057391 L0.01365,3.66057391 L0.01365,3.66057391 Z M0.88725,5.48373913 L0.88725,4.57215652 L1.76085,4.57215652 L1.76085,5.48373913 L0.88725,5.48373913 L0.88725,5.48373913 Z M0.01365,7.30690435 L0.01365,10.0416522 L2.63445,10.0416522 L2.63445,7.30690435 L0.01365,7.30690435 L0.01365,7.30690435 Z M0.88725,9.13006957 L0.88725,8.21848696 L1.76085,8.21848696 L1.76085,9.13006957 L0.88725,9.13006957 L0.88725,9.13006957 Z M0.01365,10.9532348 L0.01365,13.6879826 L2.63445,13.6879826 L2.63445,10.9532348 L0.01365,10.9532348 L0.01365,10.9532348 Z M0.88725,12.7764 L0.88725,11.8648174 L1.76085,11.8648174 L1.76085,12.7764 L0.88725,12.7764 L0.88725,12.7764 Z M4.38165,8.21848696 L4.38165,9.13006957 L12.24405,9.13006957 L12.24405,8.21848696 L4.38165,8.21848696 L4.38165,8.21848696 Z M10.49685,5.48373913 L10.49685,4.57215652 L4.38165,4.57215652 L4.38165,5.48373913 L10.49685,5.48373913 L10.49685,5.48373913 Z M4.38165,12.7764 L13.99125,12.7764 L13.99125,11.8648174 L4.38165,11.8648174 L4.38165,12.7764 L4.38165,12.7764 Z M0.01365,0.0142434783 L0.01365,2.7489913 L2.63445,2.7489913 L2.63445,0.0142434783 L0.01365,0.0142434783 L0.01365,0.0142434783 Z M0.88725,1.8374087 L0.88725,0.925826087 L1.76085,0.925826087 L1.76085,1.8374087 L0.88725,1.8374087 L0.88725,1.8374087 Z M4.38165,0.925826087 L4.38165,1.8374087 L12.24405,1.8374087 L12.24405,0.925826087 L4.38165,0.925826087 Z" id="Shape" transform="translate(7.002450, 6.851113) scale(-1, 1) rotate(-180.000000) translate(-7.002450, -6.851113) "></path>
                        </g>
                    </g>
                </g>
            </g>
        </g>
    </g>
</svg>