<svg width="32" height="32" version="1.1" viewBox="-280 372 32 32" xmlns="http://www.w3.org/2000/svg">
 <path d="m-280 372h32v32h-32z" fill="#68217a"/>
 <g transform="matrix(.38369 0 0 .38369 -166.2 242.64)" fill="#fff">
  <path d="m-259.5 386.5h-8.9c-4.4 0-8-3.6-8-8.1s3.4-8.1 8-8.1c0.8 0 1.7 0.2 2.7 0.3l1.7 0.5 0.5-1.7c1.6-5.2 6.6-8.4 12.3-8.4 6.9 0 12.2 5.3 12.2 12.2 0 1.1-0.2 2.2-0.5 3.3l-0.7 2.5 2.7-0.3h0.5c2 0 3.6 1.7 3.6 3.6s-1.4 3.3-3.1 3.6h-8.9c-0.3-2.5-1.6-4.7-3.3-6.4-2.2-2.2-5.2-3.5-8.3-3.5-2.2 0-4.4 0.6-6.1 1.7l1.9 3c1.4-0.8 2.8-1.1 4.4-1.1 2.2 0 4.4 0.8 5.8 2.5 1.6 1.6 2.5 3.6 2.5 5.8s-0.8 4.4-2.5 5.8c-1.6 1.7-3.6 2.5-5.8 2.5-1.6 0-3.1-0.5-4.4-1.4l-1.9 3c1.9 1.1 4.1 1.9 6.1 1.9 3.1 0 6.1-1.1 8.3-3.4 1.9-1.9 3-4.4 3.3-7h9.1 0.2c3.6-0.3 6.3-3.4 6.3-7.2 0-3-2.8-5.8-6.1-6.4 0.2-0.6 0.2-0.9 0.2-1.9 0-8.8-6.2-15.8-16.1-15.8-6.3 0-11.9 3.6-14.2 9.4-0.8 0-1.4-0.3-2.3-0.3-6.5-0.1-11.7 4.9-11.7 11.3 0 6.3 5.2 11.3 11.4 11.3h9.8z"/>
  <circle cx="-257.2" cy="387.8" r="5.6"/>
 </g>
</svg>
