<svg width="32" height="32" enable-background="new 0 0 64 64" version="1.1" viewBox="0 0 32 32" xmlns="http://www.w3.org/2000/svg">
 <rect width="32" height="32" fill="#3999c6" stroke-width=".5"/>
 <g transform="matrix(.31008 0 0 .31008 6.0775 6.0775)" fill="#fff">
  <path d="m61.6 32.4c0.6-0.6 0.4-1.5 0-2l-2.7-2.7-12.1-11.8c-0.6-0.6-1.3-0.6-1.9 0s-0.7 1.5 0 2l12.7 12.4c0.6 0.6 0.6 1.5 0 2l-12.9 12.9c-0.6 0.6-0.6 1.5 0 2 0.6 0.6 1.5 0.4 1.9 0l12-11.9 0.1-0.1z"/>
  <path d="m2.4 32.4c-0.6-0.6-0.4-1.5 0-2l2.7-2.7 12.1-11.8c0.6-0.6 1.3-0.6 1.9 0s0.7 1.5 0 2l-12.5 12.5c-0.6 0.6-0.6 1.5 0 2l12.7 12.9c0.6 0.6 0.6 1.5 0 2-0.6 0.6-1.5 0.4-1.9 0l-12.2-11.8-0.1-0.1z"/>
  <polygon points="45.7 6.2 28.6 6.2 19.4 32.1 30.6 32.2 21.8 57.8 46 23.6 34.2 23.6"/>
 </g>
</svg>
